<svg width="50" height="54" viewBox="0 0 50 54" fill="none" xmlns="http://www.w3.org/2000/svg">
<mask id="path-1-outside-1_23_6284" maskUnits="userSpaceOnUse" x="-1" y="0" width="51" height="55" fill="black">
<rect fill="white" x="-1" width="51" height="55"/>
<path d="M31.9921 52.753C32.9927 52.7878 31.9721 53.2909 31.9921 52.753ZM31.849 52.0699C31.5092 51.3348 31.5346 50.4866 31.4007 49.6546C31.2944 47.9841 31.0883 46.3341 30.9662 44.7402C30.4907 41.7287 30.9612 38.5961 29.8723 35.6231C29.1918 33.8749 29.2307 32.0556 29.5856 30.2713C30.1256 28.7716 28.2445 27.8048 26.7 27.2062C25.4374 26.6317 23.3153 25.8026 24.1439 24.5C25.7448 23.1158 28.4754 22.8939 30.6689 22.2305C31.6952 21.9112 33.2341 21.78 33.7721 21.0116C32.4215 20.0943 30.3678 19.9145 28.6152 19.6135C26.0593 19.1823 23.2578 19.2625 20.9147 18.3185C19.0737 17.29 21.4278 16.2493 22.8165 16.0658C28.963 14.7146 35.4872 14.8461 41.7578 13.9702C43.2099 13.6414 41.2177 13.2247 40.6819 13.067C34.8998 11.8926 28.7872 11.7263 22.8332 11.6412C17.1412 11.5623 11.4316 11.8998 5.8644 11.9655C4.40711 11.9056 2.54911 12.0785 1.52669 11.1392C1.18688 10.3986 1.9434 9.93713 2.48649 9.56911C5.82337 7.99291 9.92425 7.68571 13.8588 7.31172C23.84 6.53329 33.9141 6.63031 43.886 5.80419C45.4878 5.52782 47.5196 5.67394 48.6874 4.69314C48.7959 4.06206 47.8134 3.76699 47.3498 3.5122C45.7973 2.95491 44.0817 2.58522 42.4186 2.29716C40.8914 1.97953 39.0721 1.82314 37.3729 1.59227C36.9 1.57586 35.8175 1.41898 35.2333 1.44405C34.5721 1.33983 33.5306 1.31016 33.1506 1.30098C31.7768 1.20675 30.143 1.16813 28.8032 1.16094C28.3386 1.13027 27.7863 1.17437 27.2831 1.14642C26.6165 1.20515 25.2378 1.15245 24.3268 1.23036C23.3591 1.23864 22.0095 1.33122 21.3155 1.37922C20.2938 1.44525 19.1847 1.5276 18.3851 1.63595C17.0096 1.75603 15.5827 1.91907 14.297 2.11397C13.8024 2.21584 13.235 2.23546 13.1431 2.30311C12.7617 2.32767 12.0293 2.45906 11.5792 2.51636C10.9093 2.65583 9.85059 2.76381 9.22503 2.91199C8.40301 3.03845 8.49423 3.07428 7.76009 3.17761C6.99551 3.34125 6.16526 3.45822 5.56447 3.64069C4.85264 3.80418 4.6157 3.82588 3.8886 3.9777C3.52608 4.05797 2.85173 4.31713 3.46749 4.22085C3.91234 4.10017 5.07519 4.48621 4.15252 4.49208C0.94604 4.93989 0.310824 4.10248 1.6813 3.80436C5.03447 3.07495 11.8027 2.17473 16.6179 1.65556C25.1423 0.706837 33.9657 0.729802 42.3837 2.10769C44.6579 2.61126 47.2346 2.87503 48.8911 4.20469C49.4898 5.28278 47.4708 5.52435 46.4755 5.71725C45.0597 5.84573 43.7987 6.08126 42.4351 6.09007C38.3481 6.50087 34.3074 6.53364 30.2081 6.718C28.4206 6.72661 26.5721 6.86852 24.7345 6.8852C23.7312 6.92073 22.7219 7.03156 21.9165 7.00416C19.6289 7.17496 17.5322 7.1947 15.3042 7.36339C14.5305 7.44731 13.2637 7.47767 12.7567 7.59705C11.6675 7.6046 10.0073 7.92817 8.91452 8.02325C7.81717 8.21536 6.6098 8.39813 5.45186 8.73174C5.26994 8.79016 4.64176 8.91973 4.4427 9.027C3.73175 9.23603 3.16894 9.45992 2.54938 9.80244C2.11454 10.0851 1.81718 10.3623 1.70777 10.6618C1.68325 11.5383 3.37684 11.5931 4.27004 11.6901C10.4782 11.863 16.7057 11.2896 22.9294 11.4466C29.085 11.5753 35.3919 11.6951 41.3094 13.0137C43.8146 13.3602 41.9802 14.6511 40.3444 14.4156C34.324 15.0516 28.1059 15.0552 22.3026 16.4656C21.3488 16.6041 19.8544 17.3363 20.9903 18.0263C22.9896 19.0072 25.6017 18.8885 27.8837 19.2734C29.9695 19.6418 32.4398 19.732 34.0673 20.8485C34.3046 21.7452 32.4827 22.0046 31.6425 22.2749C29.2477 22.9565 26.4368 23.2501 24.5183 24.5725C23.7307 25.6732 25.6642 26.4179 26.7293 26.8973C28.2208 27.535 30.0865 28.2883 30.0139 29.7362C29.9408 31.4383 29.3401 33.1782 30.0981 34.8385C30.736 37.0859 31.2701 39.5405 31.1508 41.9219C31.2489 43.8343 31.5558 45.6887 31.6752 47.5941C31.734 48.2192 31.9056 49.1537 31.8459 49.6451C32.0012 50.5227 31.9124 51.1233 32.2388 51.919C32.2735 52.0035 32.2501 52.0287 32.1125 52.075C32.0372 52.1004 31.9312 52.0935 31.849 52.0699ZM31.7995 48.5433C31.7275 48.5781 31.7412 48.4807 31.7995 48.5433ZM4.78879 8.90951C4.6926 8.97488 4.72466 8.84197 4.78879 8.90951ZM19.2638 7.12252C19.202 7.18747 19.2335 7.05586 19.2638 7.12252ZM26.5075 6.83077C26.4458 6.89572 26.4772 6.7641 26.5075 6.83077ZM28.0145 6.76505C27.9914 6.80629 27.9153 6.72687 28.0145 6.76505ZM4.74448 4.17574C4.72109 4.21684 4.64541 4.13742 4.74448 4.17574ZM15.3229 1.96215C15.272 1.99732 15.2536 1.88966 15.3229 1.96215ZM35.6961 1.44057C35.6728 1.48167 35.5971 1.40223 35.6961 1.44057ZM25.7876 1.16705C25.7642 1.20814 25.6885 1.12873 25.7876 1.16705ZM31.174 42.2331C31.2334 42.3288 31.1957 42.1368 31.174 42.2331ZM26.6654 6.83655C26.6762 6.87147 26.7752 6.81041 26.6654 6.83655ZM37.6045 6.42961C37.7007 6.49496 37.6687 6.3621 37.6045 6.42961ZM42.3837 6.13786C42.4139 6.20453 42.4454 6.0729 42.3837 6.13786ZM47.9009 3.80384C47.9907 3.87326 47.9319 3.73195 47.9009 3.80384ZM9.01743 2.96505C9.0485 3.03693 9.10722 2.89563 9.01743 2.96505ZM14.6801 2.0591C14.691 2.0942 14.7898 2.03298 14.6801 2.0591ZM36.4536 1.54276C36.5177 1.61029 36.5497 1.47739 36.4536 1.54276ZM27.0455 1.17807C27.0757 1.24473 27.1072 1.11311 27.0455 1.17807ZM32.1496 52.17C32.8788 52.1033 31.2461 53.1595 32.1496 52.17Z"/>
</mask>
<path d="M31.9921 52.753C32.9927 52.7878 31.9721 53.2909 31.9921 52.753ZM31.849 52.0699C31.5092 51.3348 31.5346 50.4866 31.4007 49.6546C31.2944 47.9841 31.0883 46.3341 30.9662 44.7402C30.4907 41.7287 30.9612 38.5961 29.8723 35.6231C29.1918 33.8749 29.2307 32.0556 29.5856 30.2713C30.1256 28.7716 28.2445 27.8048 26.7 27.2062C25.4374 26.6317 23.3153 25.8026 24.1439 24.5C25.7448 23.1158 28.4754 22.8939 30.6689 22.2305C31.6952 21.9112 33.2341 21.78 33.7721 21.0116C32.4215 20.0943 30.3678 19.9145 28.6152 19.6135C26.0593 19.1823 23.2578 19.2625 20.9147 18.3185C19.0737 17.29 21.4278 16.2493 22.8165 16.0658C28.963 14.7146 35.4872 14.8461 41.7578 13.9702C43.2099 13.6414 41.2177 13.2247 40.6819 13.067C34.8998 11.8926 28.7872 11.7263 22.8332 11.6412C17.1412 11.5623 11.4316 11.8998 5.8644 11.9655C4.40711 11.9056 2.54911 12.0785 1.52669 11.1392C1.18688 10.3986 1.9434 9.93713 2.48649 9.56911C5.82337 7.99291 9.92425 7.68571 13.8588 7.31172C23.84 6.53329 33.9141 6.63031 43.886 5.80419C45.4878 5.52782 47.5196 5.67394 48.6874 4.69314C48.7959 4.06206 47.8134 3.76699 47.3498 3.5122C45.7973 2.95491 44.0817 2.58522 42.4186 2.29716C40.8914 1.97953 39.0721 1.82314 37.3729 1.59227C36.9 1.57586 35.8175 1.41898 35.2333 1.44405C34.5721 1.33983 33.5306 1.31016 33.1506 1.30098C31.7768 1.20675 30.143 1.16813 28.8032 1.16094C28.3386 1.13027 27.7863 1.17437 27.2831 1.14642C26.6165 1.20515 25.2378 1.15245 24.3268 1.23036C23.3591 1.23864 22.0095 1.33122 21.3155 1.37922C20.2938 1.44525 19.1847 1.5276 18.3851 1.63595C17.0096 1.75603 15.5827 1.91907 14.297 2.11397C13.8024 2.21584 13.235 2.23546 13.1431 2.30311C12.7617 2.32767 12.0293 2.45906 11.5792 2.51636C10.9093 2.65583 9.85059 2.76381 9.22503 2.91199C8.40301 3.03845 8.49423 3.07428 7.76009 3.17761C6.99551 3.34125 6.16526 3.45822 5.56447 3.64069C4.85264 3.80418 4.6157 3.82588 3.8886 3.9777C3.52608 4.05797 2.85173 4.31713 3.46749 4.22085C3.91234 4.10017 5.07519 4.48621 4.15252 4.49208C0.94604 4.93989 0.310824 4.10248 1.6813 3.80436C5.03447 3.07495 11.8027 2.17473 16.6179 1.65556C25.1423 0.706837 33.9657 0.729802 42.3837 2.10769C44.6579 2.61126 47.2346 2.87503 48.8911 4.20469C49.4898 5.28278 47.4708 5.52435 46.4755 5.71725C45.0597 5.84573 43.7987 6.08126 42.4351 6.09007C38.3481 6.50087 34.3074 6.53364 30.2081 6.718C28.4206 6.72661 26.5721 6.86852 24.7345 6.8852C23.7312 6.92073 22.7219 7.03156 21.9165 7.00416C19.6289 7.17496 17.5322 7.1947 15.3042 7.36339C14.5305 7.44731 13.2637 7.47767 12.7567 7.59705C11.6675 7.6046 10.0073 7.92817 8.91452 8.02325C7.81717 8.21536 6.6098 8.39813 5.45186 8.73174C5.26994 8.79016 4.64176 8.91973 4.4427 9.027C3.73175 9.23603 3.16894 9.45992 2.54938 9.80244C2.11454 10.0851 1.81718 10.3623 1.70777 10.6618C1.68325 11.5383 3.37684 11.5931 4.27004 11.6901C10.4782 11.863 16.7057 11.2896 22.9294 11.4466C29.085 11.5753 35.3919 11.6951 41.3094 13.0137C43.8146 13.3602 41.9802 14.6511 40.3444 14.4156C34.324 15.0516 28.1059 15.0552 22.3026 16.4656C21.3488 16.6041 19.8544 17.3363 20.9903 18.0263C22.9896 19.0072 25.6017 18.8885 27.8837 19.2734C29.9695 19.6418 32.4398 19.732 34.0673 20.8485C34.3046 21.7452 32.4827 22.0046 31.6425 22.2749C29.2477 22.9565 26.4368 23.2501 24.5183 24.5725C23.7307 25.6732 25.6642 26.4179 26.7293 26.8973C28.2208 27.535 30.0865 28.2883 30.0139 29.7362C29.9408 31.4383 29.3401 33.1782 30.0981 34.8385C30.736 37.0859 31.2701 39.5405 31.1508 41.9219C31.2489 43.8343 31.5558 45.6887 31.6752 47.5941C31.734 48.2192 31.9056 49.1537 31.8459 49.6451C32.0012 50.5227 31.9124 51.1233 32.2388 51.919C32.2735 52.0035 32.2501 52.0287 32.1125 52.075C32.0372 52.1004 31.9312 52.0935 31.849 52.0699ZM31.7995 48.5433C31.7275 48.5781 31.7412 48.4807 31.7995 48.5433ZM4.78879 8.90951C4.6926 8.97488 4.72466 8.84197 4.78879 8.90951ZM19.2638 7.12252C19.202 7.18747 19.2335 7.05586 19.2638 7.12252ZM26.5075 6.83077C26.4458 6.89572 26.4772 6.7641 26.5075 6.83077ZM28.0145 6.76505C27.9914 6.80629 27.9153 6.72687 28.0145 6.76505ZM4.74448 4.17574C4.72109 4.21684 4.64541 4.13742 4.74448 4.17574ZM15.3229 1.96215C15.272 1.99732 15.2536 1.88966 15.3229 1.96215ZM35.6961 1.44057C35.6728 1.48167 35.5971 1.40223 35.6961 1.44057ZM25.7876 1.16705C25.7642 1.20814 25.6885 1.12873 25.7876 1.16705ZM31.174 42.2331C31.2334 42.3288 31.1957 42.1368 31.174 42.2331ZM26.6654 6.83655C26.6762 6.87147 26.7752 6.81041 26.6654 6.83655ZM37.6045 6.42961C37.7007 6.49496 37.6687 6.3621 37.6045 6.42961ZM42.3837 6.13786C42.4139 6.20453 42.4454 6.0729 42.3837 6.13786ZM47.9009 3.80384C47.9907 3.87326 47.9319 3.73195 47.9009 3.80384ZM9.01743 2.96505C9.0485 3.03693 9.10722 2.89563 9.01743 2.96505ZM14.6801 2.0591C14.691 2.0942 14.7898 2.03298 14.6801 2.0591ZM36.4536 1.54276C36.5177 1.61029 36.5497 1.47739 36.4536 1.54276ZM27.0455 1.17807C27.0757 1.24473 27.1072 1.11311 27.0455 1.17807ZM32.1496 52.17C32.8788 52.1033 31.2461 53.1595 32.1496 52.17Z" fill="#E24A08"/>
<path d="M31.9921 52.753L32.0269 51.7536L31.0298 51.7189L30.9928 52.7159L31.9921 52.753ZM31.849 52.0699L30.9412 52.4894L31.1331 52.9046L31.5728 53.031L31.849 52.0699ZM31.4007 49.6546L30.4027 49.7181L30.4057 49.766L30.4134 49.8134L31.4007 49.6546ZM30.9662 44.7402L31.9633 44.6638L31.9602 44.6239L31.954 44.5843L30.9662 44.7402ZM29.8723 35.6231L30.8113 35.2792L30.8078 35.2697L30.8042 35.2604L29.8723 35.6231ZM29.5856 30.2713L28.6447 29.9325L28.6194 30.0028L28.6048 30.0762L29.5856 30.2713ZM26.7 27.2062L26.2859 28.1164L26.3119 28.1283L26.3387 28.1387L26.7 27.2062ZM24.1439 24.5L23.4898 23.7436L23.3789 23.8395L23.3001 23.9633L24.1439 24.5ZM30.6689 22.2305L30.9584 23.1878L30.966 23.1854L30.6689 22.2305ZM33.7721 21.0116L34.5913 21.5851L35.173 20.7542L34.334 20.1844L33.7721 21.0116ZM28.6152 19.6135L28.7845 18.6279L28.7816 18.6274L28.6152 19.6135ZM20.9147 18.3185L20.427 19.1915L20.4823 19.2224L20.5411 19.2461L20.9147 18.3185ZM22.8165 16.0658L22.9474 17.0572L22.9896 17.0516L23.0312 17.0425L22.8165 16.0658ZM41.7578 13.9702L41.8961 14.9606L41.9377 14.9548L41.9786 14.9455L41.7578 13.9702ZM40.6819 13.067L40.9643 12.1077L40.923 12.0955L40.8809 12.087L40.6819 13.067ZM22.8332 11.6412L22.8475 10.6413L22.8471 10.6413L22.8332 11.6412ZM5.8644 11.9655L5.82333 12.9646L5.84975 12.9657L5.87619 12.9654L5.8644 11.9655ZM1.52669 11.1392L0.617778 11.5562L0.701789 11.7393L0.85015 11.8756L1.52669 11.1392ZM2.48649 9.56911L2.05938 8.66491L1.98951 8.69792L1.92553 8.74127L2.48649 9.56911ZM13.8588 7.31172L13.781 6.31475L13.7726 6.31541L13.7642 6.31621L13.8588 7.31172ZM43.886 5.80419L43.9686 6.80078L44.0126 6.79714L44.056 6.78963L43.886 5.80419ZM48.6874 4.69314L49.3305 5.45888L49.6108 5.22343L49.6729 4.86265L48.6874 4.69314ZM47.3498 3.5122L47.8314 2.63583L47.7621 2.59772L47.6876 2.571L47.3498 3.5122ZM42.4186 2.29716L42.215 3.27621L42.2314 3.27962L42.248 3.28249L42.4186 2.29716ZM37.3729 1.59227L37.5076 0.601374L37.4578 0.594611L37.4076 0.59287L37.3729 1.59227ZM35.2333 1.44405L35.0776 2.43185L35.1763 2.44741L35.2762 2.44313L35.2333 1.44405ZM33.1506 1.30098L33.0822 2.29864L33.1043 2.30016L33.1265 2.30069L33.1506 1.30098ZM28.8032 1.16094L28.7373 2.15877L28.7675 2.16077L28.7978 2.16093L28.8032 1.16094ZM27.2831 1.14642L27.3386 0.147958L27.2669 0.143975L27.1954 0.150276L27.2831 1.14642ZM24.3268 1.23036L24.3354 2.23032L24.3738 2.23L24.4121 2.22672L24.3268 1.23036ZM21.3155 1.37922L21.38 2.37715L21.3845 2.37683L21.3155 1.37922ZM18.3851 1.63595L18.472 2.63216L18.4958 2.63009L18.5194 2.6269L18.3851 1.63595ZM14.297 2.11397L14.1471 1.12526L14.121 1.12921L14.0952 1.13453L14.297 2.11397ZM13.1431 2.30311L13.2073 3.30104L13.4997 3.28221L13.7357 3.10859L13.1431 2.30311ZM11.5792 2.51636L11.4529 1.52436L11.4138 1.52933L11.3753 1.53736L11.5792 2.51636ZM9.22503 2.91199L9.37708 3.90037L9.41662 3.89428L9.45554 3.88506L9.22503 2.91199ZM7.76009 3.17761L7.62071 2.18737L7.58554 2.19232L7.5508 2.19976L7.76009 3.17761ZM5.56447 3.64069L5.78832 4.61531L5.82201 4.60757L5.85508 4.59753L5.56447 3.64069ZM3.8886 3.9777L3.68419 2.99874L3.67241 3.00135L3.8886 3.9777ZM3.46749 4.22085L3.62197 5.20885L3.67627 5.20036L3.72932 5.18597L3.46749 4.22085ZM4.15252 4.49208L4.14616 3.4921L4.07987 3.49252L4.0142 3.50169L4.15252 4.49208ZM1.6813 3.80436L1.46874 2.82721L1.46874 2.82721L1.6813 3.80436ZM16.6179 1.65556L16.7251 2.64981L16.7285 2.64943L16.6179 1.65556ZM42.3837 2.10769L42.5998 1.13134L42.5727 1.12532L42.5452 1.12082L42.3837 2.10769ZM48.8911 4.20469L49.7654 3.71924L49.6701 3.54768L49.5171 3.42485L48.8911 4.20469ZM46.4755 5.71725L46.5659 6.71316L46.6162 6.70859L46.6658 6.69898L46.4755 5.71725ZM42.4351 6.09007L42.4286 5.09009L42.3818 5.09039L42.3351 5.09508L42.4351 6.09007ZM30.2081 6.718L30.2129 7.71799L30.2329 7.71789L30.253 7.71699L30.2081 6.718ZM24.7345 6.8852L24.7255 5.88524L24.7123 5.88536L24.6992 5.88582L24.7345 6.8852ZM21.9165 7.00416L21.9504 6.00474L21.8962 6.00289L21.842 6.00694L21.9165 7.00416ZM15.3042 7.36339L15.2287 6.36624L15.2125 6.36747L15.1964 6.36922L15.3042 7.36339ZM12.7567 7.59705L12.7637 8.59702L12.8763 8.59624L12.9859 8.57043L12.7567 7.59705ZM8.91452 8.02325L8.82785 7.02701L8.78472 7.03076L8.74208 7.03823L8.91452 8.02325ZM5.45186 8.73174L5.17502 7.77082L5.16048 7.77501L5.14608 7.77963L5.45186 8.73174ZM4.4427 9.027L4.72478 9.98639L4.82506 9.95691L4.91708 9.90732L4.4427 9.027ZM2.54938 9.80244L2.06556 8.92727L2.03431 8.94454L2.00438 8.964L2.54938 9.80244ZM1.70777 10.6618L0.76848 10.3186L0.712702 10.4713L0.708157 10.6338L1.70777 10.6618ZM4.27004 11.6901L4.16205 12.6843L4.20202 12.6886L4.2422 12.6898L4.27004 11.6901ZM22.9294 11.4466L22.9042 12.4463L22.9085 12.4464L22.9294 11.4466ZM41.3094 13.0137L41.0919 13.9898L41.1319 13.9987L41.1724 14.0043L41.3094 13.0137ZM40.3444 14.4156L40.4869 13.4258L40.3635 13.408L40.2394 13.4211L40.3444 14.4156ZM22.3026 16.4656L22.4462 17.4552L22.4929 17.4484L22.5387 17.4373L22.3026 16.4656ZM20.9903 18.0263L20.4711 18.8809L20.5095 18.9042L20.5498 18.924L20.9903 18.0263ZM27.8837 19.2734L28.0576 18.2886L28.0501 18.2874L27.8837 19.2734ZM34.0673 20.8485L35.034 20.5927L34.9391 20.2339L34.633 20.0239L34.0673 20.8485ZM31.6425 22.2749L31.9162 23.2367L31.9325 23.2321L31.9487 23.2269L31.6425 22.2749ZM24.5183 24.5725L23.9508 23.7491L23.8068 23.8484L23.705 23.9906L24.5183 24.5725ZM26.7293 26.8973L26.3188 27.8092L26.3274 27.8131L26.3362 27.8168L26.7293 26.8973ZM30.0139 29.7362L29.0152 29.6861L29.0149 29.6933L30.0139 29.7362ZM30.0981 34.8385L31.0601 34.5654L31.0393 34.4923L31.0078 34.4232L30.0981 34.8385ZM31.1508 41.9219L30.1521 41.8719L30.1495 41.9225L30.1521 41.9732L31.1508 41.9219ZM31.6752 47.5941L30.6771 47.6566L30.6781 47.6722L30.6796 47.6878L31.6752 47.5941ZM31.8459 49.6451L30.8532 49.5244L30.8352 49.6724L30.8612 49.8193L31.8459 49.6451ZM32.2388 51.919L31.3136 52.2985L31.3137 52.2986L32.2388 51.919ZM32.1125 52.075L32.4316 53.0227L32.4317 53.0227L32.1125 52.075ZM31.7995 48.5433L32.2339 49.4441L33.4563 48.8546L32.5312 47.8617L31.7995 48.5433ZM4.78879 8.90951L5.35088 9.73658L6.32473 9.07474L5.51393 8.22091L4.78879 8.90951ZM19.2638 7.12252L19.9887 7.81128L20.4528 7.32277L20.1743 6.70921L19.2638 7.12252ZM26.5075 6.83077L27.2325 7.51953L27.6966 7.03102L27.4181 6.41746L26.5075 6.83077ZM28.0145 6.76505L28.8865 7.25459L29.4523 6.2468L28.3736 5.83176L28.0145 6.76505ZM4.74448 4.17574L5.6136 4.67034L6.18757 3.66174L5.10524 3.24309L4.74448 4.17574ZM15.3229 1.96215L15.8914 2.78479L16.8551 2.11871L16.0461 1.2715L15.3229 1.96215ZM35.6961 1.44057L36.5654 1.93496L37.1389 0.926563L36.057 0.507943L35.6961 1.44057ZM25.7876 1.16705L26.6567 1.66166L27.2307 0.652992L26.1483 0.234369L25.7876 1.16705ZM31.174 42.2331L30.1985 42.0133L30.1085 42.4127L30.3244 42.7605L31.174 42.2331ZM26.6654 6.83655L26.4337 5.86376L25.3968 6.11074L25.7094 7.12981L26.6654 6.83655ZM37.6045 6.42961L36.8798 5.74059L36.0681 6.59443L37.0424 7.25667L37.6045 6.42961ZM42.3837 6.13786L41.6588 5.44893L41.1944 5.93756L41.4732 6.55137L42.3837 6.13786ZM47.9009 3.80384L46.9828 3.40761L46.6752 4.12018L47.2892 4.59493L47.9009 3.80384ZM9.01743 2.96505L8.40576 2.17394L7.79138 2.64896L8.09951 3.36182L9.01743 2.96505ZM14.6801 2.0591L14.4485 1.0863L13.4092 1.33377L13.7247 2.35445L14.6801 2.0591ZM36.4536 1.54276L35.8914 0.7157L34.9179 1.3774L35.7283 2.23119L36.4536 1.54276ZM27.0455 1.17807L26.3205 0.489306L25.8564 0.977815L26.1349 1.59138L27.0455 1.17807ZM32.1496 52.17L32.0585 51.1742L31.6725 51.2095L31.4111 51.4957L32.1496 52.17ZM30.9928 52.7159C30.9845 52.9384 31.0278 53.2015 31.1845 53.4469C31.3437 53.6962 31.569 53.8473 31.7842 53.9252C32.1655 54.0631 32.5444 53.9917 32.802 53.8647C32.9205 53.8063 33.1743 53.6584 33.3254 53.3483C33.4117 53.1714 33.4638 52.9371 33.4117 52.6788C33.3606 52.4259 33.2281 52.2415 33.105 52.123C32.8874 51.9134 32.6327 51.8412 32.5085 51.8118C32.3544 51.7754 32.1901 51.7593 32.0269 51.7536L31.9573 53.7524C32.0442 53.7554 32.0669 53.7626 32.0486 53.7582C32.0384 53.7558 32.0026 53.7468 31.9521 53.7242C31.9051 53.703 31.8136 53.6559 31.7178 53.5637C31.6174 53.467 31.4977 53.3051 31.4512 53.0747C31.4036 52.8389 31.452 52.6271 31.5276 52.472C31.6576 52.2053 31.863 52.0978 31.9176 52.0709C32.0477 52.0067 32.2377 51.9624 32.4645 52.0445C32.6025 52.0944 32.7592 52.1968 32.8703 52.3708C32.9789 52.5409 32.9947 52.702 32.9914 52.79L30.9928 52.7159ZM32.7567 51.6503C32.6504 51.4203 32.5877 51.143 32.5393 50.7701C32.5009 50.4738 32.454 49.9058 32.388 49.4957L30.4134 49.8134C30.4813 50.2354 30.4886 50.5076 30.5559 51.0271C30.6133 51.4701 30.7078 51.9844 30.9412 52.4894L32.7567 51.6503ZM32.3987 49.5911C32.2946 47.9567 32.0771 46.1492 31.9633 44.6638L29.9691 44.8166C30.0995 46.519 30.2941 48.0116 30.4027 49.7181L32.3987 49.5911ZM31.954 44.5843C31.7272 43.1482 31.7293 41.7149 31.648 40.1164C31.5688 38.5611 31.4092 36.9115 30.8113 35.2792L28.9333 35.967C29.4243 37.3077 29.5739 38.7108 29.6506 40.218C29.7251 41.6819 29.7297 43.3207 29.9784 44.8962L31.954 44.5843ZM30.8042 35.2604C30.217 33.7519 30.233 32.1424 30.5664 30.4663L28.6048 30.0762C28.2284 31.9688 28.1666 33.9979 28.9404 35.9858L30.8042 35.2604ZM30.5265 30.61C30.7437 30.0067 30.7244 29.4122 30.508 28.8719C30.3022 28.3582 29.9426 27.9522 29.5703 27.6373C28.8385 27.0184 27.8472 26.5784 27.0614 26.2738L26.3387 28.1387C27.0973 28.4327 27.8188 28.7753 28.2787 29.1644C28.5023 29.3534 28.6082 29.5078 28.6515 29.6158C28.6841 29.6973 28.6975 29.786 28.6447 29.9325L30.5265 30.61ZM27.1142 26.296C26.4172 25.9788 25.7124 25.6848 25.2407 25.3283C25.1338 25.2476 25.0597 25.1781 25.011 25.1219C24.9623 25.0658 24.9512 25.0372 24.9514 25.0376C24.973 25.0947 24.9303 25.127 24.9876 25.0368L23.3001 23.9633C22.9432 24.5244 22.855 25.1488 23.0809 25.7456C23.2807 26.2733 23.6814 26.6569 24.0349 26.924C24.7327 27.4513 25.7203 27.8591 26.2859 28.1164L27.1142 26.296ZM24.7979 25.2565C25.4197 24.7189 26.3175 24.3639 27.4441 24.0606C28.0001 23.9109 28.5737 23.783 29.1735 23.6449C29.763 23.5091 30.3744 23.3643 30.9584 23.1877L30.3794 21.2734C29.8666 21.4284 29.3142 21.5601 28.7247 21.6959C28.1456 21.8292 27.5252 21.9676 26.9243 22.1294C25.737 22.4489 24.4691 22.8969 23.4898 23.7436L24.7979 25.2565ZM30.966 23.1854C31.182 23.1182 31.435 23.058 31.738 22.9873C32.0275 22.9199 32.3615 22.8432 32.6829 22.7497C33.2675 22.5796 34.1043 22.2806 34.5913 21.5851L32.9529 20.438C32.9019 20.511 32.7002 20.6618 32.1243 20.8293C31.8654 20.9046 31.5886 20.9686 31.2841 21.0395C30.9932 21.1073 30.6689 21.1832 30.3718 21.2757L30.966 23.1854ZM34.334 20.1844C33.5011 19.6187 32.5024 19.3112 31.5582 19.1045C30.6312 18.9017 29.5964 18.7674 28.7845 18.6279L28.4459 20.5991C29.3866 20.7606 30.255 20.8667 31.1306 21.0583C31.9891 21.2461 32.6925 21.4872 33.2102 21.8388L34.334 20.1844ZM28.7816 18.6274C27.4734 18.4067 26.0414 18.3085 24.8001 18.1649C23.5091 18.0156 22.3317 17.8113 21.2884 17.391L20.5411 19.2461C21.8408 19.7697 23.2358 19.9973 24.5703 20.1517C25.9545 20.3118 27.2011 20.3891 28.4489 20.5996L28.7816 18.6274ZM21.4025 17.4456C21.0214 17.2327 21.2187 17.2099 21.2377 17.4913C21.256 17.7634 21.0723 17.8164 21.2665 17.6661C21.4188 17.5482 21.6792 17.4118 22.0134 17.2914C22.3392 17.1741 22.6771 17.0929 22.9474 17.0572L22.6855 15.0744C21.8896 15.1796 20.7632 15.5267 20.0425 16.0844C19.7046 16.3459 19.1909 16.8633 19.2422 17.6256C19.2941 18.3972 19.8875 18.8901 20.427 19.1915L21.4025 17.4456ZM23.0312 17.0425C26.0316 16.3829 29.1401 16.0819 32.3175 15.8368C35.4744 15.5933 38.7207 15.4041 41.8961 14.9606L41.6194 12.9798C38.5242 13.4121 35.3731 13.5952 32.1637 13.8427C28.9747 14.0887 25.7478 14.3976 22.6018 15.0891L23.0312 17.0425ZM41.9786 14.9455C42.1898 14.8977 42.4143 14.8328 42.6099 14.7317C42.7418 14.6634 43.2118 14.4018 43.2724 13.8153C43.3339 13.2193 42.9149 12.8737 42.8132 12.7941C42.6566 12.6716 42.4834 12.5887 42.3605 12.5359C41.906 12.3403 41.1122 12.1512 40.9643 12.1077L40.3995 14.0263C40.5305 14.0649 40.8295 14.1412 41.0131 14.1921C41.2488 14.2574 41.4458 14.3196 41.5701 14.3731C41.639 14.4027 41.6265 14.405 41.5804 14.369C41.5563 14.3501 41.4839 14.2907 41.4153 14.1826C41.3409 14.0653 41.2566 13.8648 41.2829 13.6098C41.3091 13.3566 41.4307 13.1819 41.5194 13.0887C41.6019 13.0021 41.6756 12.9632 41.691 12.9552C41.7197 12.9404 41.6888 12.9605 41.537 12.9949L41.9786 14.9455ZM40.8809 12.087C34.996 10.8918 28.7966 10.7264 22.8475 10.6413L22.819 12.6411C28.7778 12.7263 34.8035 12.8935 40.4828 14.047L40.8809 12.087ZM22.8471 10.6413C17.1536 10.5624 11.3407 10.9008 5.8526 10.9655L5.87619 12.9654C11.5226 12.8988 17.1287 12.5622 22.8194 12.6411L22.8471 10.6413ZM5.90547 10.9663C5.05953 10.9315 4.38097 10.9661 3.63733 10.8876C2.92681 10.8127 2.4734 10.651 2.20322 10.4028L0.85015 11.8756C1.6024 12.5667 2.5892 12.7882 3.42761 12.8766C4.23289 12.9615 5.21198 12.9395 5.82333 12.9646L5.90547 10.9663ZM2.43559 10.7222C2.43113 10.7125 2.4516 10.7611 2.43627 10.8354C2.4242 10.8939 2.40272 10.9032 2.43939 10.8598C2.47762 10.8145 2.54587 10.7509 2.65996 10.6653C2.77664 10.5777 2.89487 10.5003 3.04746 10.397L1.92553 8.74127C1.70845 8.88837 1.23723 9.18366 0.911613 9.56908C0.733742 9.77963 0.552904 10.0662 0.477584 10.431C0.399005 10.8116 0.452338 11.1956 0.617778 11.5562L2.43559 10.7222ZM2.9136 10.4733C6.05661 8.98869 9.95313 8.68747 13.9534 8.30724L13.7642 6.31621C9.89536 6.68395 5.59013 6.99713 2.05938 8.66491L2.9136 10.4733ZM13.9365 8.3087C18.9019 7.92144 23.8936 7.7517 28.911 7.57522C33.9209 7.399 38.9554 7.21609 43.9686 6.80078L43.8035 4.80761C38.8447 5.21841 33.8562 5.40004 28.8407 5.57645C23.8329 5.7526 18.7969 5.92357 13.781 6.31475L13.9365 8.3087ZM44.056 6.78963C44.4134 6.72797 44.805 6.68825 45.2407 6.6476C45.6637 6.60813 46.133 6.56744 46.5893 6.503C47.4806 6.37714 48.5206 6.13917 49.3305 5.45888L48.0442 3.9274C47.6864 4.22791 47.1266 4.40728 46.3096 4.52265C45.9118 4.57883 45.4999 4.61473 45.0549 4.65625C44.6226 4.69657 44.1595 4.74223 43.716 4.81875L44.056 6.78963ZM49.6729 4.86265C49.84 3.89129 49.1036 3.3301 48.7699 3.11783C48.5683 2.98955 48.3569 2.88677 48.196 2.81093C48.0086 2.72258 47.9112 2.67966 47.8314 2.63583L46.8682 4.38857C47.0202 4.47213 47.2194 4.56164 47.3432 4.62C47.4936 4.69087 47.608 4.74907 47.6964 4.80529C47.7913 4.86567 47.7937 4.8854 47.7696 4.85084C47.7261 4.78857 47.6779 4.66282 47.7018 4.52363L49.6729 4.86265ZM47.6876 2.571C46.0547 1.98484 44.2732 1.6035 42.5893 1.31183L42.248 3.28249C43.8902 3.56694 45.5398 3.92497 47.0119 4.4534L47.6876 2.571ZM42.6223 1.31811C41.0513 0.991377 39.1314 0.822016 37.5076 0.601374L37.2383 2.58316C39.0128 2.82427 40.7315 2.96768 42.215 3.27621L42.6223 1.31811ZM37.4076 0.59287C37.211 0.586048 36.8794 0.548745 36.4391 0.507058C36.0473 0.469954 35.5625 0.429001 35.1904 0.444967L35.2762 2.44313C35.4883 2.43402 35.8369 2.45898 36.2506 2.49815C36.6159 2.53274 37.062 2.58208 37.3383 2.59167L37.4076 0.59287ZM35.389 0.456245C34.6503 0.339801 33.5397 0.31009 33.1748 0.301275L33.1265 2.30069C33.5215 2.31024 34.4939 2.33985 35.0776 2.43185L35.389 0.456245ZM33.2191 0.303328C31.8159 0.207085 30.159 0.168198 28.8085 0.160957L28.7978 2.16093C30.1271 2.16806 31.7377 2.20642 33.0822 2.29864L33.2191 0.303328ZM28.8691 0.163116C28.5895 0.144656 28.294 0.149183 28.0434 0.15276C27.7764 0.156571 27.5488 0.159637 27.3386 0.147958L27.2277 2.14488C27.5205 2.16115 27.8208 2.15614 28.0719 2.15256C28.3394 2.14874 28.5523 2.14655 28.7373 2.15877L28.8691 0.163116ZM27.1954 0.150276C26.9133 0.175125 26.4557 0.177141 25.8894 0.181223C25.3557 0.185069 24.7431 0.191112 24.2416 0.233998L24.4121 2.22672C24.8215 2.1917 25.3537 2.18514 25.9038 2.18117C26.4213 2.17744 26.9863 2.17644 27.3709 2.14256L27.1954 0.150276ZM24.3183 0.230398C23.3144 0.23899 21.9327 0.334147 21.2465 0.381599L21.3845 2.37683C22.0863 2.3283 23.4039 2.2383 24.3354 2.23032L24.3183 0.230398ZM21.251 0.381299C20.2319 0.447162 19.0899 0.531316 18.2508 0.645006L18.5194 2.6269C19.2796 2.52388 20.3558 2.44333 21.38 2.37713L21.251 0.381299ZM18.2981 0.639739C16.9059 0.761282 15.4576 0.92662 14.1471 1.12526L14.4468 3.10267C15.7079 2.91152 17.1134 2.75077 18.472 2.63216L18.2981 0.639739ZM14.0952 1.13453C13.8971 1.17533 13.6777 1.20086 13.4486 1.22865C13.3459 1.24111 13.2243 1.25607 13.12 1.27436C13.0678 1.2835 12.9977 1.2972 12.9245 1.31809C12.8782 1.33128 12.7135 1.37769 12.5505 1.49763L13.7357 3.10859C13.6542 3.16857 13.5829 3.20047 13.5503 3.21408C13.5132 3.22954 13.4851 3.23795 13.4731 3.24139C13.4504 3.24786 13.4436 3.24813 13.4653 3.24432C13.5086 3.23673 13.577 3.22773 13.6894 3.2141C13.8906 3.1897 14.2022 3.15448 14.4987 3.09341L14.0952 1.13453ZM13.0788 1.30518C12.8386 1.32065 12.5178 1.36661 12.2385 1.40853C11.9356 1.45399 11.6632 1.4976 11.4529 1.52436L11.7054 3.50836C11.9453 3.47783 12.2641 3.42708 12.5353 3.38638C12.8301 3.34214 13.0662 3.31013 13.2073 3.30104L13.0788 1.30518ZM11.3753 1.53736C11.0766 1.59956 10.6809 1.65648 10.2395 1.72162C9.8239 1.78295 9.3574 1.85296 8.99452 1.93892L9.45554 3.88506C9.71822 3.82284 10.0939 3.76477 10.5315 3.7002C10.9433 3.63943 11.4119 3.57263 11.783 3.49536L11.3753 1.53736ZM9.07298 1.92362C8.6346 1.99106 8.43002 2.03617 8.24527 2.07671C8.09177 2.1104 7.95674 2.14007 7.62071 2.18737L7.89947 4.16785C8.29758 4.11181 8.48401 4.07191 8.67394 4.03024C8.83262 3.99542 8.99344 3.95939 9.37708 3.90037L9.07298 1.92362ZM7.5508 2.19976C6.90408 2.33817 5.92128 2.48721 5.27386 2.68385L5.85508 4.59753C6.40924 4.42922 7.08694 4.34433 7.96938 4.15546L7.5508 2.19976ZM5.34062 2.66606C4.61439 2.83286 4.50519 2.82738 3.6842 2.99881L4.093 4.95659C4.72621 4.82437 5.0909 4.7755 5.78832 4.61531L5.34062 2.66606ZM3.67241 3.00135C3.43421 3.05409 3.106 3.15945 2.89438 3.25649C2.85045 3.27663 2.74061 3.32764 2.63355 3.40814C2.60624 3.42868 2.42491 3.55893 2.31185 3.8031C2.2433 3.95113 2.17377 4.20046 2.25386 4.49338C2.33433 4.78767 2.5227 4.9684 2.66114 5.06231C2.88774 5.21604 3.11514 5.23299 3.15029 5.23639C3.23004 5.24411 3.29948 5.24229 3.34341 5.24011C3.43478 5.23559 3.53151 5.22299 3.62197 5.20885L3.313 3.23286C3.24952 3.24278 3.23263 3.24315 3.24444 3.24256C3.24859 3.24236 3.28676 3.24025 3.34298 3.2457C3.35459 3.24682 3.56618 3.2595 3.78393 3.40722C3.91795 3.49813 4.10362 3.67542 4.18304 3.96588C4.26209 4.25495 4.19314 4.50005 4.12673 4.64348C4.01793 4.87843 3.84704 4.998 3.83555 5.00664C3.76012 5.06336 3.70346 5.08573 3.728 5.07448C3.79025 5.04593 3.98047 4.98158 4.10479 4.95405L3.67241 3.00135ZM3.72932 5.18597C3.65101 5.20721 3.65196 5.18952 3.76998 5.20403C3.86451 5.21564 3.95014 5.23782 3.9877 5.25118C4.01621 5.26132 3.97198 5.24975 3.90044 5.20164C3.87063 5.18159 3.76277 5.10768 3.66597 4.96576C3.55648 4.80524 3.40974 4.46428 3.56637 4.06503C3.69744 3.73094 3.95616 3.59275 4.02984 3.55663C4.12554 3.50971 4.1998 3.49522 4.21429 3.49238C4.24894 3.48561 4.23832 3.49151 4.14616 3.4921L4.15887 5.49206C4.29738 5.49118 4.45226 5.48373 4.59818 5.45519C4.66832 5.44148 4.78466 5.414 4.91025 5.35242C5.01383 5.30164 5.29025 5.14713 5.42821 4.79547C5.59174 4.37866 5.44107 4.01889 5.3182 3.83876C5.20803 3.67724 5.07734 3.58292 5.01663 3.54208C4.88329 3.4524 4.74493 3.39777 4.65795 3.36683C4.46453 3.29804 4.2337 3.24596 4.01391 3.21896C3.81762 3.19484 3.50639 3.17415 3.20566 3.25574L3.72932 5.18597ZM4.0142 3.50169C3.25593 3.60759 2.67691 3.63344 2.26219 3.61631C2.05507 3.60776 1.89892 3.58888 1.78793 3.56766C1.67102 3.54531 1.63154 3.52552 1.64126 3.53029C1.64766 3.53344 1.68323 3.55127 1.73099 3.59206C1.77824 3.6324 1.85641 3.71161 1.91761 3.83956C2.07655 4.17186 1.98215 4.5043 1.84514 4.6914C1.7453 4.82772 1.64952 4.86092 1.68797 4.84284C1.70888 4.83301 1.7728 4.80784 1.89385 4.78151L1.46874 2.82721C1.24718 2.87541 1.03115 2.94163 0.837015 3.0329C0.660403 3.11594 0.414459 3.25996 0.231554 3.50972C0.0114706 3.81025 -0.0989001 4.25873 0.113369 4.70253C0.281856 5.05479 0.579719 5.23716 0.759845 5.32559C1.14149 5.51296 1.64503 5.59254 2.17968 5.61461C2.74306 5.63787 3.44587 5.60047 4.29083 5.48246L4.0142 3.50169ZM1.89385 4.78151C5.19004 4.06449 11.9115 3.16879 16.7251 2.6498L16.5107 0.661327C11.6938 1.18067 4.87891 2.0854 1.46874 2.82721L1.89385 4.78151ZM16.7285 2.64943C25.179 1.70893 33.9094 1.73389 42.2221 3.09456L42.5452 1.12082C34.0221 -0.27428 25.1056 -0.295252 16.5073 0.661701L16.7285 2.64943ZM42.1675 3.08404C43.4044 3.35793 44.4877 3.52064 45.6175 3.81426C46.7045 4.09675 47.601 4.45138 48.2652 4.98454L49.5171 3.42485C48.5248 2.62834 47.3046 2.18626 46.1206 1.87855C44.9794 1.58198 43.6372 1.36102 42.5998 1.13134L42.1675 3.08404ZM48.0169 4.69014C48.031 4.71563 48.0002 4.67135 48 4.57258C47.9999 4.46352 48.0373 4.36809 48.0795 4.30607C48.1332 4.22722 48.142 4.27253 47.9132 4.36302C47.4728 4.53725 46.8695 4.62229 46.2852 4.73552L46.6658 6.69898C47.0768 6.61931 47.9807 6.48712 48.6489 6.22281C48.9744 6.09403 49.4379 5.86475 49.7329 5.43137C49.8958 5.19208 50.0005 4.8994 50 4.57003C49.9996 4.25094 49.9009 3.96328 49.7654 3.71924L48.0169 4.69014ZM46.3851 4.72134C44.8415 4.86142 43.7452 5.08159 42.4286 5.09009L42.4416 7.09005C43.8523 7.08094 45.2779 6.83004 46.5659 6.71316L46.3851 4.72134ZM42.3351 5.09508C38.2843 5.50225 34.3113 5.53245 30.1631 5.71901L30.253 7.71699C34.3035 7.53482 38.412 7.4995 42.5351 7.08505L42.3351 5.09508ZM30.2032 5.71801C29.2879 5.72242 28.3606 5.76093 27.4479 5.79946C26.529 5.83825 25.6246 5.87708 24.7255 5.88524L24.7436 7.88516C25.682 7.87664 26.6206 7.83617 27.5322 7.79768C28.4501 7.75894 29.3408 7.72219 30.2129 7.71799L30.2032 5.71801ZM24.6992 5.88582C24.1811 5.90417 23.6529 5.94236 23.1914 5.97007C22.7143 5.99872 22.3019 6.01669 21.9504 6.00474L21.8825 8.00358C22.3365 8.01903 22.8315 7.99528 23.3112 7.96648C23.8065 7.93674 24.2846 7.90176 24.7699 7.88457L24.6992 5.88582ZM21.842 6.00694C20.7161 6.091 19.6352 6.13805 18.5445 6.18551C17.4581 6.23278 16.3612 6.28049 15.2287 6.36624L15.3797 8.36053C16.4752 8.27759 17.5406 8.23109 18.6314 8.18362C19.718 8.13634 20.8292 8.08812 21.9909 8.00138L21.842 6.00694ZM15.1964 6.36922C14.8353 6.40838 14.3617 6.43468 13.8614 6.46931C13.4114 6.50046 12.8771 6.54135 12.5275 6.62367L12.9859 8.57043C13.1433 8.53336 13.496 8.49939 13.9995 8.46453C14.4528 8.43316 14.9994 8.40231 15.4121 8.35755L15.1964 6.36922ZM12.7498 6.59707C12.132 6.60135 11.3844 6.69349 10.7019 6.78648C9.98703 6.8839 9.34203 6.98228 8.82785 7.02701L9.0012 9.01948C9.57981 8.96914 10.3113 8.8582 10.972 8.76817C11.6651 8.67372 12.2922 8.60029 12.7637 8.59702L12.7498 6.59707ZM8.74208 7.03823C7.67793 7.22453 6.39891 7.41821 5.17502 7.77082L5.7287 9.69265C6.8207 9.37804 7.9564 9.20619 9.08697 9.00827L8.74208 7.03823ZM5.14608 7.77963C5.14724 7.77926 5.1365 7.78262 5.10633 7.79068C5.07856 7.7981 5.04398 7.80695 5.0014 7.81767C4.92105 7.83788 4.80949 7.86536 4.70256 7.8931C4.59459 7.92112 4.47293 7.95408 4.35948 7.98966C4.26288 8.01997 4.10799 8.07141 3.96831 8.14668L4.91708 9.90732C4.87694 9.92895 4.87522 9.92398 4.95807 9.89799C5.02408 9.87728 5.10815 9.85409 5.20485 9.829C5.30259 9.80364 5.39462 9.78106 5.48945 9.7572C5.56884 9.73723 5.67555 9.7102 5.75764 9.68384L5.14608 7.77963ZM4.16062 8.06761C3.3917 8.29369 2.7593 8.54375 2.06556 8.92727L3.0332 10.6776C3.57859 10.3761 4.07179 10.1784 4.72478 9.98639L4.16062 8.06761ZM2.00438 8.964C1.54514 9.26251 0.997739 9.69108 0.76848 10.3186L2.64705 11.0049C2.63625 11.0345 2.63646 11.0099 2.71289 10.9337C2.78868 10.858 2.90995 10.7608 3.09438 10.6409L2.00438 8.964ZM0.708157 10.6338C0.691208 11.2399 0.997314 11.691 1.36336 11.9719C1.69135 12.2236 2.08239 12.357 2.3981 12.4374C3.02105 12.5959 3.79432 12.6444 4.16205 12.6843L4.37803 10.696C3.85255 10.6389 3.33243 10.6114 2.89142 10.4992C2.79249 10.474 2.71584 10.4484 2.65907 10.4246C2.6009 10.4002 2.57978 10.3843 2.58099 10.3853C2.60847 10.4064 2.71207 10.5219 2.70738 10.6897L0.708157 10.6338ZM4.2422 12.6898C7.38148 12.7772 10.5204 12.6758 13.6267 12.5738C16.7431 12.4715 19.8264 12.3686 22.9042 12.4463L22.9547 10.4469C19.8087 10.3676 16.6665 10.4729 13.5611 10.5749C10.4457 10.6771 7.36678 10.776 4.29787 10.6905L4.2422 12.6898ZM22.9085 12.4464C29.0855 12.5755 35.2891 12.6967 41.0919 13.9898L41.5269 12.0376C35.4947 10.6935 29.0846 10.575 22.9503 10.4468L22.9085 12.4464ZM41.1724 14.0043C41.4411 14.0414 41.6124 14.0863 41.7116 14.1225C41.8224 14.163 41.7866 14.1718 41.714 14.0938C41.672 14.0488 41.6159 13.9722 41.5783 13.8613C41.5395 13.7471 41.531 13.6273 41.5485 13.5162C41.5652 13.41 41.6021 13.3325 41.63 13.2864C41.6574 13.241 41.6811 13.2174 41.6865 13.2122C41.6944 13.2046 41.6691 13.2297 41.5891 13.2689C41.5139 13.3058 41.4121 13.3444 41.2886 13.3761C41.0371 13.4408 40.7494 13.4636 40.4869 13.4258L40.2019 15.4054C40.7574 15.4853 41.3124 15.4351 41.7867 15.3131C42.2383 15.197 42.7264 14.9871 43.0731 14.6536C43.2474 14.4859 43.4638 14.2108 43.5242 13.8271C43.5926 13.392 43.4325 13.0043 43.1771 12.7303C42.9497 12.4862 42.659 12.3392 42.397 12.2436C42.1235 12.1438 41.8041 12.0726 41.4464 12.0231L41.1724 14.0043ZM40.2394 13.4211C37.2352 13.7385 34.2411 13.8927 31.1577 14.1538C28.1086 14.4119 25.043 14.7704 22.0664 15.4939L22.5387 17.4373C25.3654 16.7503 28.3106 16.4019 31.3264 16.1466C34.308 15.8942 37.4332 15.7287 40.4495 15.41L40.2394 13.4211ZM22.1589 15.476C21.5716 15.5612 20.7671 15.826 20.2301 16.2647C19.9763 16.4721 19.5644 16.8996 19.5824 17.539C19.6015 18.2146 20.0792 18.6429 20.4711 18.8809L21.5095 17.1716C21.3335 17.0647 21.572 17.1426 21.5816 17.4826C21.5902 17.7863 21.3985 17.8927 21.4955 17.8135C21.5601 17.7607 21.6956 17.6809 21.8952 17.6039C22.0875 17.5297 22.2873 17.4783 22.4462 17.4552L22.1589 15.476ZM20.5498 18.924C21.7068 19.4917 22.9984 19.7222 24.2131 19.8664C25.5004 20.0192 26.597 20.0705 27.7174 20.2595L28.0501 18.2874C26.8884 18.0914 25.538 18.0096 24.4489 17.8803C23.2872 17.7424 22.2731 17.5418 21.4308 17.1285L20.5498 18.924ZM27.7098 20.2582C28.2524 20.354 28.8186 20.4315 29.3611 20.5081C29.9119 20.5859 30.4447 20.6636 30.9584 20.7624C31.9993 20.9627 32.8601 21.233 33.5016 21.6731L34.633 20.0239C33.647 19.3475 32.4589 19.0144 31.3363 18.7984C30.7682 18.6891 30.1907 18.6054 29.6408 18.5277C29.0827 18.449 28.5579 18.377 28.0576 18.2887L27.7098 20.2582ZM33.1006 21.1043C33.086 21.0491 33.0798 20.9601 33.1099 20.8621C33.1378 20.7715 33.1813 20.7232 33.1902 20.714C33.1968 20.7073 33.1817 20.7242 33.1243 20.7575C33.0689 20.7896 32.9919 20.8267 32.89 20.8671C32.6823 20.9496 32.431 21.0231 32.1507 21.0981C31.8977 21.1658 31.5779 21.2452 31.3362 21.323L31.9487 23.2269C32.1272 23.1694 32.3502 23.1151 32.6677 23.0301C32.9579 22.9524 33.3048 22.8543 33.6279 22.726C33.9328 22.605 34.3234 22.4171 34.6232 22.1093C34.9725 21.7505 35.199 21.2162 35.034 20.5927L33.1006 21.1043ZM31.3688 21.3131C30.798 21.4755 30.1963 21.6166 29.566 21.7606C28.9436 21.9028 28.2889 22.0489 27.6494 22.2157C26.3783 22.5473 25.0577 22.9862 23.9508 23.7491L25.0858 25.3958C25.8975 24.8364 26.9415 24.4673 28.1541 24.151C28.7565 23.9939 29.3735 23.8562 30.0116 23.7103C30.6419 23.5663 31.2896 23.4151 31.9162 23.2367L31.3688 21.3131ZM23.705 23.9906C23.3403 24.5004 23.2262 25.1001 23.4456 25.6842C23.6334 26.1845 24.0182 26.5377 24.3339 26.7715C24.9633 27.2377 25.853 27.5995 26.3188 27.8092L27.1397 25.9855C26.5405 25.7157 25.9309 25.4655 25.5242 25.1643C25.3218 25.0144 25.3044 24.9451 25.3179 24.9812C25.363 25.1011 25.3026 25.1949 25.3316 25.1543L23.705 23.9906ZM26.3362 27.8168C27.1174 28.1508 27.8458 28.4563 28.3861 28.8331C28.9262 29.2098 29.0256 29.479 29.0152 29.6861L31.0127 29.7863C31.0749 28.5455 30.2777 27.7141 29.5302 27.1927C28.783 26.6715 27.8327 26.2815 27.1223 25.9778L26.3362 27.8168ZM29.0149 29.6933C28.9986 30.0724 28.9524 30.4631 28.8977 30.8913C28.8446 31.307 28.7819 31.7677 28.7472 32.2278C28.677 33.1579 28.7087 34.2029 29.1884 35.2538L31.0078 34.4232C30.7295 33.8138 30.6826 33.1587 30.7415 32.3783C30.7713 31.9831 30.8252 31.5859 30.8816 31.1448C30.9363 30.7162 30.9927 30.251 31.013 29.7792L29.0149 29.6933ZM29.1361 35.1116C29.7662 37.3315 30.2629 39.6581 30.1521 41.8719L32.1496 41.9719C32.2772 39.4228 31.7058 36.8403 31.0601 34.5654L29.1361 35.1116ZM30.1521 41.9732C30.2029 42.9625 30.3073 43.9314 30.411 44.8704C30.5157 45.8179 30.6192 46.7324 30.6771 47.6566L32.6732 47.5315C32.6117 46.5504 32.5021 45.585 32.399 44.6508C32.2949 43.7082 32.1968 42.7937 32.1495 41.8707L30.1521 41.9732ZM30.6796 47.6878C30.7092 48.0027 30.7755 48.4696 30.8115 48.7837C30.8558 49.1694 30.8668 49.4129 30.8532 49.5244L32.8386 49.7658C32.8848 49.3859 32.8399 48.9165 32.7985 48.5558C32.7489 48.1235 32.7 47.8106 32.6708 47.5003L30.6796 47.6878ZM30.8612 49.8193C30.931 50.2138 30.9382 50.4875 30.9838 50.918C31.0269 51.3257 31.1004 51.7786 31.3136 52.2985L33.164 51.5395C33.0509 51.2636 33.0056 51.0184 32.9727 50.7075C32.9422 50.4194 32.9161 49.954 32.8306 49.4708L30.8612 49.8193ZM31.3137 52.2986C31.3087 52.2864 31.2595 52.1722 31.2537 52.0079C31.2462 51.7952 31.3125 51.5643 31.4693 51.3744C31.5939 51.2236 31.7287 51.1578 31.7583 51.1435C31.7966 51.1249 31.8185 51.1188 31.7934 51.1273L32.4317 53.0227C32.4753 53.008 32.5518 52.9815 32.6321 52.9425C32.7036 52.9077 32.8679 52.8217 33.0112 52.6482C33.4195 52.154 33.1953 51.6157 33.164 51.5394L31.3137 52.2986ZM31.7935 51.1273C31.9039 51.0901 31.9861 51.0904 32.0158 51.0913C32.0521 51.0925 32.0869 51.0978 32.1252 51.1088L31.5728 53.031C31.7701 53.0877 32.0977 53.1352 32.4316 53.0227L31.7935 51.1273ZM32.5312 47.8617C32.4501 47.7747 32.2005 47.533 31.7912 47.5221C31.5651 47.5162 31.3141 47.5864 31.1055 47.7645C30.9035 47.937 30.7921 48.1677 30.7604 48.3936C30.6945 48.8619 30.9594 49.3008 31.3805 49.474C31.7628 49.6313 32.0939 49.5116 32.2339 49.4441L31.3652 47.6426C31.4692 47.5925 31.775 47.4737 32.1414 47.6244C32.5465 47.7911 32.805 48.216 32.7409 48.6721C32.71 48.892 32.6015 49.117 32.4043 49.2854C32.2004 49.4595 31.9561 49.5272 31.7383 49.5214C31.3458 49.5111 31.1197 49.2807 31.0679 49.225L32.5312 47.8617ZM5.51393 8.22091C5.37199 8.07143 5.03818 7.81982 4.56674 7.90681C4.12156 7.98896 3.83956 8.33009 3.75655 8.67421C3.7135 8.85269 3.7055 9.10628 3.8338 9.36487C3.9762 9.65189 4.23477 9.83702 4.51286 9.90164C4.75924 9.95889 4.96398 9.91138 5.07679 9.87351C5.19693 9.83318 5.28956 9.77826 5.35088 9.73658L4.2267 8.08243C4.26397 8.0571 4.33656 8.01232 4.4403 7.9775C4.53669 7.94514 4.72866 7.8985 4.96552 7.95354C5.23409 8.01594 5.4864 8.19578 5.62542 8.47599C5.75033 8.72776 5.74184 8.97301 5.70079 9.14319C5.62179 9.47069 5.35381 9.79534 4.92968 9.87361C4.47927 9.95672 4.17353 9.71382 4.06365 9.5981L5.51393 8.22091ZM20.1743 6.70921C20.1409 6.63544 20.0566 6.46864 19.8772 6.32515C19.7796 6.24708 19.6429 6.16753 19.4677 6.12794C19.2876 6.08724 19.1071 6.09811 18.9441 6.14904C18.6403 6.24397 18.4743 6.4486 18.4051 6.55127C18.3262 6.66827 18.2812 6.78676 18.2566 6.88949C18.2337 6.98558 18.2118 7.13824 18.2461 7.31971C18.278 7.48751 18.4073 7.8819 18.8529 8.06528C19.2707 8.23726 19.6186 8.07423 19.7274 8.01429C19.8601 7.94116 19.9479 7.85426 19.9887 7.81128L18.5388 6.43376C18.5642 6.40703 18.6395 6.33022 18.7622 6.26258C18.861 6.20813 19.2015 6.046 19.6141 6.21581C20.0544 6.39704 20.1806 6.7862 20.2112 6.94726C20.2443 7.122 20.2229 7.26641 20.2019 7.35427C20.1793 7.44878 20.1377 7.55907 20.0633 7.66944C19.9985 7.76547 19.8381 7.96504 19.5406 8.05802C19.3807 8.10797 19.2034 8.11866 19.0268 8.07873C18.855 8.03991 18.7218 7.9621 18.6279 7.88694C18.4558 7.74927 18.3791 7.59294 18.3532 7.53584L20.1743 6.70921ZM27.4181 6.41746C27.3846 6.34369 27.3003 6.17688 27.1209 6.0334C27.0233 5.95533 26.8866 5.87578 26.7114 5.83618C26.5314 5.79548 26.3508 5.80636 26.1878 5.85729C25.884 5.95222 25.718 6.15685 25.6488 6.25951C25.5699 6.37651 25.5249 6.495 25.5004 6.59774C25.4774 6.69382 25.4555 6.84648 25.4899 7.02796C25.5217 7.19576 25.651 7.59014 26.0966 7.77353C26.5144 7.94551 26.8623 7.78248 26.9711 7.72254C27.1038 7.64941 27.1917 7.5625 27.2325 7.51953L25.7825 6.14201C25.8079 6.11527 25.8832 6.03846 26.006 5.97083C26.1048 5.91638 26.4452 5.75425 26.8578 5.92406C27.2981 6.10528 27.4244 6.49445 27.4549 6.65551C27.488 6.83025 27.4666 6.97466 27.4456 7.06252C27.423 7.15702 27.3815 7.26732 27.307 7.37768C27.2423 7.47372 27.0819 7.67329 26.7843 7.76627C26.6244 7.81622 26.4472 7.8269 26.2705 7.78697C26.0988 7.74816 25.9656 7.67035 25.8716 7.59519C25.6995 7.45752 25.6228 7.30118 25.5969 7.24408L27.4181 6.41746ZM28.3736 5.83176C28.3316 5.81558 28.2687 5.79369 28.1925 5.77753C28.1428 5.767 27.9681 5.73076 27.753 5.77843C27.6368 5.80419 27.4359 5.8707 27.2558 6.0523C27.0538 6.25601 26.9625 6.51993 26.9648 6.76859C26.9669 6.98782 27.0394 7.15293 27.089 7.24325C27.1419 7.33976 27.2013 7.41076 27.2465 7.45796C27.4009 7.61914 27.6188 7.73992 27.8728 7.77009C28.0166 7.78718 28.211 7.77884 28.4148 7.68696C28.6288 7.59047 28.7874 7.4311 28.8865 7.25459L27.1425 6.27551C27.2358 6.10931 27.387 5.95648 27.5928 5.86369C27.7884 5.77551 27.9738 5.76803 28.1088 5.78406C28.3451 5.81214 28.5459 5.92318 28.6907 6.07443C28.7336 6.11915 28.7911 6.18765 28.8427 6.28178C28.8909 6.36971 28.9627 6.53253 28.9648 6.74969C28.9671 6.99629 28.8765 7.25837 28.6759 7.46057C28.4974 7.64067 28.2987 7.70601 28.1858 7.73105C27.9771 7.77729 27.8126 7.74144 27.7776 7.73403C27.7162 7.72099 27.6726 7.70498 27.6554 7.69834L28.3736 5.83176ZM5.10524 3.24309C5.06321 3.22683 5.00043 3.20485 4.92432 3.18856C4.87453 3.17791 4.70045 3.14153 4.4859 3.18841C4.37011 3.21372 4.16979 3.27927 3.98946 3.45923C3.78707 3.66123 3.69378 3.92426 3.69478 4.17378C3.69567 4.39375 3.76777 4.55977 3.8172 4.6507C3.86998 4.74779 3.92943 4.81923 3.97465 4.86668C4.12923 5.02888 4.34722 5.14984 4.60073 5.18047C4.74429 5.19782 4.93798 5.18988 5.14126 5.09915C5.35467 5.0039 5.51363 4.84601 5.6136 4.67034L3.87536 3.68115C3.96948 3.51575 4.12096 3.36437 4.32614 3.27279C4.52119 3.18574 4.70591 3.17864 4.84063 3.19491C5.07647 3.22341 5.27735 3.33462 5.42246 3.48688C5.46532 3.53186 5.52288 3.6008 5.57436 3.69551C5.6225 3.78405 5.69389 3.94778 5.69477 4.1657C5.69577 4.41315 5.60317 4.67435 5.40227 4.87485C5.22345 5.05331 5.02544 5.1177 4.91289 5.1423C4.70482 5.18777 4.54089 5.15179 4.50583 5.14429C4.44446 5.13116 4.40098 5.11508 4.38372 5.1084L5.10524 3.24309ZM16.0461 1.2715C16.0064 1.22995 15.9443 1.17051 15.86 1.11367C15.791 1.06715 15.6208 0.962578 15.3762 0.940546C15.2428 0.928534 15.069 0.939994 14.8862 1.01875C14.6975 1.10008 14.5464 1.23332 14.4429 1.39095C14.2513 1.68301 14.268 1.97493 14.292 2.11611C14.3416 2.40738 14.5242 2.69636 14.8337 2.85578C15.2266 3.05814 15.6315 2.96442 15.8914 2.78479L14.7543 1.13951C14.9887 0.977468 15.3723 0.883472 15.7496 1.07781C16.0435 1.22919 16.2163 1.50238 16.2636 1.78021C16.2865 1.91465 16.3039 2.20043 16.1151 2.48818C16.0131 2.64367 15.8639 2.77521 15.6777 2.85547C15.4974 2.93316 15.3266 2.94417 15.1968 2.93248C14.9594 2.9111 14.7988 2.81029 14.7418 2.77189C14.6696 2.72317 14.622 2.67623 14.5997 2.6528L16.0461 1.2715ZM36.057 0.507943C36.015 0.491679 35.9522 0.46969 35.876 0.453397C35.8262 0.442738 35.6521 0.406329 35.4375 0.453248C35.3216 0.478572 35.1213 0.544171 34.941 0.724212C34.7386 0.92627 34.6454 1.18931 34.6464 1.43871C34.6474 1.65861 34.7194 1.82457 34.7688 1.91548C34.8216 2.01255 34.881 2.08397 34.9262 2.13143C35.0808 2.29362 35.2988 2.41464 35.5524 2.44529C35.696 2.46265 35.8897 2.4547 36.093 2.36392C36.3065 2.26861 36.4655 2.11064 36.5654 1.93496L34.8269 0.946173C34.921 0.780772 35.0724 0.629312 35.2777 0.537676C35.4728 0.450564 35.6576 0.443454 35.7923 0.459742C36.0282 0.488254 36.2291 0.599526 36.3742 0.751781C36.417 0.796756 36.4746 0.865688 36.526 0.960372C36.5742 1.04889 36.6455 1.21257 36.6464 1.43041C36.6475 1.67775 36.555 1.93895 36.3541 2.13951C36.1753 2.31805 35.9772 2.38249 35.8646 2.4071C35.6565 2.45261 35.4925 2.4166 35.4574 2.4091C35.396 2.39596 35.3525 2.37987 35.3353 2.37319L36.057 0.507943ZM26.1483 0.234369C26.1063 0.218115 26.0435 0.196144 25.9674 0.179864C25.9176 0.169213 25.7436 0.132838 25.5291 0.179705C25.4133 0.204995 25.213 0.270526 25.0326 0.450494C24.8302 0.652512 24.7369 0.915607 24.7379 1.16518C24.7388 1.3852 24.811 1.55122 24.8604 1.64214C24.9132 1.73922 24.9726 1.81064 25.0179 1.85809C25.1724 2.02024 25.3904 2.14115 25.6439 2.17177C25.7874 2.18911 25.981 2.18119 26.1843 2.09048C26.3977 1.99525 26.5567 1.83737 26.6567 1.66166L24.9185 0.672439C25.0126 0.507003 25.1641 0.355622 25.3693 0.264064C25.5644 0.177033 25.7491 0.169942 25.8838 0.186213C26.1195 0.2147 26.3204 0.325861 26.4655 0.478085C26.5083 0.523048 26.5659 0.591977 26.6174 0.686676C26.6656 0.775205 26.737 0.938948 26.7379 1.15691C26.7389 1.40442 26.6463 1.66568 26.4454 1.86619C26.2665 2.04466 26.0685 2.10903 25.956 2.13362C25.7479 2.17907 25.584 2.1431 25.549 2.1356C25.4876 2.12247 25.4442 2.1064 25.4269 2.09973L26.1483 0.234369ZM32.1496 42.4529C32.1442 42.4769 32.1339 42.5174 32.1155 42.5669C32.099 42.6114 32.0632 42.6979 31.9942 42.7937C31.9292 42.884 31.7822 43.0552 31.5227 43.1476C31.3879 43.1956 31.2412 43.215 31.0928 43.2006C30.9473 43.1865 30.8241 43.1423 30.7279 43.092C30.5473 42.9975 30.442 42.8718 30.3946 42.8084C30.3413 42.737 30.3084 42.6727 30.2897 42.6318C30.2524 42.5502 30.2335 42.4782 30.2231 42.4255C30.2134 42.3757 30.2011 42.292 30.2078 42.1864C30.2111 42.135 30.2211 42.0393 30.2609 41.9257C30.2967 41.8233 30.3941 41.5998 30.6406 41.4325C30.7706 41.3442 30.9223 41.2864 31.0839 41.2674C31.241 41.249 31.3783 41.2706 31.4841 41.3022C31.6797 41.3606 31.8054 41.464 31.856 41.509C31.9612 41.6024 32.0162 41.6938 32.0237 41.7058L30.3244 42.7605C30.3466 42.7964 30.4134 42.9027 30.5279 43.0043C30.5831 43.0534 30.7128 43.1592 30.9118 43.2186C31.0192 43.2507 31.1581 43.2724 31.3166 43.2539C31.4796 43.2348 31.6325 43.1764 31.7636 43.0874C32.0124 42.9186 32.1115 42.6924 32.1485 42.5866C32.1895 42.4695 32.2002 42.3695 32.2038 42.3131C32.2111 42.1978 32.1978 42.1021 32.1857 42.0403C32.173 41.9756 32.1504 41.8916 32.1087 41.8003C32.0878 41.7545 32.0525 41.6859 31.9966 41.6111C31.9466 41.5441 31.8386 41.4159 31.6552 41.3199C31.5575 41.2688 31.4329 41.2242 31.2859 41.21C31.1361 41.1954 30.9879 41.215 30.8516 41.2635C30.5892 41.357 30.4392 41.5306 30.3711 41.6251C30.2991 41.7251 30.2604 41.8174 30.241 41.8697C30.2196 41.9271 30.2066 41.9774 30.1985 42.0133L32.1496 42.4529ZM26.8971 7.80934C26.8886 7.81136 26.8576 7.81861 26.8124 7.82384C26.7988 7.82542 26.6518 7.84609 26.4695 7.80028C26.3871 7.77956 26.1325 7.70627 25.9315 7.45188C25.8201 7.31076 25.7435 7.13505 25.7225 6.94066C25.7023 6.7542 25.7378 6.59619 25.7801 6.48338C25.8571 6.27772 25.9812 6.15375 26.0297 6.1082C26.0914 6.05025 26.1485 6.01161 26.1858 5.98863C26.3096 5.91231 26.4631 5.85653 26.6408 5.8486C26.7347 5.84441 26.9142 5.85013 27.1129 5.94744C27.3443 6.06077 27.5375 6.26948 27.6215 6.54329L25.7094 7.12981C25.7961 7.41235 25.9947 7.62679 26.2331 7.74356C26.4389 7.84432 26.627 7.85121 26.73 7.84661C26.9258 7.83787 27.0993 7.77501 27.2354 7.69105C27.2758 7.66616 27.3355 7.62559 27.3992 7.56575C27.4497 7.51831 27.5752 7.3925 27.6529 7.18516C27.6955 7.0715 27.7311 6.91268 27.7109 6.72547C27.6898 6.53031 27.6129 6.3539 27.5009 6.21212C27.2989 5.95642 27.0424 5.88206 26.957 5.86058C26.7687 5.81327 26.6115 5.83373 26.5824 5.83711C26.5217 5.84414 26.4697 5.8552 26.4337 5.86376L26.8971 7.80934ZM38.3293 7.11863C38.2195 7.23415 37.9139 7.47678 37.4637 7.39372C37.0395 7.31546 36.7714 6.99071 36.6924 6.66278C36.6514 6.49241 36.6432 6.24711 36.7682 5.99545C36.9074 5.71547 37.1596 5.53591 37.428 5.4736C37.6647 5.41864 37.8566 5.46521 37.953 5.49758C38.0567 5.53241 38.1294 5.5772 38.1667 5.60255L37.0424 7.25667C37.1038 7.29837 37.1964 7.3533 37.3166 7.39363C37.4294 7.4315 37.6341 7.47895 37.8803 7.42177C38.1582 7.35726 38.4167 7.17241 38.5592 6.88561C38.6877 6.62713 38.6799 6.3735 38.6369 6.19483C38.554 5.85029 38.2718 5.50906 37.8266 5.42692C37.3554 5.33998 37.0217 5.59132 36.8798 5.74059L38.3293 7.11863ZM43.1085 6.82679C43.0831 6.85353 43.0078 6.9303 42.885 6.9979C42.7862 7.05233 42.4459 7.21428 42.0335 7.04463C41.5933 6.86352 41.4669 6.47449 41.4363 6.31324C41.4031 6.13842 41.4246 5.99394 41.4456 5.90603C41.4682 5.81148 41.5098 5.70115 41.5843 5.59077C41.6491 5.49468 41.8095 5.29522 42.107 5.20231C42.2668 5.15241 42.444 5.14174 42.6206 5.18163C42.7922 5.22041 42.9254 5.29815 43.0194 5.37329C43.1915 5.5109 43.2682 5.66721 43.2942 5.72435L41.4732 6.55137C41.5067 6.62517 41.591 6.79195 41.7704 6.93538C41.868 7.01342 42.0047 7.09291 42.1798 7.13246C42.3598 7.17313 42.5403 7.16227 42.7032 7.11138C43.007 7.01653 43.1729 6.812 43.2422 6.70929C43.3212 6.59227 43.3662 6.47375 43.3908 6.37097C43.4137 6.27484 43.4357 6.1221 43.4013 5.94054C43.3694 5.77256 43.2399 5.3783 42.7944 5.19503C42.3768 5.02321 42.0291 5.18606 41.9202 5.24599C41.7875 5.31908 41.6997 5.40595 41.6588 5.44893L43.1085 6.82679ZM48.8191 4.20007C48.7833 4.28302 48.6937 4.45726 48.4958 4.59905C48.2637 4.76528 47.9695 4.82267 47.6909 4.75509C47.4513 4.69697 47.2954 4.56561 47.214 4.48011C47.1273 4.38903 47.0649 4.28798 47.0229 4.18687C46.9863 4.09904 46.9304 3.9278 46.9544 3.70694C46.9673 3.58877 47.0074 3.424 47.1192 3.259C47.2384 3.08315 47.4101 2.95133 47.6077 2.88097C47.9594 2.75571 48.2457 2.86953 48.3165 2.89941C48.4202 2.94312 48.4883 2.99395 48.5126 3.01275L47.2892 4.59493C47.336 4.63108 47.4219 4.69268 47.5394 4.74224C47.6241 4.77796 47.9203 4.89268 48.2786 4.76506C48.4795 4.69352 48.6537 4.5597 48.7747 4.38125C48.8883 4.21363 48.9294 4.04565 48.9427 3.92384C48.9675 3.69573 48.9098 3.51562 48.8696 3.41896C48.8239 3.30902 48.7559 3.19918 48.6625 3.10099C48.5743 3.00839 48.4104 2.87163 48.1623 2.81145C47.8753 2.74182 47.5722 2.80051 47.3312 2.97304C47.1245 3.12113 47.0263 3.30668 46.9828 3.40761L48.8191 4.20007ZM9.6291 3.75616C9.60477 3.77498 9.53666 3.82581 9.43298 3.86952C9.36203 3.89943 9.0759 4.0131 8.72437 3.88798C8.52694 3.81771 8.35531 3.68605 8.23605 3.51035C8.12413 3.34545 8.084 3.18072 8.07104 3.0625C8.04681 2.84155 8.10276 2.67019 8.13929 2.58227C8.18135 2.48107 8.24373 2.37994 8.3305 2.2888C8.41198 2.20322 8.5679 2.07187 8.80753 2.01377C9.08608 1.94623 9.38002 2.00362 9.61198 2.16961C9.8099 2.31125 9.89949 2.48532 9.93535 2.56828L8.09951 3.36182C8.14314 3.46275 8.24136 3.64813 8.44809 3.79606C8.68886 3.96836 8.99178 4.02704 9.2788 3.95745C9.5269 3.8973 9.69078 3.76055 9.77901 3.66787C9.87255 3.56962 9.94049 3.45971 9.98621 3.34967C10.0264 3.25292 10.0841 3.0727 10.0591 2.8445C10.0458 2.72264 10.0046 2.5547 9.8909 2.38719C9.76987 2.20887 9.59574 2.07521 9.39499 2.00376C9.03682 1.87628 8.74079 1.99086 8.65599 2.02661C8.53846 2.07617 8.45254 2.13777 8.40576 2.17394L9.6291 3.75616ZM14.9118 3.0319C14.9031 3.03396 14.8718 3.04126 14.8263 3.04649C14.8123 3.0481 14.665 3.06868 14.4822 3.02237C14.399 3.00127 14.146 2.92749 13.9461 2.67428C13.8354 2.53409 13.7591 2.35969 13.7375 2.16657C13.7168 1.98112 13.7513 1.8235 13.7931 1.71035C13.8694 1.504 13.9932 1.37926 14.042 1.33308C14.1039 1.27458 14.1612 1.23557 14.1987 1.21234C14.3233 1.13517 14.4779 1.07896 14.6566 1.07118C14.7514 1.06706 14.931 1.07323 15.1294 1.17095C15.3601 1.28449 15.5516 1.49239 15.6355 1.76375L13.7247 2.35445C13.8113 2.63458 14.0083 2.84825 14.246 2.96527C14.4515 3.06645 14.6398 3.07381 14.7436 3.06929C14.9405 3.06072 15.115 2.99742 15.2519 2.91259C15.2925 2.88745 15.3525 2.84649 15.4163 2.78611C15.4671 2.73803 15.5924 2.61145 15.6692 2.4034C15.7113 2.28941 15.746 2.13097 15.7252 1.94476C15.7035 1.75088 15.627 1.57576 15.5158 1.43491C15.3148 1.18039 15.0598 1.10553 14.9736 1.08367C14.7849 1.03583 14.6273 1.05619 14.5978 1.05959C14.5368 1.06661 14.4845 1.07771 14.4485 1.0863L14.9118 3.0319ZM37.0157 2.36981C36.9784 2.39514 36.9058 2.43992 36.8021 2.47475C36.7057 2.50712 36.5137 2.55378 36.2767 2.49871C36.0081 2.43626 35.7558 2.25631 35.6168 1.97606C35.492 1.72427 35.5005 1.47906 35.5416 1.30896C35.6206 0.981624 35.8885 0.656944 36.3126 0.57866C36.7632 0.495513 37.069 0.738554 37.1789 0.854318L35.7283 2.23119C35.8702 2.38072 36.204 2.63248 36.6756 2.54545C37.1208 2.46328 37.4027 2.12212 37.4857 1.77818C37.5288 1.59977 37.5369 1.34622 37.4086 1.08761C37.2663 0.800545 37.0077 0.615303 36.7295 0.550642C36.4831 0.493359 36.2783 0.540889 36.1655 0.578761C36.0454 0.619098 35.9527 0.674029 35.8914 0.7157L37.0157 2.36981ZM27.7704 1.86682C27.745 1.89356 27.6697 1.97037 27.547 2.038C27.4482 2.09245 27.1077 2.25459 26.6951 2.08477C26.2548 1.90355 26.1286 1.51439 26.098 1.35332C26.0649 1.17858 26.0863 1.03418 26.1073 0.946315C26.1299 0.851808 26.1715 0.741516 26.2459 0.631148C26.3107 0.535112 26.4711 0.335542 26.7687 0.242565C26.9285 0.192612 27.1058 0.18193 27.2824 0.221858C27.4542 0.260675 27.5874 0.33848 27.6813 0.413645C27.8534 0.551313 27.9301 0.707648 27.956 0.764749L26.1349 1.59138C26.1684 1.66515 26.2526 1.83195 26.432 1.97544C26.5296 2.05351 26.6664 2.13306 26.8415 2.17265C27.0216 2.21335 27.2022 2.20247 27.3651 2.15154C27.6689 2.05662 27.8349 1.85199 27.9041 1.74932C27.983 1.63232 28.028 1.51383 28.0526 1.4111C28.0755 1.31501 28.0975 1.16235 28.0631 0.980873C28.0313 0.813073 27.9019 0.418685 27.4564 0.235302C27.0385 0.063327 26.6906 0.226354 26.5818 0.286298C26.4491 0.359425 26.3613 0.44633 26.3205 0.489306L27.7704 1.86682ZM31.4111 51.4957C31.2843 51.6345 31.17 51.7717 31.0838 51.903C31.0423 51.9663 30.9842 52.0629 30.9397 52.182C30.9169 52.243 30.8888 52.3335 30.876 52.4448C30.8634 52.5545 30.8613 52.7233 30.9286 52.9128C31.0017 53.1185 31.1401 53.2999 31.3298 53.4249C31.5056 53.5408 31.6791 53.5783 31.7964 53.59C31.9142 53.6018 32.0128 53.5916 32.0785 53.581C32.1469 53.5698 32.2052 53.5539 32.2497 53.5396C32.4085 53.4888 32.5427 53.4104 32.6274 53.3557C32.7231 53.2938 32.8229 53.2179 32.9142 53.1326C32.9604 53.0895 33.0119 53.037 33.0622 52.9761C33.1097 52.9184 33.1735 52.8324 33.2279 52.7215C33.2776 52.6204 33.3575 52.422 33.3409 52.1655C33.332 52.029 33.2958 51.8809 33.2187 51.7369C33.1416 51.593 33.0383 51.4803 32.929 51.3968C32.7237 51.2399 32.5114 51.1948 32.3938 51.1789C32.2656 51.1616 32.1485 51.1659 32.0585 51.1742L32.2406 53.1658C32.2385 53.166 32.2279 53.167 32.2105 53.1669C32.1936 53.1669 32.1642 53.1661 32.1258 53.1609C32.0648 53.1526 31.8932 53.1224 31.7147 52.986C31.6189 52.9128 31.5256 52.8119 31.4555 52.6809C31.3853 52.5498 31.3529 52.4158 31.345 52.2946C31.3304 52.0684 31.401 51.9046 31.4324 51.8405C31.4686 51.7667 31.5053 51.7204 31.5193 51.7034C31.536 51.6832 31.5474 51.6725 31.5495 51.6706C31.5524 51.6678 31.5475 51.6723 31.5411 51.6764C31.5237 51.6877 31.5586 51.6609 31.64 51.6349C31.665 51.6268 31.7053 51.6154 31.7575 51.6069C31.8068 51.5989 31.8907 51.5895 31.9958 51.6C32.1004 51.6105 32.2631 51.6447 32.4304 51.755C32.6117 51.8744 32.7439 52.0479 32.8133 52.2433C32.8769 52.4225 32.8738 52.5786 32.8629 52.6729C32.8519 52.7689 32.8284 52.8413 32.8134 52.8815C32.7975 52.9241 32.782 52.9547 32.7734 52.9706C32.7643 52.9874 32.7578 52.9975 32.7563 52.9997C32.754 53.0032 32.7613 52.9919 32.7851 52.9625C32.8081 52.9343 32.8414 52.8954 32.888 52.8443L31.4111 51.4957Z" fill="#E24A08" mask="url(#path-1-outside-1_23_6284)"/>
</svg>
