<svg width="82" height="89" viewBox="0 0 82 89" fill="none" xmlns="http://www.w3.org/2000/svg">
<mask id="path-1-outside-1_23_6642" maskUnits="userSpaceOnUse" x="0" y="0" width="82" height="89" fill="black">
<rect fill="white" width="82" height="89"/>
<path d="M52.3621 86.0986C53.9881 86.1552 52.3297 86.9728 52.3621 86.0986ZM52.1296 84.9885C51.5775 83.7941 51.6187 82.4158 51.4011 81.0637C51.2283 78.3492 50.8935 75.6679 50.6951 73.0779C49.9223 68.1841 50.687 63.0937 48.9175 58.2625C47.8117 55.4217 47.8749 52.4654 48.4516 49.5658C49.3291 47.1289 46.2723 45.5578 43.7626 44.5851C41.7108 43.6515 38.2624 42.3042 39.6088 40.1876C42.2104 37.9382 46.6475 37.5776 50.2119 36.4996C51.8796 35.9807 54.3804 35.7675 55.2547 34.5188C53.06 33.0282 49.7227 32.736 46.8747 32.2469C42.7214 31.5463 38.169 31.6765 34.3614 30.1426C31.3698 28.4712 35.1952 26.7801 37.4518 26.482C47.4398 24.2863 58.0416 24.4998 68.2314 23.0766C70.5912 22.5423 67.3538 21.8652 66.483 21.6088C57.0871 19.7005 47.1542 19.4303 37.479 19.292C28.2294 19.1637 18.9514 19.7122 9.90464 19.8189C7.53655 19.7216 4.51731 20.0026 2.85586 18.4763C2.30368 17.2727 3.53302 16.5228 4.41555 15.9248C9.83798 13.3635 16.5019 12.8643 22.8955 12.2566C39.1151 10.9916 55.4854 11.1492 71.6898 9.80681C74.2927 9.35771 77.5944 9.59515 79.492 8.00135C79.6684 6.97585 78.0718 6.49636 77.3184 6.08232C74.7955 5.17673 72.0077 4.57599 69.3053 4.10788C66.8235 3.59173 63.8672 3.33761 61.106 2.96244C60.3376 2.93578 58.5785 2.68084 57.6291 2.72158C56.5547 2.55222 54.8622 2.50401 54.2448 2.4891C52.0124 2.33597 49.3574 2.27321 47.1802 2.26153C46.4253 2.21168 45.5277 2.28335 44.7101 2.23793C43.6268 2.33336 41.3864 2.24773 39.9061 2.37434C38.3336 2.3878 36.1405 2.53824 35.0127 2.61623C33.3525 2.72352 31.5502 2.85735 30.2508 3.03342C28.0157 3.22854 25.697 3.49349 23.6076 3.8102C22.8038 3.97575 21.8819 4.00762 21.7325 4.11755C21.1128 4.15746 19.9226 4.37098 19.1911 4.46408C18.1026 4.69073 16.3822 4.86619 15.3657 5.10699C14.0299 5.31249 14.1781 5.3707 12.9851 5.53861C11.7427 5.80453 10.3935 5.9946 9.41726 6.29112C8.26055 6.55679 7.87551 6.59205 6.69398 6.83876C6.10489 6.9692 5.00906 7.39034 6.00967 7.23388C6.73255 7.03777 8.62218 7.66509 7.12284 7.67462C1.91231 8.40231 0.88009 7.04153 3.10711 6.55709C8.55602 5.37179 19.5543 3.90894 27.379 3.06529C41.2312 1.52361 55.5693 1.56093 69.2484 3.79999C72.9441 4.6183 77.1313 5.04692 79.8231 7.20763C80.7959 8.95951 77.5151 9.35207 75.8977 9.66553C73.597 9.87432 71.5479 10.2571 69.332 10.2714C62.6907 10.9389 56.1246 10.9922 49.4631 11.2917C46.5584 11.3057 43.5546 11.5363 40.5686 11.5634C38.9382 11.6212 37.2982 11.8013 35.9892 11.7568C32.2719 12.0343 28.8648 12.0664 25.2444 12.3405C23.9871 12.4769 21.9285 12.5262 21.1047 12.7202C19.3347 12.7325 16.6369 13.2583 14.8611 13.4128C13.0779 13.725 11.1159 14.022 9.23427 14.5641C8.93865 14.659 7.91786 14.8696 7.59438 15.0439C6.43909 15.3836 5.52453 15.7474 4.51774 16.304C3.81113 16.7633 3.32791 17.2137 3.15012 17.7004C3.11029 19.1247 5.86236 19.2138 7.31381 19.3715C17.4021 19.6524 27.5218 18.7206 37.6353 18.9757C47.6382 19.1848 57.8868 19.3795 67.5028 21.5223C71.5737 22.0853 68.5929 24.183 65.9347 23.8003C56.1515 24.8339 46.0471 24.8396 36.6167 27.1316C35.0668 27.3566 32.6385 28.5465 34.4842 29.6677C37.7331 31.2618 41.9777 31.0688 45.686 31.6943C49.0754 32.2929 53.0896 32.4395 55.7344 34.2538C56.12 35.7109 53.1594 36.1325 51.794 36.5717C47.9025 37.6792 43.3348 38.1564 40.2173 40.3052C38.9375 42.094 42.0794 43.3041 43.81 44.0832C46.2338 45.1194 49.2656 46.3435 49.1477 48.6963C49.0287 51.4622 48.0527 54.2896 49.2844 56.9875C50.321 60.6395 51.1889 64.6283 50.9951 68.4981C51.1545 71.6057 51.6531 74.6192 51.8472 77.7154C51.9428 78.7313 52.2217 80.2498 52.1246 81.0482C52.377 82.4745 52.2327 83.4503 52.7631 84.7434C52.8194 84.8806 52.7814 84.9216 52.5579 84.9969C52.4355 85.0381 52.2632 85.027 52.1296 84.9885ZM52.0492 79.2579C51.9321 79.3144 51.9544 79.1561 52.0492 79.2579ZM8.15678 14.8529C8.00047 14.9592 8.05257 14.7432 8.15678 14.8529ZM31.6786 11.9491C31.5783 12.0546 31.6294 11.8408 31.6786 11.9491ZM43.4497 11.475C43.3494 11.5805 43.4005 11.3667 43.4497 11.475ZM45.8986 11.3682C45.861 11.4352 45.7373 11.3062 45.8986 11.3682ZM8.08478 7.16059C8.04678 7.22737 7.92378 7.09831 8.08478 7.16059ZM25.2746 3.56349C25.192 3.62064 25.1622 3.4457 25.2746 3.56349ZM58.3812 2.71592C58.3432 2.78272 58.2202 2.65363 58.3812 2.71592ZM42.2799 2.27145C42.2419 2.33822 42.1188 2.20918 42.2799 2.27145ZM51.0328 69.0038C51.1293 69.1593 51.068 68.8473 51.0328 69.0038ZM43.7063 11.4844C43.7237 11.5411 43.8847 11.4419 43.7063 11.4844ZM61.4824 10.8231C61.6386 10.9293 61.5867 10.7134 61.4824 10.8231ZM69.2484 10.349C69.2976 10.4574 69.3488 10.2435 69.2484 10.349ZM78.214 6.55624C78.3599 6.66905 78.2644 6.43942 78.214 6.55624ZM15.0283 5.1932C15.0788 5.31001 15.1742 5.0804 15.0283 5.1932ZM24.2302 3.72104C24.2478 3.77807 24.4084 3.6786 24.2302 3.72104ZM59.612 2.88198C59.7162 2.99172 59.7683 2.77575 59.612 2.88198ZM44.3239 2.28936C44.373 2.39769 44.4241 2.18381 44.3239 2.28936ZM52.618 85.1513C53.8031 85.0429 51.1499 86.7592 52.618 85.1513Z"/>
</mask>
<path d="M52.3621 86.0986C53.9881 86.1552 52.3297 86.9728 52.3621 86.0986ZM52.1296 84.9885C51.5775 83.7941 51.6187 82.4158 51.4011 81.0637C51.2283 78.3492 50.8935 75.6679 50.6951 73.0779C49.9223 68.1841 50.687 63.0937 48.9175 58.2625C47.8117 55.4217 47.8749 52.4654 48.4516 49.5658C49.3291 47.1289 46.2723 45.5578 43.7626 44.5851C41.7108 43.6515 38.2624 42.3042 39.6088 40.1876C42.2104 37.9382 46.6475 37.5776 50.2119 36.4996C51.8796 35.9807 54.3804 35.7675 55.2547 34.5188C53.06 33.0282 49.7227 32.736 46.8747 32.2469C42.7214 31.5463 38.169 31.6765 34.3614 30.1426C31.3698 28.4712 35.1952 26.7801 37.4518 26.482C47.4398 24.2863 58.0416 24.4998 68.2314 23.0766C70.5912 22.5423 67.3538 21.8652 66.483 21.6088C57.0871 19.7005 47.1542 19.4303 37.479 19.292C28.2294 19.1637 18.9514 19.7122 9.90464 19.8189C7.53655 19.7216 4.51731 20.0026 2.85586 18.4763C2.30368 17.2727 3.53302 16.5228 4.41555 15.9248C9.83798 13.3635 16.5019 12.8643 22.8955 12.2566C39.1151 10.9916 55.4854 11.1492 71.6898 9.80681C74.2927 9.35771 77.5944 9.59515 79.492 8.00135C79.6684 6.97585 78.0718 6.49636 77.3184 6.08232C74.7955 5.17673 72.0077 4.57599 69.3053 4.10788C66.8235 3.59173 63.8672 3.33761 61.106 2.96244C60.3376 2.93578 58.5785 2.68084 57.6291 2.72158C56.5547 2.55222 54.8622 2.50401 54.2448 2.4891C52.0124 2.33597 49.3574 2.27321 47.1802 2.26153C46.4253 2.21168 45.5277 2.28335 44.7101 2.23793C43.6268 2.33336 41.3864 2.24773 39.9061 2.37434C38.3336 2.3878 36.1405 2.53824 35.0127 2.61623C33.3525 2.72352 31.5502 2.85735 30.2508 3.03342C28.0157 3.22854 25.697 3.49349 23.6076 3.8102C22.8038 3.97575 21.8819 4.00762 21.7325 4.11755C21.1128 4.15746 19.9226 4.37098 19.1911 4.46408C18.1026 4.69073 16.3822 4.86619 15.3657 5.10699C14.0299 5.31249 14.1781 5.3707 12.9851 5.53861C11.7427 5.80453 10.3935 5.9946 9.41726 6.29112C8.26055 6.55679 7.87551 6.59205 6.69398 6.83876C6.10489 6.9692 5.00906 7.39034 6.00967 7.23388C6.73255 7.03777 8.62218 7.66509 7.12284 7.67462C1.91231 8.40231 0.88009 7.04153 3.10711 6.55709C8.55602 5.37179 19.5543 3.90894 27.379 3.06529C41.2312 1.52361 55.5693 1.56093 69.2484 3.79999C72.9441 4.6183 77.1313 5.04692 79.8231 7.20763C80.7959 8.95951 77.5151 9.35207 75.8977 9.66553C73.597 9.87432 71.5479 10.2571 69.332 10.2714C62.6907 10.9389 56.1246 10.9922 49.4631 11.2917C46.5584 11.3057 43.5546 11.5363 40.5686 11.5634C38.9382 11.6212 37.2982 11.8013 35.9892 11.7568C32.2719 12.0343 28.8648 12.0664 25.2444 12.3405C23.9871 12.4769 21.9285 12.5262 21.1047 12.7202C19.3347 12.7325 16.6369 13.2583 14.8611 13.4128C13.0779 13.725 11.1159 14.022 9.23427 14.5641C8.93865 14.659 7.91786 14.8696 7.59438 15.0439C6.43909 15.3836 5.52453 15.7474 4.51774 16.304C3.81113 16.7633 3.32791 17.2137 3.15012 17.7004C3.11029 19.1247 5.86236 19.2138 7.31381 19.3715C17.4021 19.6524 27.5218 18.7206 37.6353 18.9757C47.6382 19.1848 57.8868 19.3795 67.5028 21.5223C71.5737 22.0853 68.5929 24.183 65.9347 23.8003C56.1515 24.8339 46.0471 24.8396 36.6167 27.1316C35.0668 27.3566 32.6385 28.5465 34.4842 29.6677C37.7331 31.2618 41.9777 31.0688 45.686 31.6943C49.0754 32.2929 53.0896 32.4395 55.7344 34.2538C56.12 35.7109 53.1594 36.1325 51.794 36.5717C47.9025 37.6792 43.3348 38.1564 40.2173 40.3052C38.9375 42.094 42.0794 43.3041 43.81 44.0832C46.2338 45.1194 49.2656 46.3435 49.1477 48.6963C49.0287 51.4622 48.0527 54.2896 49.2844 56.9875C50.321 60.6395 51.1889 64.6283 50.9951 68.4981C51.1545 71.6057 51.6531 74.6192 51.8472 77.7154C51.9428 78.7313 52.2217 80.2498 52.1246 81.0482C52.377 82.4745 52.2327 83.4503 52.7631 84.7434C52.8194 84.8806 52.7814 84.9216 52.5579 84.9969C52.4355 85.0381 52.2632 85.027 52.1296 84.9885ZM52.0492 79.2579C51.9321 79.3144 51.9544 79.1561 52.0492 79.2579ZM8.15678 14.8529C8.00047 14.9592 8.05257 14.7432 8.15678 14.8529ZM31.6786 11.9491C31.5783 12.0546 31.6294 11.8408 31.6786 11.9491ZM43.4497 11.475C43.3494 11.5805 43.4005 11.3667 43.4497 11.475ZM45.8986 11.3682C45.861 11.4352 45.7373 11.3062 45.8986 11.3682ZM8.08478 7.16059C8.04678 7.22737 7.92378 7.09831 8.08478 7.16059ZM25.2746 3.56349C25.192 3.62064 25.1622 3.4457 25.2746 3.56349ZM58.3812 2.71592C58.3432 2.78272 58.2202 2.65363 58.3812 2.71592ZM42.2799 2.27145C42.2419 2.33822 42.1188 2.20918 42.2799 2.27145ZM51.0328 69.0038C51.1293 69.1593 51.068 68.8473 51.0328 69.0038ZM43.7063 11.4844C43.7237 11.5411 43.8847 11.4419 43.7063 11.4844ZM61.4824 10.8231C61.6386 10.9293 61.5867 10.7134 61.4824 10.8231ZM69.2484 10.349C69.2976 10.4574 69.3488 10.2435 69.2484 10.349ZM78.214 6.55624C78.3599 6.66905 78.2644 6.43942 78.214 6.55624ZM15.0283 5.1932C15.0788 5.31001 15.1742 5.0804 15.0283 5.1932ZM24.2302 3.72104C24.2478 3.77807 24.4084 3.6786 24.2302 3.72104ZM59.612 2.88198C59.7162 2.99172 59.7683 2.77575 59.612 2.88198ZM44.3239 2.28936C44.373 2.39769 44.4241 2.18381 44.3239 2.28936ZM52.618 85.1513C53.8031 85.0429 51.1499 86.7592 52.618 85.1513Z" fill="#363636"/>
<path d="M52.3621 86.0986L52.4187 84.4746L50.7983 84.4182L50.7383 86.0384L52.3621 86.0986ZM52.1296 84.9885L50.6545 85.6703L50.9663 86.345L51.6807 86.5503L52.1296 84.9885ZM51.4011 81.0637L49.7794 81.1669L49.7843 81.2448L49.7967 81.3218L51.4011 81.0637ZM50.6951 73.0779L52.3153 72.9538L52.3103 72.8888L52.3002 72.8244L50.6951 73.0779ZM48.9175 58.2625L50.4433 57.7036L50.4377 57.6883L50.4318 57.6731L48.9175 58.2625ZM48.4516 49.5658L46.9227 49.0153L46.8815 49.1296L46.8578 49.2488L48.4516 49.5658ZM43.7626 44.5851L43.0895 46.0642L43.1319 46.0835L43.1753 46.1003L43.7626 44.5851ZM39.6088 40.1876L38.546 38.9583L38.3657 39.1143L38.2377 39.3154L39.6088 40.1876ZM50.2119 36.4996L50.6823 38.0551L50.6947 38.0513L50.2119 36.4996ZM55.2547 34.5188L56.5858 35.4508L57.5311 34.1007L56.1677 33.1746L55.2547 34.5188ZM46.8747 32.2469L47.1498 30.6454L47.145 30.6446L46.8747 32.2469ZM34.3614 30.1426L33.5689 31.5613L33.6587 31.6115L33.7542 31.6499L34.3614 30.1426ZM37.4518 26.482L37.6646 28.093L37.7331 28.0839L37.8006 28.0691L37.4518 26.482ZM68.2314 23.0766L68.4562 24.6859L68.5237 24.6765L68.5902 24.6615L68.2314 23.0766ZM66.483 21.6088L66.942 20.05L66.8749 20.0303L66.8065 20.0163L66.483 21.6088ZM37.479 19.292L37.5022 17.6672L37.5016 17.6672L37.479 19.292ZM9.90464 19.8189L9.83791 21.4425L9.88084 21.4443L9.92381 21.4438L9.90464 19.8189ZM2.85586 18.4763L1.37889 19.1539L1.51541 19.4514L1.75649 19.6729L2.85586 18.4763ZM4.41555 15.9248L3.7215 14.4555L3.60795 14.5091L3.50398 14.5796L4.41555 15.9248ZM22.8955 12.2566L22.7692 10.6365L22.7555 10.6375L22.7418 10.6388L22.8955 12.2566ZM71.6898 9.80681L71.8239 11.4263L71.8954 11.4203L71.9661 11.4082L71.6898 9.80681ZM79.492 8.00135L80.5371 9.24568L80.9926 8.86308L81.0935 8.2768L79.492 8.00135ZM77.3184 6.08232L78.1011 4.65822L77.9884 4.5963L77.8674 4.55287L77.3184 6.08232ZM69.3053 4.10788L68.9744 5.69884L69.0011 5.70439L69.0279 5.70904L69.3053 4.10788ZM61.106 2.96244L61.3248 1.35223L61.2439 1.34124L61.1624 1.33841L61.106 2.96244ZM57.6291 2.72158L57.3761 4.32676L57.5365 4.35205L57.6988 4.34508L57.6291 2.72158ZM54.2448 2.4891L54.1336 4.11029L54.1695 4.11275L54.2055 4.11362L54.2448 2.4891ZM47.1802 2.26153L47.0731 3.883L47.1222 3.88624L47.1714 3.88651L47.1802 2.26153ZM44.7101 2.23793L44.8002 0.615431L44.6837 0.608959L44.5675 0.619199L44.7101 2.23793ZM39.9061 2.37434L39.92 3.99928L39.9824 3.99874L40.0446 3.99343L39.9061 2.37434ZM35.0127 2.61623L35.1175 4.23786L35.1248 4.23736L35.0127 2.61623ZM30.2508 3.03342L30.3921 4.65226L30.4306 4.6489L30.4689 4.6437L30.2508 3.03342ZM23.6076 3.8102L23.364 2.20355L23.3217 2.20997L23.2797 2.21861L23.6076 3.8102ZM21.7325 4.11755L21.8369 5.7392L22.312 5.7086L22.6955 5.42646L21.7325 4.11755ZM19.1911 4.46408L18.9859 2.85209L18.9225 2.86017L18.8599 2.8732L19.1911 4.46408ZM15.3657 5.10699L15.6128 6.7131L15.677 6.70321L15.7402 6.68823L15.3657 5.10699ZM12.9851 5.53861L12.7587 3.92948L12.7015 3.93752L12.6451 3.9496L12.9851 5.53861ZM9.41726 6.29112L9.78102 7.87488L9.83576 7.86231L9.88951 7.84598L9.41726 6.29112ZM6.69398 6.83876L6.36183 5.24807L6.35224 5.25007L6.34267 5.25219L6.69398 6.83876ZM6.00967 7.23388L6.26071 8.83937L6.34894 8.82558L6.43514 8.80219L6.00967 7.23388ZM7.12284 7.67462L7.11252 6.04966L7.00478 6.05034L6.89808 6.06524L7.12284 7.67462ZM3.10711 6.55709L2.7617 4.96922L2.7617 4.96922L3.10711 6.55709ZM27.379 3.06529L27.5532 4.68094L27.5588 4.68032L27.379 3.06529ZM69.2484 3.79999L69.5997 2.21342L69.5556 2.20364L69.5109 2.19634L69.2484 3.79999ZM79.8231 7.20763L81.2438 6.41877L81.089 6.13998L80.8403 5.94037L79.8231 7.20763ZM75.8977 9.66553L76.0445 11.2839L76.1263 11.2765L76.2068 11.2608L75.8977 9.66553ZM69.332 10.2714L69.3215 8.64639L69.2453 8.64688L69.1695 8.65451L69.332 10.2714ZM49.4631 11.2917L49.4709 12.9167L49.5035 12.9166L49.5361 12.9151L49.4631 11.2917ZM40.5686 11.5634L40.5539 9.93851L40.5325 9.93871L40.5111 9.93946L40.5686 11.5634ZM35.9892 11.7568L36.0445 10.1327L35.9563 10.1297L35.8682 10.1363L35.9892 11.7568ZM25.2444 12.3405L25.1217 10.7201L25.0954 10.7221L25.0691 10.725L25.2444 12.3405ZM21.1047 12.7202L21.1159 14.3452L21.299 14.3439L21.4771 14.3019L21.1047 12.7202ZM14.8611 13.4128L14.7203 11.7939L14.6502 11.8L14.5809 11.8121L14.8611 13.4128ZM9.23427 14.5641L8.7844 13.0026L8.76078 13.0094L8.73738 13.0169L9.23427 14.5641ZM7.59438 15.0439L8.05276 16.6029L8.21573 16.555L8.36526 16.4744L7.59438 15.0439ZM4.51774 16.304L3.73153 14.8818L3.68076 14.9099L3.63212 14.9415L4.51774 16.304ZM3.15012 17.7004L1.62378 17.1428L1.53314 17.3909L1.52576 17.655L3.15012 17.7004ZM7.31381 19.3715L7.13833 20.987L7.20328 20.994L7.26858 20.9959L7.31381 19.3715ZM37.6353 18.9757L37.5944 20.6002L37.6014 20.6004L37.6353 18.9757ZM67.5028 21.5223L67.1494 23.1084L67.2143 23.1228L67.2802 23.1319L67.5028 21.5223ZM65.9347 23.8003L66.1663 22.1919L65.9656 22.163L65.764 22.1843L65.9347 23.8003ZM36.6167 27.1316L36.8501 28.7397L36.926 28.7287L37.0004 28.7106L36.6167 27.1316ZM34.4842 29.6677L33.6406 31.0565L33.7029 31.0944L33.7684 31.1265L34.4842 29.6677ZM45.686 31.6943L45.9687 30.094L45.9563 30.092L45.686 31.6943ZM55.7344 34.2538L57.3053 33.8381L57.151 33.255L56.6536 32.9138L55.7344 34.2538ZM51.794 36.5717L52.2388 38.1347L52.2654 38.1271L52.2917 38.1187L51.794 36.5717ZM40.2173 40.3052L39.295 38.9673L39.061 39.1286L38.8957 39.3597L40.2173 40.3052ZM43.81 44.0832L43.143 45.565L43.1571 45.5713L43.1713 45.5774L43.81 44.0832ZM49.1477 48.6963L47.5247 48.615L47.5242 48.6265L49.1477 48.6963ZM49.2844 56.9875L50.8476 56.5438L50.8139 56.425L50.7626 56.3127L49.2844 56.9875ZM50.9951 68.4981L49.3721 68.4169L49.368 68.4991L49.3722 68.5814L50.9951 68.4981ZM51.8472 77.7154L50.2254 77.817L50.227 77.8424L50.2293 77.8677L51.8472 77.7154ZM52.1246 81.0482L50.5115 80.8521L50.4822 81.0927L50.5244 81.3314L52.1246 81.0482ZM52.7631 84.7434L51.2597 85.3601L51.2597 85.3603L52.7631 84.7434ZM52.5579 84.9969L53.0764 86.5369L53.0766 86.5369L52.5579 84.9969ZM52.0492 79.2579L52.7551 80.7216L54.7414 79.7637L53.2382 78.1502L52.0492 79.2579ZM8.15678 14.8529L9.07018 16.1969L10.6527 15.1215L9.33514 13.734L8.15678 14.8529ZM31.6786 11.9491L32.8567 13.0683L33.6109 12.2745L33.1583 11.2775L31.6786 11.9491ZM43.4497 11.475L44.6278 12.5942L45.3819 11.8004L44.9294 10.8034L43.4497 11.475ZM45.8986 11.3682L47.3156 12.1637L48.235 10.5261L46.4822 9.85161L45.8986 11.3682ZM8.08478 7.16059L9.49711 7.96431L10.4298 6.32533L8.67102 5.64502L8.08478 7.16059ZM25.2746 3.56349L26.1986 4.90028L27.7646 3.81791L26.4498 2.44119L25.2746 3.56349ZM58.3812 2.71592L59.7937 3.51931L60.7257 1.88067L58.9676 1.20041L58.3812 2.71592ZM42.2799 2.27145L43.6922 3.07519L44.625 1.43611L42.866 0.755849L42.2799 2.27145ZM51.0328 69.0038L49.4475 68.6466L49.3013 69.2956L49.6521 69.8608L51.0328 69.0038ZM43.7063 11.4844L43.3298 9.90361L41.6448 10.305L42.1528 11.9609L43.7063 11.4844ZM61.4824 10.8231L60.3047 9.70346L58.9856 11.091L60.569 12.1671L61.4824 10.8231ZM69.2484 10.349L68.0706 9.22951L67.3159 10.0235L67.7689 11.021L69.2484 10.349ZM78.214 6.55624L76.722 5.91236L76.2223 7.0703L77.22 7.84175L78.214 6.55624ZM15.0283 5.1932L14.0344 3.90765L13.036 4.67957L13.5367 5.83796L15.0283 5.1932ZM24.2302 3.72104L23.8538 2.14024L22.1649 2.54238L22.6777 4.20099L24.2302 3.72104ZM59.612 2.88198L58.6986 1.53801L57.1165 2.61328L58.4334 4.00069L59.612 2.88198ZM44.3239 2.28936L43.1458 1.17012L42.3916 1.96395L42.8442 2.96099L44.3239 2.28936ZM52.618 85.1513L52.47 83.533L51.8427 83.5904L51.418 84.0555L52.618 85.1513ZM50.7383 86.0384C50.7249 86.3999 50.7952 86.8275 51.0498 87.2263C51.3084 87.6314 51.6746 87.8769 52.0244 88.0034C52.644 88.2276 53.2597 88.1115 53.6783 87.9051C53.8708 87.8102 54.2832 87.5699 54.5288 87.0659C54.6689 86.7785 54.7537 86.3978 54.6689 85.9781C54.5859 85.5671 54.3706 85.2674 54.1707 85.0748C53.817 84.7343 53.4032 84.6169 53.2013 84.5692C52.9509 84.5101 52.684 84.4838 52.4187 84.4746L52.3056 87.7226C52.4468 87.7275 52.4838 87.7392 52.454 87.7321C52.4374 87.7282 52.3792 87.7136 52.2972 87.6768C52.2207 87.6424 52.0721 87.5659 51.9164 87.4159C51.7532 87.2588 51.5588 86.9958 51.4832 86.6214C51.4059 86.2382 51.4845 85.8941 51.6074 85.642C51.8186 85.2086 52.1523 85.0339 52.2411 84.9901C52.4524 84.886 52.7612 84.8139 53.1299 84.9472C53.3541 85.0284 53.6087 85.1948 53.7892 85.4775C53.9657 85.7539 53.9913 86.0158 53.986 86.1588L50.7383 86.0384ZM53.6046 84.3068C53.4319 83.933 53.33 83.4823 53.2514 82.8764C53.189 82.3948 53.1127 81.472 53.0055 80.8055L49.7967 81.3218C49.9071 82.0075 49.919 82.4498 50.0284 83.2941C50.1217 84.0139 50.2752 84.8497 50.6545 85.6703L53.6046 84.3068ZM53.0228 80.9605C52.8538 78.3046 52.5002 75.3675 52.3153 72.9538L49.0748 73.202C49.2867 75.9684 49.6029 78.3938 49.7794 81.1669L53.0228 80.9605ZM52.3002 72.8244C51.9317 70.4908 51.9351 68.1618 51.803 65.5641C51.6744 63.0369 51.4149 60.3563 50.4433 57.7036L47.3916 58.8214C48.1895 60.9999 48.4325 63.2801 48.5572 65.7293C48.6782 68.1081 48.6857 70.7712 49.0899 73.3313L52.3002 72.8244ZM50.4318 57.6731C49.4777 55.2218 49.5037 52.6064 50.0454 49.8828L46.8578 49.2488C46.2461 52.3243 46.1458 55.6216 47.4031 58.852L50.4318 57.6731ZM49.9805 50.1163C50.3336 49.1359 50.3022 48.1698 49.9505 47.2919C49.616 46.457 49.0317 45.7973 48.4267 45.2857C47.2376 44.2799 45.6267 43.5648 44.3498 43.07L43.1753 46.1003C44.4082 46.5781 45.5805 47.1349 46.3279 47.7671C46.6912 48.0743 46.8633 48.3252 46.9336 48.5006C46.9867 48.6331 47.0084 48.7772 46.9227 49.0153L49.9805 50.1163ZM44.4356 43.1061C43.3029 42.5906 42.1576 42.1127 41.3911 41.5335C41.2175 41.4024 41.097 41.2893 41.0179 41.1981C40.9388 41.107 40.9208 41.0604 40.921 41.0611C40.9561 41.1538 40.8867 41.2063 40.9799 41.0598L38.2377 39.3154C37.6577 40.2271 37.5144 41.2418 37.8815 42.2116C38.2061 43.0692 38.8573 43.6924 39.4317 44.1264C40.5657 44.9834 42.1705 45.646 43.0895 46.0642L44.4356 43.1061ZM40.6716 41.4168C41.682 40.5433 43.1409 39.9663 44.9717 39.4735C45.8752 39.2303 46.8072 39.0223 47.7819 38.7979C48.7398 38.5773 49.7333 38.3421 50.6823 38.0551L49.7415 34.9442C48.9083 35.1962 48.0105 35.4102 47.0527 35.6308C46.1116 35.8474 45.1035 36.0723 44.1269 36.3352C42.1976 36.8545 40.1372 37.5825 38.546 38.9583L40.6716 41.4168ZM50.6947 38.0513C51.0457 37.942 51.4568 37.8442 51.9493 37.7294C52.4197 37.6198 52.9624 37.4951 53.4847 37.3432C54.4347 37.0669 55.7945 36.581 56.5858 35.4508L53.9235 33.5868C53.8405 33.7053 53.5129 33.9503 52.577 34.2225C52.1563 34.3449 51.7065 34.4489 51.2117 34.5642C50.7389 34.6744 50.212 34.7978 49.7291 34.948L50.6947 38.0513ZM56.1677 33.1746C54.8143 32.2553 53.1914 31.7556 51.657 31.4199C50.1507 31.0902 48.4692 30.872 47.1498 30.6454L46.5997 33.8485C48.1281 34.111 49.5393 34.2833 50.9623 34.5947C52.3572 34.9 53.5004 35.2917 54.3416 35.8631L56.1677 33.1746ZM47.145 30.6446C45.0193 30.286 42.6922 30.1263 40.6751 29.893C38.5773 29.6503 36.6641 29.3184 34.9687 28.6354L33.7542 31.6499C35.8663 32.5008 38.1331 32.8706 40.3017 33.1215C42.551 33.3817 44.5769 33.5072 46.6044 33.8493L47.145 30.6446ZM35.154 28.724C34.5348 28.3781 34.8554 28.341 34.8862 28.7983C34.916 29.2406 34.6176 29.3266 34.933 29.0824C35.1806 28.8909 35.6037 28.6691 36.1468 28.4736C36.6762 28.2829 37.2253 28.151 37.6646 28.093L37.2389 24.871C35.9456 25.0418 34.1152 25.6059 32.944 26.5122C32.395 26.937 31.5601 27.7778 31.6435 29.0166C31.7279 30.2704 32.6922 31.0715 33.5689 31.5613L35.154 28.724ZM37.8006 28.0691C42.6764 26.9972 47.7277 26.5081 52.8909 26.1098C58.0209 25.7141 63.2962 25.4067 68.4562 24.6859L68.0066 21.4672C62.9769 22.1697 57.8563 22.4672 52.641 22.8694C47.4588 23.2691 42.2151 23.771 37.1029 24.8949L37.8006 28.0691ZM68.5902 24.6615C68.9335 24.5837 69.2982 24.4784 69.616 24.314C69.8305 24.2031 70.5941 23.7779 70.6926 22.8249C70.7926 21.8563 70.1117 21.2948 69.9464 21.1654C69.692 20.9663 69.4105 20.8317 69.2108 20.7458C68.4723 20.428 67.1824 20.1208 66.942 20.05L66.0241 23.1677C66.2371 23.2304 66.723 23.3544 67.0212 23.4371C67.4043 23.5433 67.7245 23.6443 67.9265 23.7312C68.0384 23.7794 68.018 23.7831 67.9432 23.7246C67.9039 23.6939 67.7863 23.5974 67.6748 23.4217C67.5539 23.2311 67.417 22.9052 67.4598 22.4909C67.5023 22.0795 67.6999 21.7956 67.844 21.6442C67.9781 21.5034 68.0978 21.4403 68.1229 21.4273C68.1695 21.4032 68.1192 21.4358 67.8726 21.4917L68.5902 24.6615ZM66.8065 20.0163C57.2435 18.0741 47.1695 17.8054 37.5022 17.6672L37.4558 20.9169C47.1389 21.0552 56.9307 21.3269 66.1596 23.2013L66.8065 20.0163ZM37.5016 17.6672C28.2496 17.5388 18.8037 18.0888 9.88548 18.194L9.92381 21.4438C19.0992 21.3356 28.2091 20.7886 37.4565 20.9169L37.5016 17.6672ZM9.97138 18.1953C8.59674 18.1388 7.49408 18.1948 6.28566 18.0674C5.13106 17.9457 4.39428 17.6829 3.95523 17.2796L1.75649 19.6729C2.97889 20.7959 4.58246 21.1559 5.94487 21.2995C7.25345 21.4375 8.84446 21.4017 9.83791 21.4425L9.97138 18.1953ZM4.33284 17.7986C4.32559 17.7828 4.35885 17.8619 4.33394 17.9825C4.31432 18.0775 4.27942 18.0927 4.33901 18.0221C4.40114 17.9486 4.51204 17.8453 4.69744 17.7061C4.88704 17.5638 5.07917 17.4381 5.32712 17.27L3.50398 14.5796C3.15123 14.8186 2.3855 15.2984 1.85637 15.9248C1.56733 16.2669 1.27347 16.7326 1.15107 17.3254C1.02338 17.9438 1.11005 18.5679 1.37889 19.1539L4.33284 17.7986ZM5.1096 17.3941C10.217 14.9816 16.5488 14.4921 23.0493 13.8743L22.7418 10.6388C16.455 11.2364 9.45896 11.7453 3.7215 14.4555L5.1096 17.3941ZM23.0219 13.8766C31.0907 13.2473 39.2021 12.9715 47.3555 12.6847C55.4964 12.3984 63.6775 12.1011 71.8239 11.4263L71.5556 8.18736C63.4977 8.85491 55.3914 9.15007 47.2412 9.43674C39.1034 9.72297 30.9199 10.0008 22.7692 10.6365L23.0219 13.8766ZM71.9661 11.4082C72.5468 11.3079 73.1831 11.2434 73.8911 11.1773C74.5785 11.1132 75.3411 11.0471 76.0826 10.9424C77.531 10.7378 79.2209 10.3512 80.5371 9.24568L78.4469 6.75702C77.8655 7.24535 76.9557 7.53684 75.6282 7.72431C74.9817 7.81561 74.3123 7.87394 73.5892 7.9414C72.8868 8.00693 72.1342 8.08112 71.4135 8.20547L71.9661 11.4082ZM81.0935 8.2768C81.365 6.69835 80.1683 5.78641 79.6261 5.44148C79.2984 5.23302 78.955 5.066 78.6936 4.94276C78.389 4.79919 78.2307 4.72945 78.1011 4.65822L76.5357 7.50642C76.7828 7.64221 77.1066 7.78767 77.3078 7.8825C77.5521 7.99767 77.738 8.09225 77.8816 8.1836C78.0358 8.28171 78.0397 8.31377 78.0005 8.25762C77.9298 8.15643 77.8516 7.95208 77.8905 7.7259L81.0935 8.2768ZM77.8674 4.55287C75.2139 3.60037 72.3189 2.98069 69.5826 2.50673L69.0279 5.70904C71.6965 6.17128 74.3772 6.75308 76.7694 7.61177L77.8674 4.55287ZM69.6362 2.51693C67.0833 1.98599 63.9636 1.71078 61.3248 1.35223L60.8872 4.57264C63.7708 4.96444 66.5637 5.19747 68.9744 5.69884L69.6362 2.51693ZM61.1624 1.33841C60.8428 1.32733 60.304 1.26671 59.5886 1.19897C58.9518 1.13868 58.164 1.07213 57.5594 1.09807L57.6988 4.34508C58.0435 4.33029 58.6099 4.37084 59.2822 4.4345C59.8758 4.49071 60.6008 4.57089 61.0497 4.58646L61.1624 1.33841ZM57.8821 1.1164C56.6817 0.927177 54.877 0.878897 54.284 0.864572L54.2055 4.11362C54.8475 4.12913 56.4277 4.17726 57.3761 4.32676L57.8821 1.1164ZM54.356 0.867908C52.0759 0.711513 49.3833 0.648321 47.1889 0.636555L47.1714 3.88651C49.3316 3.89809 51.9488 3.96044 54.1336 4.11029L54.356 0.867908ZM47.2872 0.640064C46.833 0.610066 46.3527 0.617422 45.9454 0.623235C45.5116 0.629427 45.1418 0.63441 44.8002 0.615431L44.6199 3.86043C45.0959 3.88687 45.5838 3.87873 45.9918 3.8729C46.4265 3.8667 46.7725 3.86315 47.0731 3.883L47.2872 0.640064ZM44.5675 0.619199C44.1091 0.659578 43.3654 0.662854 42.4453 0.669487C41.5781 0.675738 40.5825 0.685557 39.7676 0.755247L40.0446 3.99343C40.71 3.93651 41.5748 3.92585 42.4687 3.9194C43.3096 3.91334 44.2278 3.91172 44.8527 3.85666L44.5675 0.619199ZM39.8922 0.749396C38.2609 0.763358 36.0156 0.917989 34.9006 0.995099L35.1248 4.23736C36.2653 4.15848 38.4063 4.01223 39.92 3.99928L39.8922 0.749396ZM34.9079 0.994611C33.2518 1.10164 31.396 1.23839 30.0326 1.42313L30.4689 4.6437C31.7044 4.47631 33.4531 4.34541 35.1175 4.23784L34.9079 0.994611ZM30.1094 1.41458C27.847 1.61208 25.4936 1.88076 23.364 2.20355L23.8511 5.41684C25.9004 5.10622 28.1843 4.845 30.3921 4.65226L30.1094 1.41458ZM23.2797 2.21861C22.9578 2.28491 22.6013 2.32639 22.229 2.37155C22.062 2.3918 21.8645 2.41611 21.6949 2.44583C21.6102 2.46068 21.4963 2.48295 21.3773 2.51689C21.3021 2.53833 21.0344 2.61375 20.7695 2.80865L22.6955 5.42646C22.563 5.52392 22.4473 5.57576 22.3942 5.59789C22.3339 5.623 22.2883 5.63667 22.2687 5.64226C22.2319 5.65277 22.2208 5.65321 22.2561 5.64703C22.3265 5.63468 22.4377 5.62006 22.6203 5.59791C22.9472 5.55826 23.4535 5.50103 23.9354 5.40178L23.2797 2.21861ZM21.6281 2.49591C21.2377 2.52105 20.7165 2.59574 20.2625 2.66387C19.7703 2.73774 19.3276 2.80859 18.9859 2.85209L19.3963 6.07608C19.7861 6.02647 20.3042 5.94401 20.7449 5.87787C21.2239 5.80599 21.6076 5.75396 21.8369 5.7392L21.6281 2.49591ZM18.8599 2.8732C18.3744 2.97428 17.7315 3.06679 17.0142 3.17264C16.3388 3.27229 15.5808 3.38606 14.9911 3.52575L15.7402 6.68823C16.1671 6.58711 16.7775 6.49275 17.4886 6.38782C18.1578 6.28908 18.9193 6.18053 19.5224 6.05497L18.8599 2.8732ZM15.1186 3.50088C14.4062 3.61048 14.0738 3.68378 13.7736 3.74966C13.5241 3.8044 13.3047 3.85262 12.7587 3.92948L13.2116 7.14775C13.8586 7.0567 14.1615 6.99186 14.4702 6.92413C14.728 6.86755 14.9893 6.809 15.6128 6.7131L15.1186 3.50088ZM12.6451 3.9496C11.5941 4.17453 9.99708 4.41672 8.94502 4.73625L9.88951 7.84598C10.79 7.57248 11.8913 7.43454 13.3252 7.12763L12.6451 3.9496ZM9.0535 4.70735C7.87339 4.97841 7.69594 4.9695 6.36183 5.24807L7.02612 8.42945C8.05509 8.2146 8.64771 8.13518 9.78102 7.87488L9.0535 4.70735ZM6.34267 5.25219C5.95559 5.3379 5.42225 5.50911 5.07837 5.66679C5.00699 5.69952 4.8285 5.78241 4.65452 5.91323C4.61014 5.9466 4.31549 6.15827 4.13176 6.55503C4.02037 6.79559 3.90738 7.20075 4.03753 7.67674C4.16829 8.15497 4.47438 8.44864 4.69935 8.60126C5.06758 8.85106 5.4371 8.87861 5.49421 8.88414C5.62381 8.89668 5.73665 8.89372 5.80804 8.89018C5.95651 8.88283 6.11371 8.86236 6.26071 8.83937L5.75863 5.62839C5.65547 5.64452 5.62803 5.64512 5.64721 5.64417C5.65396 5.64383 5.71598 5.64041 5.80734 5.64925C5.82621 5.65108 6.17004 5.67169 6.52388 5.91173C6.74167 6.05947 7.04339 6.34755 7.17245 6.81955C7.30089 7.2893 7.18886 7.68757 7.08093 7.92065C6.90414 8.30245 6.62644 8.49675 6.60776 8.5108C6.4852 8.60296 6.39313 8.63931 6.433 8.62102C6.53415 8.57464 6.84327 8.47006 7.04528 8.42533L6.34267 5.25219ZM6.43514 8.80219C6.30789 8.83671 6.30943 8.80797 6.50122 8.83154C6.65483 8.85042 6.79397 8.88646 6.85502 8.90817C6.90134 8.92465 6.82947 8.90585 6.71322 8.82766C6.66478 8.79508 6.4895 8.67497 6.3322 8.44436C6.15428 8.18352 5.91582 7.62945 6.17035 6.98068C6.38334 6.43778 6.80375 6.21322 6.92349 6.15452C7.07899 6.07828 7.19967 6.05473 7.22323 6.05012C7.27953 6.03911 7.26227 6.0487 7.11252 6.04966L7.13317 9.29959C7.35825 9.29816 7.60992 9.28607 7.84704 9.23969C7.96101 9.2174 8.15007 9.17274 8.35415 9.07269C8.52247 8.99017 8.97166 8.73908 9.19585 8.16764C9.46157 7.49032 9.21674 6.9057 9.01708 6.61299C8.83805 6.35052 8.62568 6.19724 8.52702 6.13088C8.31034 5.98515 8.08551 5.89638 7.94416 5.8461C7.62986 5.73431 7.25476 5.64969 6.89761 5.6058C6.57863 5.56661 6.07288 5.53299 5.58419 5.66557L6.43514 8.80219ZM6.89808 6.06524C5.66589 6.23733 4.72498 6.27934 4.05105 6.25151C3.71449 6.23762 3.46075 6.20693 3.28039 6.17245C3.09041 6.13613 3.02625 6.10397 3.04204 6.11172C3.05245 6.11683 3.11024 6.14582 3.18786 6.21209C3.26464 6.27765 3.39167 6.40636 3.49112 6.61428C3.74939 7.15427 3.59599 7.69449 3.37335 7.99852C3.21112 8.22005 3.05548 8.27399 3.11794 8.24462C3.15194 8.22864 3.25579 8.18775 3.45251 8.14496L2.7617 4.96922C2.40166 5.04754 2.05062 5.15515 1.73515 5.30347C1.44816 5.4384 1.0485 5.67244 0.751275 6.0783C0.39364 6.56666 0.214287 7.29543 0.559225 8.01661C0.833017 8.58903 1.31704 8.88539 1.60975 9.02909C2.22992 9.33356 3.04817 9.46287 3.91698 9.49874C4.83247 9.53654 5.97454 9.47576 7.34761 9.284L6.89808 6.06524ZM3.45251 8.14496C8.80882 6.9798 19.7311 5.52429 27.5532 4.68093L27.2048 1.44966C19.3775 2.29358 8.30322 3.76378 2.7617 4.96922L3.45251 8.14496ZM27.5588 4.68032C41.2909 3.152 55.4777 3.19256 68.9859 5.40365L69.5109 2.19634C55.6609 -0.0707056 41.1716 -0.104784 27.1993 1.45026L27.5588 4.68032ZM68.8971 5.38657C70.9072 5.83163 72.6675 6.09604 74.5035 6.57317C76.2699 7.03221 77.7265 7.6085 78.8059 8.47488L80.8403 5.94037C79.2278 4.64605 77.245 3.92767 75.3209 3.42765C73.4665 2.94572 71.2854 2.58666 69.5997 2.21342L68.8971 5.38657ZM78.4024 7.99648C78.4254 8.0379 78.3753 7.96594 78.3751 7.80544C78.3748 7.62821 78.4356 7.47315 78.5042 7.37237C78.5914 7.24424 78.6057 7.31786 78.234 7.46491C77.5182 7.74803 76.5379 7.88622 75.5885 8.07021L76.2068 11.2608C76.8749 11.1314 78.3436 10.9166 79.4294 10.4871C79.9584 10.2778 80.7117 9.90522 81.191 9.20097C81.4556 8.81213 81.6257 8.33653 81.6251 7.80129C81.6244 7.28277 81.464 6.81533 81.2438 6.41877L78.4024 7.99648ZM75.7508 8.04718C73.2424 8.27481 71.4609 8.63258 69.3215 8.64639L69.3425 11.8963C71.635 11.8815 73.9515 11.4738 76.0445 11.2839L75.7508 8.04718ZM69.1695 8.65451C62.587 9.31616 56.1309 9.36523 49.3901 9.66839L49.5361 12.9151C56.1182 12.6191 62.7944 12.5617 69.4946 11.8882L69.1695 8.65451ZM49.4553 9.66677C47.9678 9.67393 46.4609 9.73652 44.9778 9.79913C43.4847 9.86216 42.015 9.92525 40.5539 9.93851L40.5834 13.1884C42.1082 13.1745 43.6334 13.1088 45.1149 13.0462C46.6064 12.9833 48.0537 12.9236 49.4709 12.9167L49.4553 9.66677ZM40.5111 9.93946C39.6693 9.96927 38.8109 10.0313 38.061 10.0764C37.2857 10.1229 36.6155 10.1521 36.0445 10.1327L35.934 13.3808C36.6719 13.4059 37.4761 13.3673 38.2558 13.3205C39.0606 13.2722 39.8375 13.2154 40.6261 13.1874L40.5111 9.93946ZM35.8682 10.1363C34.0386 10.2729 32.2822 10.3493 30.5098 10.4265C28.7445 10.5033 26.962 10.5808 25.1217 10.7201L25.3671 13.9609C27.1472 13.8261 28.8784 13.7505 30.6511 13.6734C32.4167 13.5966 34.2225 13.5182 36.1102 13.3773L35.8682 10.1363ZM25.0691 10.725C24.4824 10.7886 23.7128 10.8313 22.8998 10.8876C22.1685 10.9382 21.3003 11.0047 20.7322 11.1385L21.4771 14.3019C21.7329 14.2417 22.306 14.1865 23.1242 14.1299C23.8608 14.0789 24.7491 14.0288 25.4196 13.956L25.0691 10.725ZM21.0934 11.0952C20.0896 11.1022 18.8747 11.2519 17.7657 11.403C16.6039 11.5613 15.5558 11.7212 14.7203 11.7939L15.0019 15.0317C15.9422 14.9499 17.1308 14.7696 18.2045 14.6233C19.3308 14.4698 20.3498 14.3505 21.1159 14.3452L21.0934 11.0952ZM14.5809 11.8121C12.8516 12.1149 10.7732 12.4296 8.7844 13.0026L9.68414 16.1256C11.4586 15.6143 13.3042 15.3351 15.1413 15.0134L14.5809 11.8121ZM8.73738 13.0169C8.73927 13.0163 8.72181 13.0218 8.67279 13.0349C8.62765 13.0469 8.57147 13.0613 8.50227 13.0787C8.37171 13.1116 8.19043 13.1562 8.01666 13.2013C7.84121 13.2468 7.64351 13.3004 7.45916 13.3582C7.30218 13.4074 7.05049 13.491 6.82351 13.6134L8.36526 16.4744C8.30002 16.5095 8.29722 16.5015 8.43186 16.4592C8.53912 16.4256 8.67575 16.3879 8.83289 16.3471C8.99171 16.3059 9.14126 16.2692 9.29535 16.2305C9.42436 16.198 9.59777 16.1541 9.73116 16.1112L8.73738 13.0169ZM7.13601 13.4849C5.88651 13.8522 4.85886 14.2586 3.73153 14.8818L5.30394 17.7261C6.1902 17.2362 6.99166 16.9149 8.05276 16.6029L7.13601 13.4849ZM3.63212 14.9415C2.88586 15.4266 1.99633 16.123 1.62378 17.1428L4.67646 18.258C4.6589 18.306 4.65924 18.2661 4.78344 18.1422C4.90661 18.0193 5.10367 17.8612 5.40336 17.6664L3.63212 14.9415ZM1.52576 17.655C1.49821 18.6398 1.99563 19.3728 2.59045 19.8293C3.12344 20.2384 3.75889 20.4551 4.27191 20.5857C5.28421 20.8434 6.54078 20.9221 7.13833 20.987L7.48929 17.756C6.6354 17.6632 5.7902 17.6185 5.07356 17.4361C4.91279 17.3952 4.78824 17.3537 4.69599 17.315C4.60147 17.2753 4.56714 17.2496 4.56911 17.2511C4.61376 17.2853 4.78211 17.4732 4.77449 17.7458L1.52576 17.655ZM7.26858 20.9959C12.3699 21.1379 17.4706 20.9731 22.5184 20.8074C27.5825 20.6412 32.5929 20.474 37.5944 20.6002L37.6763 17.3512C32.5642 17.2223 27.458 17.3935 22.4118 17.5591C17.3493 17.7253 12.346 17.886 7.35904 17.7471L7.26858 20.9959ZM37.6014 20.6004C47.6389 20.8102 57.7197 21.0072 67.1494 23.1084L67.8562 19.9362C58.0538 17.7519 47.6374 17.5594 37.6693 17.3511L37.6014 20.6004ZM67.2802 23.1319C67.7167 23.1923 67.9951 23.2653 68.1563 23.3241C68.3365 23.3898 68.2783 23.4042 68.1602 23.2774C68.0921 23.2043 68.0009 23.0798 67.9397 22.8997C67.8766 22.714 67.8629 22.5193 67.8913 22.3388C67.9184 22.1662 67.9784 22.0403 68.0237 21.9653C68.0683 21.8916 68.1068 21.8533 68.1156 21.8448C68.1284 21.8325 68.0874 21.8732 67.9574 21.9369C67.8351 21.9969 67.6696 22.0596 67.4689 22.1112C67.0603 22.2163 66.5928 22.2533 66.1663 22.1919L65.7032 25.4087C66.6057 25.5387 67.5077 25.457 68.2784 25.2588C69.0122 25.0701 69.8053 24.729 70.3687 24.1871C70.652 23.9146 71.0036 23.4676 71.1018 22.844C71.213 22.1371 70.9528 21.507 70.5378 21.0617C70.1682 20.6651 69.6958 20.4262 69.2701 20.2709C68.8256 20.1088 68.3066 19.993 67.7254 19.9126L67.2802 23.1319ZM65.764 22.1843C60.8822 22.7 56.0169 22.9507 51.0063 23.3748C46.0515 23.7943 41.0699 24.377 36.2329 25.5526L37.0004 28.7106C41.5938 27.5943 46.3797 27.0281 51.2805 26.6133C56.1256 26.2031 61.204 25.9341 66.1054 25.4163L65.764 22.1843ZM36.3832 25.5235C35.4288 25.662 34.1216 26.0923 33.249 26.8051C32.8364 27.1422 32.1671 27.8369 32.1964 28.8758C32.2274 29.9737 33.0037 30.6696 33.6406 31.0565L35.3279 28.2788C35.0419 28.1051 35.4296 28.2318 35.4451 28.7842C35.4591 29.2777 35.1476 29.4507 35.3052 29.322C35.4102 29.2362 35.6303 29.1064 35.9547 28.9813C36.2672 28.8608 36.5919 28.7772 36.8501 28.7397L36.3832 25.5235ZM33.7684 31.1265C35.6485 32.049 37.7474 32.4235 39.7213 32.6579C41.8131 32.9062 43.5951 32.9896 45.4157 33.2967L45.9563 30.092C44.0687 29.7735 41.8742 29.6406 40.1044 29.4305C38.2167 29.2064 36.5688 28.8804 35.2 28.2088L33.7684 31.1265ZM45.4034 33.2946C46.2852 33.4503 47.2052 33.5762 48.0869 33.7007C48.9818 33.827 49.8477 33.9533 50.6824 34.1139C52.3739 34.4394 53.7726 34.8787 54.8151 35.5938L56.6536 32.9138C55.0514 31.8147 53.1206 31.2735 51.2965 30.9224C50.3734 30.7448 49.4348 30.6088 48.5412 30.4826C47.6344 30.3545 46.7816 30.2377 45.9687 30.0941L45.4034 33.2946ZM54.1635 34.6695C54.1397 34.5798 54.1296 34.4352 54.1787 34.2758C54.2239 34.1286 54.2946 34.0503 54.3091 34.0353C54.3198 34.0243 54.2952 34.0519 54.2021 34.1059C54.1119 34.1582 53.9868 34.2184 53.8212 34.2841C53.4837 34.4181 53.0754 34.5375 52.6198 34.6594C52.2088 34.7694 51.689 34.8985 51.2964 35.0248L52.2917 38.1187C52.5817 38.0253 52.944 37.937 53.4601 37.7989C53.9315 37.6727 54.4953 37.5133 55.0204 37.3048C55.5158 37.1081 56.1505 36.8029 56.6377 36.3025C57.2053 35.7195 57.5735 34.8513 57.3053 33.8381L54.1635 34.6695ZM51.3492 35.0088C50.4217 35.2728 49.444 35.5019 48.4198 35.736C47.4084 35.9671 46.3445 36.2045 45.3053 36.4756C43.2398 37.0143 41.0937 37.7275 39.295 38.9673L41.1395 41.6432C42.4584 40.7341 44.1549 40.1343 46.1255 39.6204C47.1043 39.3651 48.1069 39.1413 49.1438 38.9043C50.168 38.6702 51.2205 38.4245 52.2388 38.1347L51.3492 35.0088ZM38.8957 39.3597C38.303 40.1881 38.1176 41.1626 38.474 42.1119C38.7793 42.9248 39.4046 43.4988 39.9175 43.8787C40.9403 44.6362 42.3861 45.2243 43.143 45.565L44.4771 42.6014C43.5033 42.163 42.5128 41.7565 41.8519 41.267C41.523 41.0234 41.4946 40.9108 41.5166 40.9694C41.5898 41.1643 41.4916 41.3167 41.5388 41.2508L38.8957 39.3597ZM43.1713 45.5774C44.4408 46.1201 45.6244 46.6165 46.5024 47.2289C47.38 47.841 47.5416 48.2784 47.5247 48.615L50.7706 48.7777C50.8717 46.7615 49.5763 45.4104 48.3616 44.5632C47.1473 43.7163 45.6031 43.0824 44.4488 42.589L43.1713 45.5774ZM47.5242 48.6265C47.4977 49.2427 47.4227 49.8775 47.3338 50.5733C47.2474 51.2488 47.1456 51.9976 47.0892 52.7451C46.975 54.2566 47.0266 55.9548 47.8061 57.6624L50.7626 56.3127C50.3105 55.3224 50.2342 54.2579 50.3299 52.9898C50.3784 52.3475 50.4659 51.7021 50.5575 50.9853C50.6466 50.2887 50.7382 49.5329 50.7712 48.7661L47.5242 48.6265ZM47.7211 57.4313C48.7451 61.0387 49.5523 64.8195 49.3721 68.4169L52.618 68.5794C52.8255 64.4371 51.8969 60.2404 50.8476 56.5438L47.7211 57.4313ZM49.3722 68.5814C49.4547 70.189 49.6244 71.7635 49.7929 73.2894C49.963 74.8291 50.1312 76.3152 50.2254 77.817L53.469 77.6137C53.3691 76.0194 53.1909 74.4506 53.0233 72.9326C52.8541 71.4008 52.6949 69.9148 52.6179 68.4149L49.3722 68.5814ZM50.2293 77.8677C50.2775 78.3794 50.3852 79.1381 50.4437 79.6485C50.5156 80.2753 50.5335 80.6709 50.5115 80.8521L53.7377 81.2444C53.8127 80.6272 53.7398 79.8643 53.6726 79.2782C53.592 78.5758 53.5125 78.0672 53.465 77.563L50.2293 77.8677ZM50.5244 81.3314C50.6379 81.9725 50.6496 82.4172 50.7236 83.1167C50.7937 83.7793 50.9132 84.5153 51.2597 85.3601L54.2666 84.1268C54.0827 83.6784 54.009 83.2799 53.9556 82.7747C53.906 82.3065 53.8637 81.5502 53.7247 80.7651L50.5244 81.3314ZM51.2597 85.3603C51.2516 85.3404 51.1717 85.1548 51.1622 84.8879C51.15 84.5422 51.2577 84.167 51.5126 83.8584C51.7151 83.6134 51.9341 83.5065 51.9822 83.4831C52.0444 83.4529 52.0801 83.4431 52.0392 83.4569L53.0766 86.5369C53.1474 86.513 53.2717 86.4699 53.4022 86.4065C53.5184 86.35 53.7854 86.2102 54.0182 85.9283C54.6817 85.1252 54.3173 84.2505 54.2665 84.1266L51.2597 85.3603ZM52.0394 83.4568C52.2188 83.3964 52.3523 83.3969 52.4006 83.3984C52.4596 83.4003 52.5162 83.4089 52.5784 83.4268L51.6807 86.5503C52.0015 86.6425 52.5337 86.7196 53.0764 86.5369L52.0394 83.4568ZM53.2382 78.1502C53.1065 78.0088 52.7008 77.6161 52.0358 77.5985C51.6682 77.5888 51.2604 77.7028 50.9215 77.9923C50.5932 78.2726 50.4122 78.6474 50.3606 79.0146C50.2536 79.7757 50.6841 80.4888 51.3683 80.7703C51.9895 81.0258 52.5276 80.8314 52.7551 80.7216L51.3434 77.7942C51.5124 77.7128 52.0093 77.5197 52.6047 77.7646C53.2631 78.0355 53.6832 78.726 53.5789 79.4672C53.5287 79.8245 53.3524 80.1902 53.0319 80.4638C52.7007 80.7467 52.3037 80.8567 51.9497 80.8474C51.3119 80.8305 50.9446 80.4561 50.8603 80.3656L53.2382 78.1502ZM9.33514 13.734C9.10448 13.4911 8.56205 13.0822 7.79595 13.2236C7.07254 13.3571 6.61428 13.9114 6.47939 14.4706C6.40943 14.7606 6.39644 15.1727 6.60493 15.5929C6.83633 16.0593 7.25651 16.3602 7.7084 16.4652C8.10877 16.5582 8.44147 16.481 8.62478 16.4195C8.82001 16.3539 8.97053 16.2647 9.07018 16.1969L7.24339 13.5089C7.30395 13.4678 7.42191 13.395 7.59048 13.3384C7.74712 13.2858 8.05907 13.2101 8.44397 13.2995C8.88039 13.4009 9.2904 13.6931 9.5163 14.1485C9.71929 14.5576 9.70548 14.9561 9.63878 15.2327C9.51041 15.7649 9.07494 16.2924 8.38572 16.4196C7.65382 16.5547 7.15698 16.16 6.97842 15.9719L9.33514 13.734ZM33.1583 11.2775C33.1039 11.1576 32.9669 10.8865 32.6754 10.6534C32.5168 10.5265 32.2946 10.3972 32.01 10.3329C31.7174 10.2668 31.424 10.2844 31.1591 10.3672C30.6654 10.5214 30.3957 10.854 30.2832 11.0208C30.155 11.2109 30.0819 11.4035 30.042 11.5704C30.0047 11.7266 29.9691 11.9746 30.025 12.2695C30.0767 12.5422 30.2869 13.1831 31.0109 13.4811C31.6899 13.7605 32.2552 13.4956 32.432 13.3982C32.6477 13.2794 32.7904 13.1382 32.8567 13.0683L30.5005 10.8299C30.5418 10.7864 30.6641 10.6616 30.8636 10.5517C31.0242 10.4632 31.5774 10.1998 32.2479 10.4757C32.9634 10.7702 33.1685 11.4026 33.2181 11.6643C33.272 11.9483 33.2372 12.1829 33.2031 12.3257C33.1664 12.4793 33.0988 12.6585 32.9779 12.8378C32.8726 12.9939 32.6119 13.3182 32.1284 13.4693C31.8686 13.5505 31.5806 13.5678 31.2935 13.5029C31.0144 13.4399 30.798 13.3134 30.6453 13.1913C30.3656 12.9676 30.241 12.7135 30.1989 12.6207L33.1583 11.2775ZM44.9294 10.8034C44.875 10.6835 44.738 10.4124 44.4465 10.1793C44.2879 10.0524 44.0657 9.92314 43.7811 9.8588C43.4884 9.79266 43.195 9.81034 42.9302 9.89309C42.4365 10.0473 42.1668 10.3799 42.0543 10.5467C41.9261 10.7368 41.853 10.9294 41.8131 11.0963C41.7758 11.2525 41.7402 11.5005 41.7961 11.7954C41.8478 12.0681 42.0579 12.709 42.782 13.007C43.4609 13.2865 44.0263 13.0215 44.2031 12.9241C44.4187 12.8053 44.5614 12.6641 44.6278 12.5942L42.2716 10.3558C42.3128 10.3123 42.4352 10.1875 42.6347 10.0776C42.7953 9.98912 43.3485 9.72565 44.019 10.0016C44.7344 10.2961 44.9396 10.9285 44.9892 11.1902C45.043 11.4742 45.0083 11.7088 44.9741 11.8516C44.9375 12.0052 44.8699 12.1844 44.7489 12.3637C44.6437 12.5198 44.383 12.8441 43.8995 12.9952C43.6397 13.0764 43.3516 13.0937 43.0646 13.0288C42.7855 12.9658 42.5691 12.8393 42.4164 12.7172C42.1367 12.4935 42.0121 12.2394 41.97 12.1466L44.9294 10.8034ZM46.4822 9.85161C46.4138 9.82531 46.3117 9.78975 46.1878 9.76349C46.1071 9.74637 45.8232 9.68748 45.4736 9.76495C45.2848 9.8068 44.9583 9.91489 44.6657 10.21C44.3374 10.541 44.1891 10.9699 44.1929 11.374C44.1962 11.7302 44.3141 11.9985 44.3946 12.1453C44.4806 12.3021 44.5771 12.4175 44.6506 12.4942C44.9015 12.7561 45.2556 12.9524 45.6683 13.0014C45.902 13.0292 46.2179 13.0156 46.5491 12.8663C46.8968 12.7095 47.1545 12.4505 47.3156 12.1637L44.4816 10.5727C44.6332 10.3026 44.8788 10.0543 45.2133 9.9035C45.5311 9.76021 45.8325 9.74804 46.0518 9.7741C46.4358 9.81973 46.762 10.0002 46.9975 10.246C47.0671 10.3186 47.1605 10.4299 47.2444 10.5829C47.3227 10.7258 47.4394 10.9904 47.4427 11.3433C47.4465 11.744 47.2993 12.1698 46.9734 12.4984C46.6832 12.7911 46.3605 12.8973 46.1769 12.938C45.8379 13.0131 45.5704 12.9548 45.5137 12.9428C45.4138 12.9216 45.343 12.8956 45.315 12.8848L46.4822 9.85161ZM8.67102 5.64502C8.60272 5.6186 8.50069 5.58288 8.37702 5.55642C8.29611 5.5391 8.01322 5.47998 7.66458 5.55617C7.47644 5.59729 7.1509 5.70381 6.85788 5.99625C6.52899 6.32449 6.37739 6.75193 6.37902 7.15738C6.38047 7.51485 6.49763 7.78462 6.57795 7.93238C6.66372 8.09016 6.76032 8.20624 6.83381 8.28336C7.08499 8.54693 7.43923 8.7435 7.85119 8.79327C8.08447 8.82145 8.39922 8.80855 8.72955 8.66112C9.07635 8.50634 9.33466 8.24977 9.49711 7.96431L6.67246 6.35687C6.82541 6.0881 7.07156 5.8421 7.40498 5.69329C7.72194 5.55183 8.02211 5.54028 8.24103 5.56673C8.62427 5.61304 8.95069 5.79376 9.1865 6.04119C9.25615 6.11427 9.34968 6.2263 9.43334 6.3802C9.51155 6.52409 9.62757 6.79015 9.629 7.14427C9.63062 7.54638 9.48015 7.97082 9.15369 8.29663C8.86311 8.58663 8.54134 8.69127 8.35845 8.73124C8.02033 8.80513 7.75395 8.74666 7.69697 8.73447C7.59725 8.71313 7.5266 8.68701 7.49854 8.67615L8.67102 5.64502ZM26.4498 2.44119C26.3854 2.37367 26.2845 2.27709 26.1475 2.18471C26.0354 2.10911 25.7588 1.93919 25.3613 1.90339C25.1446 1.88387 24.8621 1.90249 24.5651 2.03048C24.2584 2.16264 24.0129 2.37914 23.8448 2.6353C23.5334 3.10989 23.5605 3.58427 23.5995 3.81367C23.6802 4.287 23.9769 4.75659 24.4798 5.01564C25.1182 5.34448 25.7762 5.19218 26.1986 4.90028L24.3507 2.22671C24.7317 1.96339 25.355 1.81064 25.9681 2.12644C26.4457 2.37244 26.7265 2.81637 26.8034 3.26783C26.8406 3.48631 26.8689 3.95069 26.562 4.4183C26.3962 4.67096 26.1539 4.88472 25.8512 5.01514C25.5583 5.14139 25.2807 5.15928 25.0698 5.14029C24.684 5.10554 24.423 4.94172 24.3304 4.87932C24.213 4.80015 24.1358 4.72387 24.0995 4.6858L26.4498 2.44119ZM58.9676 1.20041C58.8993 1.17398 58.7973 1.13825 58.6736 1.11177C58.5926 1.09445 58.3097 1.03528 57.9609 1.11153C57.7727 1.15268 57.4471 1.25928 57.1541 1.55184C56.8252 1.88019 56.6738 2.30762 56.6755 2.71291C56.677 3.07025 56.7941 3.33992 56.8744 3.48765C56.9601 3.64539 57.0567 3.76146 57.1301 3.83858C57.3813 4.10213 57.7355 4.2988 58.1476 4.3486C58.3809 4.3768 58.6958 4.36389 59.0262 4.21636C59.3731 4.06149 59.6314 3.80479 59.7937 3.51931L56.9687 1.91253C57.1216 1.64375 57.3677 1.39763 57.7012 1.24872C58.0183 1.10717 58.3185 1.09561 58.5375 1.12208C58.9209 1.16841 59.2473 1.34923 59.4831 1.59664C59.5527 1.66973 59.6462 1.78174 59.7298 1.9356C59.808 2.07945 59.924 2.34542 59.9254 2.69941C59.9271 3.10135 59.7768 3.52579 59.4504 3.8517C59.1598 4.14183 58.838 4.24654 58.655 4.28654C58.3168 4.36049 58.0503 4.30198 57.9933 4.28978C57.8936 4.26843 57.8229 4.24229 57.7948 4.23143L58.9676 1.20041ZM42.866 0.755849C42.7977 0.729438 42.6957 0.693733 42.5721 0.667279C42.4912 0.649972 42.2083 0.590862 41.8597 0.66702C41.6716 0.708116 41.3461 0.814605 41.053 1.10705C40.724 1.43533 40.5724 1.86286 40.5741 2.26842C40.5756 2.62595 40.6928 2.89573 40.7731 3.04347C40.8589 3.20124 40.9555 3.3173 41.029 3.39439C41.2802 3.65789 41.6344 3.85437 42.0463 3.90413C42.2795 3.93231 42.5942 3.91943 42.9245 3.77204C43.2713 3.61729 43.5297 3.36072 43.6922 3.07519L40.8675 1.46771C41.0205 1.19888 41.2667 0.952885 41.6002 0.804103C41.9171 0.662679 42.2172 0.651155 42.4361 0.677597C42.8192 0.723887 43.1456 0.904525 43.3814 1.15189C43.4511 1.22495 43.5446 1.33696 43.6283 1.49085C43.7065 1.63471 43.8226 1.90079 43.8241 2.25497C43.8257 2.65718 43.6752 3.08172 43.3487 3.40757C43.0581 3.69758 42.7363 3.80218 42.5534 3.84213C42.2154 3.91599 41.949 3.85753 41.8921 3.84535C41.7924 3.82402 41.7217 3.7979 41.6937 3.78706L42.866 0.755849ZM52.618 69.361C52.6093 69.3999 52.5927 69.4657 52.5627 69.5463C52.5358 69.6186 52.4777 69.759 52.3656 69.9148C52.2599 70.0615 52.021 70.3397 51.5994 70.4898C51.3803 70.5679 51.142 70.5994 50.9008 70.576C50.6643 70.553 50.4642 70.4813 50.3078 70.3994C50.0144 70.2459 49.8433 70.0417 49.7662 69.9386C49.6796 69.8227 49.6262 69.7181 49.5958 69.6516C49.5352 69.5191 49.5044 69.402 49.4876 69.3164C49.4717 69.2355 49.4518 69.0995 49.4627 68.9279C49.4681 68.8443 49.4843 68.6889 49.5489 68.5042C49.6071 68.3379 49.7654 67.9747 50.1659 67.7028C50.3773 67.5594 50.6237 67.4654 50.8863 67.4346C51.1416 67.4047 51.3648 67.4398 51.5366 67.4911C51.8545 67.586 52.0587 67.754 52.141 67.8271C52.312 67.979 52.4014 68.1274 52.4134 68.1469L49.6521 69.8608C49.6883 69.9191 49.7968 70.0918 49.9828 70.257C50.0726 70.3368 50.2832 70.5086 50.6066 70.6052C50.7812 70.6573 51.0069 70.6927 51.2645 70.6625C51.5293 70.6315 51.7778 70.5367 51.9909 70.392C52.3952 70.1177 52.5561 69.7501 52.6163 69.5782C52.683 69.3879 52.7004 69.2254 52.7062 69.1339C52.7181 68.9464 52.6965 68.7909 52.6768 68.6905C52.6561 68.5854 52.6194 68.4488 52.5516 68.3005C52.5176 68.2261 52.4603 68.1145 52.3695 67.993C52.2882 67.8842 52.1127 67.6758 51.8147 67.5199C51.6559 67.4368 51.4535 67.3643 51.2146 67.3412C50.9711 67.3175 50.7304 67.3493 50.5089 67.4282C50.0824 67.5801 49.8386 67.8623 49.7281 68.0158C49.6111 68.1783 49.5482 68.3282 49.5166 68.4132C49.4819 68.5065 49.4607 68.5882 49.4475 68.6466L52.618 69.361ZM44.0829 13.0652C44.0691 13.0685 44.0186 13.0802 43.9452 13.0887C43.923 13.0913 43.6843 13.1249 43.388 13.0505C43.254 13.0168 42.8403 12.8977 42.5137 12.4843C42.3326 12.255 42.2082 11.9695 42.174 11.6536C42.1412 11.3506 42.1989 11.0938 42.2676 10.9105C42.3929 10.5763 42.5945 10.3748 42.6733 10.3008C42.7735 10.2067 42.8663 10.1439 42.9269 10.1065C43.1281 9.9825 43.3776 9.89186 43.6663 9.87898C43.8189 9.87216 44.1106 9.88146 44.4334 10.0396C44.8094 10.2237 45.1234 10.5629 45.2599 11.0078L42.1528 11.9609C42.2936 12.4201 42.6164 12.7685 43.0039 12.9583C43.3382 13.122 43.6438 13.1332 43.8112 13.1257C44.1294 13.1115 44.4113 13.0094 44.6326 12.873C44.6982 12.8325 44.7953 12.7666 44.8987 12.6693C44.9808 12.5923 45.1847 12.3878 45.311 12.0509C45.3802 11.8662 45.4381 11.6081 45.4052 11.3039C45.3708 10.9868 45.246 10.7001 45.064 10.4697C44.7358 10.0542 44.3189 9.93334 44.18 9.89844C43.8741 9.82156 43.6188 9.85482 43.5713 9.86031C43.4727 9.87173 43.3882 9.8897 43.3298 9.90361L44.0829 13.0652ZM62.6601 11.9428C62.4816 12.1305 61.985 12.5248 61.2535 12.3898C60.5643 12.2626 60.1284 11.7349 60.0002 11.202C59.9336 10.9252 59.9201 10.5266 60.1234 10.1176C60.3495 9.66263 60.7594 9.37085 61.1954 9.2696C61.5801 9.18028 61.8919 9.25597 62.0486 9.30858C62.2172 9.36516 62.3352 9.43794 62.3958 9.47914L60.569 12.1671C60.6686 12.2348 60.8192 12.3241 61.0144 12.3896C61.1978 12.4512 61.5304 12.5283 61.9305 12.4354C62.382 12.3305 62.8021 12.0302 63.0337 11.5641C63.2425 11.1441 63.2299 10.7319 63.16 10.4416C63.0253 9.88172 62.5667 9.32722 61.8432 9.19374C61.0775 9.05247 60.5353 9.46089 60.3047 9.70346L62.6601 11.9428ZM70.4263 11.4685C70.385 11.512 70.2626 11.6367 70.0632 11.7466C69.9025 11.835 69.3496 12.0982 68.6794 11.8225C67.9641 11.5282 67.7587 10.896 67.709 10.634C67.6551 10.3499 67.6899 10.1151 67.724 9.9723C67.7608 9.81865 67.8284 9.63937 67.9494 9.46C68.0547 9.30386 68.3155 8.97973 68.7989 8.82876C69.0586 8.74766 69.3465 8.73033 69.6334 8.79515C69.9124 8.85817 70.1288 8.9845 70.2815 9.10659C70.5612 9.33022 70.6858 9.58422 70.728 9.67707L67.7689 11.021C67.8234 11.1409 67.9604 11.4119 68.2519 11.645C68.4105 11.7718 68.6327 11.901 68.9172 11.9653C69.2097 12.0313 69.503 12.0137 69.7677 11.931C70.2613 11.7769 70.531 11.4445 70.6436 11.2776C70.7719 11.0874 70.8451 10.8948 70.885 10.7278C70.9223 10.5716 70.958 10.3234 70.902 10.0284C70.8503 9.7554 70.6398 9.11474 69.9159 8.81693C69.2373 8.53772 68.6722 8.80235 68.4954 8.89973C68.2797 9.0185 68.137 9.15967 68.0706 9.22951L70.4263 11.4685ZM79.706 7.20011C79.6478 7.33491 79.5023 7.61805 79.1806 7.84846C78.8034 8.11858 78.3255 8.21185 77.8727 8.10203C77.4833 8.00758 77.23 7.79412 77.0977 7.65518C76.9568 7.50717 76.8555 7.34297 76.7872 7.17866C76.7278 7.03594 76.6368 6.75767 76.676 6.39878C76.6969 6.20674 76.762 5.939 76.9437 5.67087C77.1374 5.38512 77.4164 5.17092 77.7375 5.05658C78.309 4.85303 78.7742 5.03798 78.8894 5.08654C79.0578 5.15758 79.1685 5.24017 79.208 5.27072L77.22 7.84175C77.296 7.90051 77.4355 8.0006 77.6265 8.08113C77.7641 8.13918 78.2454 8.32561 78.8278 8.11823C79.1542 8.00197 79.4373 7.78451 79.6339 7.49452C79.8185 7.22215 79.8852 6.94917 79.9068 6.75125C79.9472 6.38057 79.8534 6.08788 79.788 5.93081C79.7138 5.75215 79.6034 5.57366 79.4515 5.41412C79.3082 5.26364 79.042 5.0414 78.6388 4.94361C78.1723 4.83045 77.6797 4.92583 77.2883 5.20619C76.9522 5.44684 76.7928 5.74835 76.722 5.91236L79.706 7.20011ZM16.0223 6.47876C15.9827 6.50934 15.8721 6.59193 15.7036 6.66296C15.5883 6.71157 15.1233 6.89628 14.5521 6.69297C14.2313 6.57878 13.9524 6.36484 13.7586 6.07931C13.5767 5.81135 13.5115 5.54368 13.4904 5.35156C13.4511 4.99251 13.542 4.71406 13.6014 4.57119C13.6697 4.40674 13.7711 4.24241 13.9121 4.0943C14.0445 3.95523 14.2978 3.74179 14.6872 3.64738C15.1399 3.53763 15.6175 3.63088 15.9945 3.90062C16.3161 4.13078 16.4617 4.41364 16.5199 4.54845L13.5367 5.83796C13.6076 6.00196 13.7672 6.30321 14.1031 6.54361C14.4944 6.82359 14.9866 6.91895 15.453 6.80586C15.8562 6.70811 16.1225 6.48589 16.2659 6.33528C16.4179 6.17564 16.5283 5.99703 16.6026 5.81822C16.6679 5.661 16.7617 5.36813 16.7211 4.9973C16.6994 4.79929 16.6325 4.52638 16.4477 4.25418C16.251 3.96441 15.9681 3.74722 15.6419 3.63111C15.0598 3.42396 14.5788 3.61015 14.441 3.66825C14.25 3.74877 14.1104 3.84887 14.0344 3.90765L16.0223 6.47876ZM24.6066 5.30184C24.5926 5.30519 24.5417 5.31705 24.4678 5.32555C24.4451 5.32816 24.2056 5.36161 23.9086 5.28635C23.7733 5.25206 23.3622 5.13217 23.0373 4.72071C22.8575 4.4929 22.7335 4.2095 22.6985 3.89568C22.6648 3.59432 22.7209 3.33818 22.7888 3.15432C22.9127 2.81899 23.1139 2.61629 23.1933 2.54125C23.2938 2.4462 23.387 2.3828 23.4479 2.34506C23.6504 2.21965 23.9016 2.12831 24.192 2.11567C24.346 2.10897 24.6378 2.11901 24.9603 2.27779C25.3351 2.4623 25.6464 2.80014 25.7827 3.24109L22.6777 4.20099C22.8184 4.6562 23.1386 5.0034 23.5248 5.19356C23.8588 5.35798 24.1646 5.36994 24.3334 5.36259C24.6532 5.34867 24.9368 5.2458 25.1593 5.10796C25.2253 5.06711 25.3228 5.00055 25.4265 4.90242C25.5091 4.8243 25.7126 4.61861 25.8375 4.28053C25.9059 4.09529 25.9622 3.83783 25.9284 3.53524C25.8933 3.22018 25.7688 2.93561 25.5881 2.70673C25.2615 2.29314 24.8472 2.17148 24.7071 2.13596C24.4004 2.05823 24.1444 2.09132 24.0964 2.09684C23.9972 2.10824 23.9124 2.12628 23.8538 2.14024L24.6066 5.30184ZM60.5255 4.22594C60.4649 4.2671 60.347 4.33988 60.1784 4.39648C60.0217 4.44907 59.7097 4.52489 59.3247 4.4354C58.8881 4.33392 58.4781 4.0415 58.2523 3.5861C58.0494 3.17694 58.0633 2.77848 58.13 2.50206C58.2584 1.97014 58.6937 1.44253 59.383 1.31532C60.1151 1.18021 60.6121 1.57515 60.7906 1.76327L58.4334 4.00069C58.6641 4.24367 59.2066 4.65277 59.9729 4.51135C60.6963 4.37783 61.1544 3.82345 61.2893 3.26454C61.3593 2.97462 61.3724 2.5626 61.164 2.14237C60.9327 1.67589 60.5126 1.37487 60.0605 1.26979C59.66 1.17671 59.3273 1.25395 59.144 1.31549C58.9487 1.38103 58.7982 1.4703 58.6986 1.53801L60.5255 4.22594ZM45.502 3.40859C45.4607 3.45204 45.3383 3.57685 45.1389 3.68676C44.9783 3.77524 44.425 4.0387 43.7546 3.76276C43.0391 3.46828 42.8339 2.83588 42.7843 2.57415C42.7305 2.2902 42.7653 2.05554 42.7994 1.91276C42.8361 1.75919 42.9037 1.57996 43.0246 1.40062C43.1298 1.24456 43.3905 0.920257 43.8741 0.769169C44.1338 0.687995 44.4219 0.670637 44.709 0.73552C44.988 0.798597 45.2045 0.92503 45.3572 1.04717C45.6368 1.27088 45.7615 1.52493 45.8036 1.61772L42.8442 2.96099C42.8986 3.08087 43.0355 3.35192 43.327 3.58509C43.4856 3.71195 43.7078 3.84122 43.9925 3.90556C44.2851 3.9717 44.5785 3.95402 44.8434 3.87126C45.337 3.717 45.6067 3.38448 45.7192 3.21765C45.8474 3.02753 45.9205 2.83498 45.9604 2.66804C45.9977 2.51189 46.0334 2.26382 45.9775 1.96892C45.9258 1.69624 45.7156 1.05536 44.9916 0.757365C44.3126 0.477906 43.7473 0.742826 43.5705 0.840233C43.3548 0.959065 43.2121 1.10029 43.1458 1.17012L45.502 3.40859ZM51.418 84.0555C51.2121 84.2811 51.0262 84.504 50.8862 84.7174C50.8188 84.8202 50.7243 84.9772 50.652 85.1707C50.615 85.2699 50.5693 85.4169 50.5485 85.5977C50.528 85.776 50.5247 86.0504 50.634 86.3583C50.7528 86.6925 50.9777 86.9873 51.286 87.1904C51.5717 87.3787 51.8536 87.4397 52.0442 87.4588C52.2355 87.478 52.3958 87.4614 52.5025 87.4441C52.6138 87.426 52.7085 87.4 52.7807 87.3769C53.0388 87.2943 53.2569 87.167 53.3945 87.078C53.55 86.9774 53.7121 86.854 53.8605 86.7155C53.9356 86.6454 54.0193 86.5602 54.101 86.4611C54.1783 86.3674 54.282 86.2276 54.3704 86.0475C54.451 85.8831 54.5809 85.5607 54.5539 85.1439C54.5396 84.9222 54.4806 84.6815 54.3554 84.4475C54.2302 84.2136 54.0622 84.0305 53.8847 83.8949C53.551 83.6399 53.2061 83.5666 53.015 83.5407C52.8066 83.5125 52.6162 83.5196 52.47 83.533L52.766 86.7695C52.7625 86.7698 52.7454 86.7713 52.7171 86.7713C52.6896 86.7713 52.6419 86.7698 52.5794 86.7614C52.4804 86.748 52.2014 86.6989 51.9115 86.4773C51.7558 86.3583 51.6041 86.1943 51.4901 85.9814C51.3762 85.7685 51.3234 85.5507 51.3107 85.3537C51.2869 84.9862 51.4016 84.7199 51.4527 84.6158C51.5115 84.496 51.5712 84.4206 51.5939 84.393C51.621 84.3601 51.6396 84.3428 51.6429 84.3397C51.6477 84.3352 51.6396 84.3425 51.6293 84.3492C51.601 84.3675 51.6577 84.324 51.7899 84.2816C51.8307 84.2686 51.8962 84.25 51.9809 84.2362C52.061 84.2232 52.1974 84.2079 52.3682 84.225C52.5381 84.242 52.8026 84.2976 53.0745 84.4768C53.3689 84.6709 53.5838 84.9529 53.6966 85.2704C53.8 85.5616 53.7949 85.8152 53.7773 85.9685C53.7594 86.1244 53.7212 86.2421 53.6968 86.3074C53.6709 86.3767 53.6457 86.4263 53.6317 86.4522C53.617 86.4796 53.6064 86.4959 53.604 86.4995C53.6003 86.5053 53.6121 86.4868 53.6508 86.4391C53.6881 86.3932 53.7423 86.33 53.8181 86.247L51.418 84.0555Z" fill="#363636" mask="url(#path-1-outside-1_23_6642)"/>
</svg>
