<svg width="112" height="121" viewBox="0 0 112 121" fill="none" xmlns="http://www.w3.org/2000/svg">
<mask id="path-1-outside-1_23_6317" maskUnits="userSpaceOnUse" x="0" y="0" width="112" height="121" fill="black">
<rect fill="white" width="112" height="121"/>
<path d="M71.4409 117.288C73.6505 117.365 71.3968 118.476 71.4409 117.288ZM71.1248 115.779C70.3746 114.156 70.4305 112.283 70.1348 110.445C69.9001 106.757 69.445 103.113 69.1753 99.593C68.1252 92.9425 69.1644 86.0247 66.7596 79.4593C65.257 75.5987 65.3428 71.5811 66.1266 67.6407C67.3191 64.329 63.1649 62.194 59.7543 60.8721C56.966 59.6033 52.2796 57.7724 54.1094 54.8959C57.6448 51.8391 63.6748 51.3491 68.5188 49.8841C70.7852 49.1789 74.1836 48.8891 75.3717 47.1922C72.3892 45.1665 67.8539 44.7695 63.9836 44.1048C58.3394 43.1526 52.1527 43.3296 46.9784 41.2451C42.9128 38.9737 48.1115 36.6755 51.178 36.2704C64.7515 33.2865 79.1591 33.5767 93.0067 31.6425C96.2136 30.9165 91.8141 29.9963 90.6308 29.6479C77.862 27.0545 64.3634 26.6873 51.2151 26.4994C38.6451 26.325 26.0366 27.0704 13.7422 27.2154C10.524 27.0831 6.42096 27.4651 4.1631 25.3908C3.41269 23.7552 5.08333 22.7362 6.28267 21.9235C13.6516 18.4427 22.7077 17.7643 31.3965 16.9384C53.4384 15.2193 75.6853 15.4336 97.7066 13.6093C101.244 12.9989 105.731 13.3216 108.31 11.1557C108.549 9.76206 106.38 9.11044 105.356 8.54777C101.927 7.31709 98.1387 6.5007 94.4662 5.86456C91.0935 5.16312 87.0759 4.81777 83.3236 4.30793C82.2793 4.2717 79.8887 3.92524 78.5985 3.9806C77.1384 3.75045 74.8384 3.68494 73.9993 3.66467C70.9655 3.45658 67.3576 3.37128 64.3987 3.35542C63.3728 3.28767 62.153 3.38506 61.0419 3.32334C59.5698 3.45303 56.5251 3.33666 54.5134 3.50871C52.3764 3.527 49.396 3.73145 47.8634 3.83744C45.6072 3.98325 43.158 4.16511 41.3921 4.40439C38.3546 4.66956 35.2036 5.02961 32.3641 5.46001C31.2719 5.68499 30.019 5.7283 29.816 5.8777C28.9738 5.93194 27.3563 6.2221 26.3623 6.34863C24.883 6.65663 22.5451 6.89507 21.1636 7.22232C19.3483 7.50159 19.5498 7.5807 17.9285 7.80889C16.2401 8.17026 14.4066 8.42856 13.0799 8.83152C11.5079 9.19256 10.9847 9.24048 9.37899 9.57575C8.57844 9.75302 7.08924 10.3253 8.44903 10.1127C9.43142 9.8462 11.9994 10.6987 9.96181 10.7117C2.88084 11.7006 1.47807 9.85131 4.50453 9.19297C11.9095 7.58217 26.8559 5.5942 37.4895 4.44771C56.3142 2.3526 75.7993 2.40331 94.3889 5.44615C99.4112 6.5582 105.101 7.14069 108.76 10.077C110.082 12.4578 105.623 12.9913 103.425 13.4173C100.298 13.701 97.5139 14.2211 94.5025 14.2406C85.4771 15.1478 76.5539 15.2201 67.5011 15.6272C63.5538 15.6463 59.4716 15.9596 55.4138 15.9965C53.198 16.0749 50.9693 16.3197 49.1905 16.2592C44.1387 16.6364 39.5085 16.68 34.5885 17.0525C32.8799 17.2378 30.0824 17.3048 28.9628 17.5685C26.5574 17.5852 22.8912 18.2997 20.4779 18.5097C18.0546 18.9339 15.3883 19.3375 12.8312 20.0743C12.4294 20.2033 11.0422 20.4894 10.6026 20.7263C9.0326 21.1879 7.78974 21.6823 6.42154 22.4387C5.46128 23.0629 4.8046 23.675 4.56298 24.3364C4.50885 26.272 8.24885 26.3931 10.2213 26.6074C23.9311 26.9891 37.6834 25.7229 51.4275 26.0696C65.0211 26.3537 78.9487 26.6183 92.0166 29.5303C97.5489 30.2955 93.498 33.1461 89.8856 32.6261C76.5905 34.0307 62.8589 34.0385 50.0432 37.1532C47.9369 37.459 44.6369 39.076 47.1452 40.5996C51.5604 42.766 57.3287 42.5037 62.3682 43.3538C66.9742 44.1673 72.4295 44.3665 76.0237 46.8321C76.5477 48.8122 72.5243 49.3852 70.6688 49.9821C65.3803 51.4872 59.1729 52.1356 54.9363 55.0559C53.1971 57.4867 57.4668 59.1312 59.8188 60.19C63.1127 61.5981 67.2327 63.2617 67.0725 66.4591C66.9109 70.2179 65.5844 74.0602 67.2582 77.7266C68.667 82.6896 69.8464 88.1102 69.583 93.3693C69.7997 97.5923 70.4773 101.688 70.741 105.895C70.871 107.276 71.25 109.339 71.118 110.425C71.461 112.363 71.265 113.689 71.9858 115.446C72.0623 115.633 72.0106 115.688 71.7069 115.791C71.5406 115.847 71.3064 115.832 71.1248 115.779ZM71.0156 107.992C70.8565 108.068 70.8867 107.853 71.0156 107.992ZM11.3669 20.4668C11.1545 20.6112 11.2253 20.3177 11.3669 20.4668ZM43.3325 16.5206C43.1962 16.664 43.2656 16.3734 43.3325 16.5206ZM59.329 15.8763C59.1928 16.0197 59.2622 15.7291 59.329 15.8763ZM62.6571 15.7312C62.6059 15.8222 62.4379 15.6468 62.6571 15.7312ZM11.2691 10.0131C11.2174 10.1039 11.0503 9.92847 11.2691 10.0131ZM34.6296 5.12475C34.5173 5.20241 34.4768 4.96467 34.6296 5.12475ZM79.6206 3.97292C79.569 4.06369 79.4019 3.88827 79.6206 3.97292ZM57.7393 3.3689C57.6877 3.45963 57.5205 3.28428 57.7393 3.3689ZM69.6343 94.0565C69.7654 94.2678 69.6822 93.8438 69.6343 94.0565ZM59.6778 15.889C59.7015 15.9662 59.9202 15.8313 59.6778 15.889ZM83.835 14.9904C84.0474 15.1347 83.9768 14.8413 83.835 14.9904ZM94.3889 14.3461C94.4558 14.4933 94.5253 14.2027 94.3889 14.3461ZM106.573 9.19181C106.771 9.34512 106.641 9.03306 106.573 9.19181ZM20.7052 7.33948C20.7738 7.49822 20.9034 7.18618 20.7052 7.33948ZM33.2103 5.33885C33.2342 5.41636 33.4525 5.28117 33.2103 5.33885ZM81.2933 4.19858C81.4348 4.34772 81.5057 4.05423 81.2933 4.19858ZM60.517 3.39323C60.5839 3.54044 60.6533 3.24979 60.517 3.39323ZM71.7886 116C73.3991 115.853 69.7934 118.186 71.7886 116Z"/>
</mask>
<path d="M71.4409 117.288C73.6505 117.365 71.3968 118.476 71.4409 117.288ZM71.1248 115.779C70.3746 114.156 70.4305 112.283 70.1348 110.445C69.9001 106.757 69.445 103.113 69.1753 99.593C68.1252 92.9425 69.1644 86.0247 66.7596 79.4593C65.257 75.5987 65.3428 71.5811 66.1266 67.6407C67.3191 64.329 63.1649 62.194 59.7543 60.8721C56.966 59.6033 52.2796 57.7724 54.1094 54.8959C57.6448 51.8391 63.6748 51.3491 68.5188 49.8841C70.7852 49.1789 74.1836 48.8891 75.3717 47.1922C72.3892 45.1665 67.8539 44.7695 63.9836 44.1048C58.3394 43.1526 52.1527 43.3296 46.9784 41.2451C42.9128 38.9737 48.1115 36.6755 51.178 36.2704C64.7515 33.2865 79.1591 33.5767 93.0067 31.6425C96.2136 30.9165 91.8141 29.9963 90.6308 29.6479C77.862 27.0545 64.3634 26.6873 51.2151 26.4994C38.6451 26.325 26.0366 27.0704 13.7422 27.2154C10.524 27.0831 6.42096 27.4651 4.1631 25.3908C3.41269 23.7552 5.08333 22.7362 6.28267 21.9235C13.6516 18.4427 22.7077 17.7643 31.3965 16.9384C53.4384 15.2193 75.6853 15.4336 97.7066 13.6093C101.244 12.9989 105.731 13.3216 108.31 11.1557C108.549 9.76206 106.38 9.11044 105.356 8.54777C101.927 7.31709 98.1387 6.5007 94.4662 5.86456C91.0935 5.16312 87.0759 4.81777 83.3236 4.30793C82.2793 4.2717 79.8887 3.92524 78.5985 3.9806C77.1384 3.75045 74.8384 3.68494 73.9993 3.66467C70.9655 3.45658 67.3576 3.37128 64.3987 3.35542C63.3728 3.28767 62.153 3.38506 61.0419 3.32334C59.5698 3.45303 56.5251 3.33666 54.5134 3.50871C52.3764 3.527 49.396 3.73145 47.8634 3.83744C45.6072 3.98325 43.158 4.16511 41.3921 4.40439C38.3546 4.66956 35.2036 5.02961 32.3641 5.46001C31.2719 5.68499 30.019 5.7283 29.816 5.8777C28.9738 5.93194 27.3563 6.2221 26.3623 6.34863C24.883 6.65663 22.5451 6.89507 21.1636 7.22232C19.3483 7.50159 19.5498 7.5807 17.9285 7.80889C16.2401 8.17026 14.4066 8.42856 13.0799 8.83152C11.5079 9.19256 10.9847 9.24048 9.37899 9.57575C8.57844 9.75302 7.08924 10.3253 8.44903 10.1127C9.43142 9.8462 11.9994 10.6987 9.96181 10.7117C2.88084 11.7006 1.47807 9.85131 4.50453 9.19297C11.9095 7.58217 26.8559 5.5942 37.4895 4.44771C56.3142 2.3526 75.7993 2.40331 94.3889 5.44615C99.4112 6.5582 105.101 7.14069 108.76 10.077C110.082 12.4578 105.623 12.9913 103.425 13.4173C100.298 13.701 97.5139 14.2211 94.5025 14.2406C85.4771 15.1478 76.5539 15.2201 67.5011 15.6272C63.5538 15.6463 59.4716 15.9596 55.4138 15.9965C53.198 16.0749 50.9693 16.3197 49.1905 16.2592C44.1387 16.6364 39.5085 16.68 34.5885 17.0525C32.8799 17.2378 30.0824 17.3048 28.9628 17.5685C26.5574 17.5852 22.8912 18.2997 20.4779 18.5097C18.0546 18.9339 15.3883 19.3375 12.8312 20.0743C12.4294 20.2033 11.0422 20.4894 10.6026 20.7263C9.0326 21.1879 7.78974 21.6823 6.42154 22.4387C5.46128 23.0629 4.8046 23.675 4.56298 24.3364C4.50885 26.272 8.24885 26.3931 10.2213 26.6074C23.9311 26.9891 37.6834 25.7229 51.4275 26.0696C65.0211 26.3537 78.9487 26.6183 92.0166 29.5303C97.5489 30.2955 93.498 33.1461 89.8856 32.6261C76.5905 34.0307 62.8589 34.0385 50.0432 37.1532C47.9369 37.459 44.6369 39.076 47.1452 40.5996C51.5604 42.766 57.3287 42.5037 62.3682 43.3538C66.9742 44.1673 72.4295 44.3665 76.0237 46.8321C76.5477 48.8122 72.5243 49.3852 70.6688 49.9821C65.3803 51.4872 59.1729 52.1356 54.9363 55.0559C53.1971 57.4867 57.4668 59.1312 59.8188 60.19C63.1127 61.5981 67.2327 63.2617 67.0725 66.4591C66.9109 70.2179 65.5844 74.0602 67.2582 77.7266C68.667 82.6896 69.8464 88.1102 69.583 93.3693C69.7997 97.5923 70.4773 101.688 70.741 105.895C70.871 107.276 71.25 109.339 71.118 110.425C71.461 112.363 71.265 113.689 71.9858 115.446C72.0623 115.633 72.0106 115.688 71.7069 115.791C71.5406 115.847 71.3064 115.832 71.1248 115.779ZM71.0156 107.992C70.8565 108.068 70.8867 107.853 71.0156 107.992ZM11.3669 20.4668C11.1545 20.6112 11.2253 20.3177 11.3669 20.4668ZM43.3325 16.5206C43.1962 16.664 43.2656 16.3734 43.3325 16.5206ZM59.329 15.8763C59.1928 16.0197 59.2622 15.7291 59.329 15.8763ZM62.6571 15.7312C62.6059 15.8222 62.4379 15.6468 62.6571 15.7312ZM11.2691 10.0131C11.2174 10.1039 11.0503 9.92847 11.2691 10.0131ZM34.6296 5.12475C34.5173 5.20241 34.4768 4.96467 34.6296 5.12475ZM79.6206 3.97292C79.569 4.06369 79.4019 3.88827 79.6206 3.97292ZM57.7393 3.3689C57.6877 3.45963 57.5205 3.28428 57.7393 3.3689ZM69.6343 94.0565C69.7654 94.2678 69.6822 93.8438 69.6343 94.0565ZM59.6778 15.889C59.7015 15.9662 59.9202 15.8313 59.6778 15.889ZM83.835 14.9904C84.0474 15.1347 83.9768 14.8413 83.835 14.9904ZM94.3889 14.3461C94.4558 14.4933 94.5253 14.2027 94.3889 14.3461ZM106.573 9.19181C106.771 9.34512 106.641 9.03306 106.573 9.19181ZM20.7052 7.33948C20.7738 7.49822 20.9034 7.18618 20.7052 7.33948ZM33.2103 5.33885C33.2342 5.41636 33.4525 5.28117 33.2103 5.33885ZM81.2933 4.19858C81.4348 4.34772 81.5057 4.05423 81.2933 4.19858ZM60.517 3.39323C60.5839 3.54044 60.6533 3.24979 60.517 3.39323ZM71.7886 116C73.3991 115.853 69.7934 118.186 71.7886 116Z" fill="white"/>
<path d="M71.4409 117.288L71.5177 115.081L69.3157 115.004L69.2341 117.206L71.4409 117.288ZM71.1248 115.779L69.1202 116.706L69.544 117.623L70.5148 117.902L71.1248 115.779ZM70.1348 110.445L67.9309 110.586L67.9377 110.692L67.9545 110.796L70.1348 110.445ZM69.1753 99.593L71.3772 99.4243L71.3705 99.3361L71.3566 99.2486L69.1753 99.593ZM66.7596 79.4593L68.8332 78.6998L68.8256 78.679L68.8176 78.6583L66.7596 79.4593ZM66.1266 67.6407L64.0488 66.8925L63.9929 67.0479L63.9607 67.2099L66.1266 67.6407ZM59.7543 60.8721L58.8396 62.8821L58.8972 62.9083L58.9562 62.9312L59.7543 60.8721ZM54.1094 54.8959L52.6651 53.2254L52.42 53.4373L52.2461 53.7107L54.1094 54.8959ZM68.5188 49.8841L69.158 51.9979L69.1664 51.9954L69.1748 51.9927L68.5188 49.8841ZM75.3717 47.1922L77.1807 48.4588L78.4654 46.624L76.6125 45.3654L75.3717 47.1922ZM63.9836 44.1048L64.3574 41.9283L64.3509 41.9272L63.9836 44.1048ZM46.9784 41.2451L45.9013 43.173L46.0234 43.2412L46.1532 43.2935L46.9784 41.2451ZM51.178 36.2704L51.4672 38.4597L51.5604 38.4474L51.6522 38.4272L51.178 36.2704ZM93.0067 31.6425L93.3122 33.8296L93.404 33.8168L93.4944 33.7963L93.0067 31.6425ZM90.6308 29.6479L91.2545 27.5295L91.1634 27.5027L91.0703 27.4838L90.6308 29.6479ZM51.2151 26.4994L51.2466 24.2913L51.2457 24.2913L51.2151 26.4994ZM13.7422 27.2154L13.6515 29.4219L13.7099 29.4243L13.7683 29.4236L13.7422 27.2154ZM4.1631 25.3908L2.15593 26.3117L2.34145 26.7161L2.66908 27.0171L4.1631 25.3908ZM6.28267 21.9235L5.33947 19.9267L5.18516 19.9996L5.04387 20.0953L6.28267 21.9235ZM31.3965 16.9384L31.2248 14.7367L31.2061 14.7382L31.1875 14.74L31.3965 16.9384ZM97.7066 13.6093L97.8889 15.8101L97.9861 15.802L98.0821 15.7854L97.7066 13.6093ZM108.31 11.1557L109.73 12.8467L110.349 12.3268L110.486 11.53L108.31 11.1557ZM105.356 8.54777L106.419 6.61245L106.266 6.52831L106.102 6.46928L105.356 8.54777ZM94.4662 5.86456L94.0165 8.02663L94.0528 8.03417L94.0893 8.04049L94.4662 5.86456ZM83.3236 4.30793L83.6209 2.1197L83.511 2.10477L83.4001 2.10092L83.3236 4.30793ZM78.5985 3.9806L78.2546 6.162L78.4727 6.19637L78.6932 6.18691L78.5985 3.9806ZM73.9993 3.66467L73.8482 5.86783L73.897 5.87118L73.946 5.87236L73.9993 3.66467ZM64.3987 3.35542L64.2532 5.55895L64.3199 5.56336L64.3868 5.56372L64.3987 3.35542ZM61.0419 3.32334L61.1644 1.11841L61.006 1.10961L60.8481 1.12353L61.0419 3.32334ZM54.5134 3.50871L54.5323 5.71697L54.6171 5.71624L54.7016 5.70901L54.5134 3.50871ZM47.8634 3.83744L48.0058 6.0412L48.0157 6.04051L47.8634 3.83744ZM41.3921 4.40439L41.5841 6.60436L41.6365 6.59979L41.6886 6.59273L41.3921 4.40439ZM32.3641 5.46001L32.0332 3.27662L31.9756 3.28534L31.9186 3.29708L32.3641 5.46001ZM29.816 5.8777L29.9579 8.08147L30.6035 8.03989L31.1247 7.65647L29.816 5.8777ZM26.3623 6.34863L26.0835 4.15797L25.9972 4.16894L25.9121 4.18666L26.3623 6.34863ZM21.1636 7.22232L21.4994 9.40498L21.5867 9.39154L21.6726 9.37118L21.1636 7.22232ZM17.9285 7.80889L17.6207 5.62211L17.5431 5.63304L17.4664 5.64946L17.9285 7.80889ZM13.0799 8.83152L13.5742 10.9838L13.6486 10.9667L13.7216 10.9445L13.0799 8.83152ZM9.37899 9.57575L8.92762 7.41404L8.91458 7.41676L8.90157 7.41964L9.37899 9.57575ZM8.44903 10.1127L8.79019 12.2945L8.9101 12.2758L9.02724 12.244L8.44903 10.1127ZM9.96181 10.7117L9.94778 8.50338L9.80137 8.50431L9.65637 8.52456L9.96181 10.7117ZM4.50453 9.19297L4.03513 7.0351L4.03513 7.0351L4.50453 9.19297ZM37.4895 4.44771L37.7262 6.64333L37.7337 6.64249L37.4895 4.44771ZM94.3889 5.44615L94.8663 3.29004L94.8063 3.27675L94.7456 3.26682L94.3889 5.44615ZM108.76 10.077L110.69 9.00499L110.48 8.62613L110.142 8.35487L108.76 10.077ZM103.425 13.4173L103.625 15.6166L103.736 15.6065L103.845 15.5853L103.425 13.4173ZM94.5025 14.2406L94.4883 12.0323L94.3847 12.0329L94.2817 12.0433L94.5025 14.2406ZM67.5011 15.6272L67.5118 17.8356L67.5561 17.8353L67.6004 17.8333L67.5011 15.6272ZM55.4138 15.9965L55.3937 13.7882L55.3647 13.7885L55.3356 13.7895L55.4138 15.9965ZM49.1905 16.2592L49.2656 14.0521L49.1457 14.0481L49.0261 14.057L49.1905 16.2592ZM34.5885 17.0525L34.4218 14.8504L34.386 14.8532L34.3504 14.857L34.5885 17.0525ZM28.9628 17.5685L28.9781 19.7768L29.2268 19.775L29.4689 19.718L28.9628 17.5685ZM20.4779 18.5097L20.2865 16.3096L20.1913 16.3179L20.0971 16.3344L20.4779 18.5097ZM12.8312 20.0743L12.2198 17.9522L12.1877 17.9615L12.1559 17.9717L12.8312 20.0743ZM10.6026 20.7263L11.2255 22.8449L11.447 22.7798L11.6502 22.6703L10.6026 20.7263ZM6.42154 22.4387L5.35311 20.5061L5.28411 20.5442L5.218 20.5872L6.42154 22.4387ZM4.56298 24.3364L2.48873 23.5787L2.36555 23.9159L2.35551 24.2747L4.56298 24.3364ZM10.2213 26.6074L9.98286 28.8028L10.0711 28.8124L10.1599 28.8149L10.2213 26.6074ZM51.4275 26.0696L51.3718 28.2772L51.3814 28.2774L51.4275 26.0696ZM92.0166 29.5303L91.5363 31.6857L91.6245 31.7054L91.7141 31.7178L92.0166 29.5303ZM89.8856 32.6261L90.2003 30.4403L89.9276 30.401L89.6536 30.43L89.8856 32.6261ZM50.0432 37.1532L50.3604 39.3386L50.4635 39.3237L50.5647 39.2991L50.0432 37.1532ZM47.1452 40.5996L45.9987 42.487L46.0835 42.5385L46.1725 42.5822L47.1452 40.5996ZM62.3682 43.3538L62.7523 41.1791L62.7439 41.1777L62.7355 41.1763L62.3682 43.3538ZM76.0237 46.8321L78.1585 46.2672L77.9488 45.4748L77.2729 45.0111L76.0237 46.8321ZM70.6688 49.9821L71.2733 52.1061L71.3094 52.0958L71.3451 52.0843L70.6688 49.9821ZM54.9363 55.0559L53.683 53.2376L53.365 53.4568L53.1403 53.7709L54.9363 55.0559ZM59.8188 60.19L58.9123 62.2037L58.9314 62.2123L58.9507 62.2205L59.8188 60.19ZM67.0725 66.4591L64.8669 66.3486L64.8665 66.3564L64.8662 66.3643L67.0725 66.4591ZM67.2582 77.7266L69.3826 77.1236L69.3368 76.9622L69.2671 76.8095L67.2582 77.7266ZM69.583 93.3693L67.3775 93.2588L67.3719 93.3706L67.3776 93.4824L69.583 93.3693ZM70.741 105.895L68.537 106.033L68.5392 106.068L68.5424 106.102L70.741 105.895ZM71.118 110.425L68.9258 110.158L68.8861 110.485L68.9435 110.809L71.118 110.425ZM71.9858 115.446L69.9426 116.284L69.9427 116.284L71.9858 115.446ZM71.7069 115.791L72.4115 117.884L72.4117 117.883L71.7069 115.791ZM71.0156 107.992L71.9749 109.981L74.6742 108.679L72.6314 106.486L71.0156 107.992ZM11.3669 20.4668L12.6082 22.2933L14.7588 20.8317L12.9683 18.9462L11.3669 20.4668ZM43.3325 16.5206L44.9335 18.0416L45.9583 16.9628L45.3433 15.6078L43.3325 16.5206ZM59.329 15.8763L60.9301 17.3973L61.9549 16.3185L61.3399 14.9635L59.329 15.8763ZM62.6571 15.7312L64.5827 16.8122L65.8321 14.5867L63.4501 13.6701L62.6571 15.7312ZM11.2691 10.0131L13.1884 11.1053L14.4559 8.87802L12.0657 7.95348L11.2691 10.0131ZM34.6296 5.12475L35.8852 6.9414L38.0134 5.47049L36.2267 3.59957L34.6296 5.12475ZM79.6206 3.97292L81.5402 5.0647L82.8068 2.83783L80.4175 1.91337L79.6206 3.97292ZM57.7393 3.3689L59.6586 4.46116L60.9262 2.23369L58.5359 1.30923L57.7393 3.3689ZM69.6343 94.0565L67.48 93.5711L67.2812 94.453L67.758 95.2211L69.6343 94.0565ZM59.6778 15.889L59.1662 13.7408L56.8763 14.2862L57.5666 16.5367L59.6778 15.889ZM83.835 14.9904L82.2346 13.4688L80.4419 15.3544L82.5937 16.8168L83.835 14.9904ZM94.3889 14.3461L92.7883 12.8247L91.7626 13.9038L92.3782 15.2593L94.3889 14.3461ZM106.573 9.19181L104.545 8.3168L103.866 9.89041L105.222 10.9388L106.573 9.19181ZM20.7052 7.33948L19.3544 5.59245L17.9976 6.64146L18.6781 8.21568L20.7052 7.33948ZM33.2103 5.33885L32.6987 3.19058L30.4036 3.73708L31.1004 5.99108L33.2103 5.33885ZM81.2933 4.19858L80.0519 2.37217L77.9019 3.83343L79.6916 5.71888L81.2933 4.19858ZM60.517 3.39323L58.916 1.87222L57.8911 2.95101L58.5062 4.30597L60.517 3.39323ZM71.7886 116L71.5875 113.801L70.735 113.879L70.1578 114.511L71.7886 116ZM69.2341 117.206C69.2158 117.697 69.3115 118.278 69.6575 118.82C70.0089 119.371 70.5065 119.705 70.9818 119.876C71.8239 120.181 72.6606 120.023 73.2295 119.743C73.491 119.614 74.0515 119.287 74.3853 118.602C74.5757 118.212 74.6909 117.694 74.5757 117.124C74.463 116.566 74.1704 116.158 73.8986 115.897C73.418 115.434 72.8556 115.274 72.5812 115.209C72.2409 115.129 71.8782 115.093 71.5177 115.081L71.3641 119.495C71.5559 119.501 71.6061 119.517 71.5657 119.508C71.5431 119.502 71.464 119.483 71.3526 119.433C71.2487 119.386 71.0467 119.282 70.8351 119.078C70.6134 118.865 70.3492 118.507 70.2464 117.998C70.1413 117.478 70.2482 117.01 70.4152 116.667C70.7022 116.078 71.1557 115.841 71.2764 115.781C71.5636 115.64 71.9832 115.542 72.4842 115.723C72.7889 115.833 73.135 116.06 73.3802 116.444C73.62 116.819 73.6549 117.175 73.6477 117.37L69.2341 117.206ZM73.1294 114.853C72.8946 114.345 72.7561 113.732 72.6494 112.909C72.5646 112.255 72.4609 111 72.3151 110.095L67.9545 110.796C68.1045 111.728 68.1206 112.329 68.2693 113.477C68.3961 114.455 68.6048 115.591 69.1202 116.706L73.1294 114.853ZM72.3387 110.305C72.109 106.696 71.6285 102.705 71.3772 99.4243L66.9735 99.7617C67.2615 103.521 67.6911 106.817 67.9309 110.586L72.3387 110.305ZM71.3566 99.2486C70.8559 96.0773 70.8606 92.9122 70.6809 89.382C70.5062 85.9475 70.1536 82.3047 68.8332 78.6998L64.686 80.2189C65.7704 83.1794 66.1006 86.2781 66.27 89.6065C66.4345 92.8392 66.4447 96.4583 66.994 99.9375L71.3566 99.2486ZM68.8176 78.6583C67.5209 75.327 67.5563 71.7728 68.2925 68.0715L63.9607 67.2099C63.1294 71.3894 62.993 75.8704 64.7017 80.2603L68.8176 78.6583ZM68.2043 68.3889C68.6841 67.0565 68.6415 65.7436 68.1635 64.5506C67.7089 63.4159 66.9148 62.5195 66.0927 61.8241C64.4767 60.4573 62.2875 59.4855 60.5523 58.813L58.9562 62.9312C60.6316 63.5805 62.2248 64.3372 63.2404 65.1963C63.7341 65.6139 63.9681 65.9547 64.0637 66.1931C64.1358 66.3732 64.1653 66.569 64.0488 66.8925L68.2043 68.3889ZM60.6689 58.8621C59.1296 58.1616 57.5731 57.5122 56.5314 56.725C56.2956 56.5468 56.1318 56.3932 56.0243 56.2692C55.9168 56.1454 55.8923 56.0821 55.8927 56.083C55.9404 56.2091 55.846 56.2804 55.9727 56.0812L52.2461 53.7107C51.4579 54.9497 51.2631 56.3286 51.7621 57.6466C52.2032 58.8119 53.0881 59.6589 53.8687 60.2487C55.4098 61.4133 57.5907 62.3138 58.8396 62.8821L60.6689 58.8621ZM55.5538 56.5664C56.9268 55.3793 58.9094 54.5952 61.3974 53.9255C62.6252 53.595 63.8919 53.3124 65.2164 53.0074C66.5182 52.7077 67.8684 52.3879 69.158 51.9979L67.8795 47.7703C66.7472 48.1128 65.5271 48.4037 64.2254 48.7034C62.9465 48.9978 61.5765 49.3034 60.2494 49.6607C57.6275 50.3664 54.8275 51.3557 52.6651 53.2254L55.5538 56.5664ZM69.1748 51.9927C69.6519 51.8443 70.2105 51.7113 70.8798 51.5554C71.5191 51.4064 72.2566 51.237 72.9663 51.0305C74.2574 50.655 76.1054 49.9947 77.1807 48.4588L73.5627 45.9257C73.4499 46.0867 73.0047 46.4197 71.7329 46.7896C71.1612 46.9559 70.5499 47.0972 69.8774 47.2539C69.2349 47.4037 68.5188 47.5713 67.8627 47.7755L69.1748 51.9927ZM76.6125 45.3654C74.7733 44.1162 72.5678 43.4371 70.4826 42.9808C68.4356 42.5329 66.1505 42.2363 64.3574 41.9283L63.6098 46.2813C65.687 46.638 67.6047 46.8722 69.5385 47.2954C71.4342 47.7102 72.9877 48.2425 74.1309 49.019L76.6125 45.3654ZM64.3509 41.9272C61.4621 41.4399 58.2997 41.223 55.5585 40.9059C52.7076 40.5761 50.1076 40.125 47.8036 39.1968L46.1532 43.2935C49.0235 44.4498 52.104 44.9524 55.051 45.2933C58.1078 45.6469 60.8609 45.8175 63.6162 46.2824L64.3509 41.9272ZM48.0555 39.3173C47.214 38.8471 47.6497 38.7968 47.6915 39.4182C47.732 40.0193 47.3264 40.1361 47.7552 39.8043C48.0915 39.544 48.6666 39.2426 49.4046 38.9769C50.1241 38.7178 50.8702 38.5385 51.4672 38.4597L50.8888 34.0811C49.1312 34.3132 46.6437 35.0798 45.0521 36.3114C44.3061 36.8888 43.1715 38.0314 43.2848 39.7149C43.3995 41.4187 44.71 42.5074 45.9013 43.173L48.0555 39.3173ZM51.6522 38.4272C58.2782 36.9706 65.1427 36.3058 72.1594 35.7646C79.131 35.2269 86.2999 34.8091 93.3122 33.8296L92.7013 29.4554C85.866 30.4102 78.9073 30.8143 71.8198 31.361C64.7774 31.9042 57.6513 32.5863 50.7039 34.1135L51.6522 38.4272ZM93.4944 33.7963C93.9609 33.6907 94.4566 33.5475 94.8885 33.3241C95.1799 33.1734 96.2176 32.5956 96.3515 31.3005C96.4874 29.9842 95.5621 29.2211 95.3374 29.0452C94.9918 28.7747 94.6092 28.5918 94.3378 28.475C93.3341 28.0432 91.5811 27.6256 91.2545 27.5295L90.0071 31.7663C90.2966 31.8516 90.9569 32.0201 91.3622 32.1325C91.8828 32.2768 92.3179 32.4141 92.5924 32.5322C92.7445 32.5976 92.7168 32.6027 92.6151 32.5232C92.5618 32.4814 92.4019 32.3503 92.2504 32.1115C92.0861 31.8525 91.9 31.4097 91.9582 30.8466C92.0159 30.2875 92.2845 29.9017 92.4804 29.6959C92.6625 29.5046 92.8252 29.4188 92.8594 29.4012C92.9227 29.3684 92.8543 29.4128 92.5191 29.4887L93.4944 33.7963ZM91.0703 27.4838C78.0745 24.8443 64.3842 24.4791 51.2466 24.2913L51.1835 28.7075C64.3425 28.8956 77.6494 29.2648 90.1913 31.8121L91.0703 27.4838ZM51.2457 24.2913C38.6726 24.1169 25.8358 24.8643 13.7162 25.0072L13.7683 29.4236C26.2374 29.2765 38.6176 28.5332 51.1844 28.7075L51.2457 24.2913ZM13.8329 25.009C11.9648 24.9322 10.4663 25.0084 8.8241 24.8352C7.25503 24.6698 6.25377 24.3127 5.65711 23.7646L2.66908 27.0171C4.33029 28.5432 6.50949 29.0323 8.36097 29.2275C10.1393 29.415 12.3014 29.3664 13.6515 29.4219L13.8329 25.009ZM6.17027 24.4699C6.16041 24.4485 6.20562 24.5559 6.17176 24.7198C6.14511 24.849 6.09767 24.8695 6.17865 24.7737C6.26308 24.6737 6.4138 24.5333 6.66575 24.3442C6.92341 24.1508 7.18451 23.9799 7.52146 23.7516L5.04387 20.0953C4.5645 20.4201 3.52388 21.0722 2.80481 21.9234C2.41201 22.3883 2.01266 23.0212 1.84633 23.8268C1.6728 24.6672 1.79058 25.5154 2.15593 26.3117L6.17027 24.4699ZM7.22586 23.9202C14.1667 20.6417 22.7715 19.9765 31.6054 19.1368L31.1875 14.74C22.6439 15.552 13.1365 16.2437 5.33947 19.9267L7.22586 23.9202ZM31.5682 19.14C42.5335 18.2849 53.5567 17.91 64.6369 17.5203C75.7003 17.1311 86.8182 16.7272 97.8889 15.8101L97.5243 11.4085C86.5737 12.3157 75.5575 12.7168 64.4816 13.1063C53.4226 13.4953 42.3014 13.8729 31.2248 14.7367L31.5682 19.14ZM98.0821 15.7854C98.8713 15.6493 99.736 15.5616 100.698 15.4718C101.632 15.3846 102.669 15.2948 103.676 15.1525C105.645 14.8745 107.941 14.349 109.73 12.8467L106.889 9.46467C106.099 10.1283 104.863 10.5244 103.059 10.7792C102.18 10.9033 101.271 10.9825 100.288 11.0742C99.3333 11.1633 98.3106 11.2641 97.3312 11.4331L98.0821 15.7854ZM110.486 11.53C110.855 9.38494 109.229 8.14563 108.492 7.67688C108.047 7.39359 107.58 7.16661 107.225 6.99914C106.811 6.80403 106.596 6.70926 106.419 6.61245L104.292 10.4831C104.628 10.6676 105.068 10.8653 105.341 10.9942C105.673 11.1507 105.926 11.2792 106.121 11.4034C106.331 11.5367 106.336 11.5803 106.283 11.5039C106.187 11.3664 106.08 11.0887 106.133 10.7813L110.486 11.53ZM106.102 6.46928C102.496 5.17487 98.5616 4.33274 94.8431 3.68863L94.0893 8.04049C97.7158 8.66866 101.359 9.45932 104.61 10.6263L106.102 6.46928ZM94.9158 3.70249C91.4465 2.98096 87.2069 2.60695 83.6209 2.1197L83.0263 6.49615C86.9449 7.02859 90.7405 7.34529 94.0165 8.02663L94.9158 3.70249ZM83.4001 2.10092C82.9659 2.08586 82.2336 2.00348 81.2614 1.91142C80.3961 1.82948 79.3254 1.73904 78.5038 1.7743L78.6932 6.18691C79.1617 6.1668 79.9315 6.22191 80.8451 6.30842C81.6518 6.3848 82.637 6.49377 83.247 6.51493L83.4001 2.10092ZM78.9424 1.79921C77.3111 1.54206 74.8584 1.47645 74.0526 1.45698L73.946 5.87236C74.8184 5.89344 76.9658 5.95883 78.2546 6.162L78.9424 1.79921ZM74.1504 1.46152C71.0518 1.24898 67.3927 1.1631 64.4105 1.14711L64.3868 5.56372C67.3224 5.57946 70.8792 5.66418 73.8482 5.86783L74.1504 1.46152ZM64.5442 1.15188C63.9269 1.11112 63.2742 1.12111 62.7207 1.12901C62.1311 1.13743 61.6287 1.1442 61.1644 1.11841L60.9194 5.52827C61.5662 5.56421 62.2292 5.55314 62.7838 5.54523C63.3744 5.5368 63.8446 5.53197 64.2532 5.55895L64.5442 1.15188ZM60.8481 1.12353C60.2252 1.1784 59.2146 1.18285 57.9641 1.19187C56.7856 1.20036 55.4326 1.21371 54.3252 1.30841L54.7016 5.70901C55.6059 5.63167 56.7811 5.61718 57.9959 5.60842C59.1387 5.60018 60.3864 5.59797 61.2357 5.52315L60.8481 1.12353ZM54.4945 1.30046C52.2776 1.31944 49.2263 1.52958 47.711 1.63437L48.0157 6.04051C49.5657 5.93332 52.4752 5.73457 54.5323 5.71697L54.4945 1.30046ZM47.7209 1.6337C45.4705 1.77915 42.9484 1.96499 41.0955 2.21605L41.6886 6.59273C43.3675 6.36524 45.744 6.18735 48.0058 6.04117L47.7209 1.6337ZM41.2 2.20442C38.1254 2.47283 34.9271 2.83795 32.0332 3.27662L32.6951 7.6434C35.48 7.22127 38.5838 6.86628 41.5841 6.60436L41.2 2.20442ZM31.9186 3.29708C31.4812 3.38719 30.9967 3.44356 30.4907 3.50493C30.2638 3.53245 29.9953 3.56548 29.7649 3.60588C29.6498 3.62606 29.495 3.65632 29.3333 3.70244C29.2311 3.73158 28.8673 3.83407 28.5073 4.09893L31.1247 7.65647C30.9447 7.78892 30.7873 7.85937 30.7151 7.88943C30.6332 7.92356 30.5713 7.94215 30.5447 7.94973C30.4946 7.96401 30.4795 7.96462 30.5275 7.95621C30.6232 7.93944 30.7743 7.91957 31.0225 7.88947C31.4667 7.83558 32.1548 7.75781 32.8096 7.62294L31.9186 3.29708ZM29.674 3.67393C29.1436 3.7081 28.4352 3.8096 27.8183 3.90218C27.1494 4.00257 26.5478 4.09886 26.0835 4.15797L26.6411 8.53928C27.1708 8.47187 27.875 8.35981 28.4738 8.26993C29.1248 8.17224 29.6462 8.10154 29.9579 8.08147L29.674 3.67393ZM25.9121 4.18666C25.2524 4.32402 24.3787 4.44974 23.4039 4.59358C22.4861 4.72901 21.4559 4.88363 20.6546 5.07346L21.6726 9.37118C22.2527 9.23377 23.0823 9.10554 24.0486 8.96293C24.958 8.82874 25.9929 8.68123 26.8124 8.51059L25.9121 4.18666ZM20.8278 5.03966C19.8597 5.18859 19.408 5.28822 19 5.37774C18.661 5.45213 18.3628 5.51766 17.6207 5.62211L18.2363 9.99566C19.1155 9.87192 19.5272 9.7838 19.9466 9.69177C20.297 9.61488 20.6522 9.53531 21.4994 9.40498L20.8278 5.03966ZM17.4664 5.64946C16.0382 5.95513 13.8678 6.28426 12.4381 6.71849L13.7216 10.9445C14.9454 10.5729 16.442 10.3854 18.3907 9.96831L17.4664 5.64946ZM12.5855 6.67923C10.9818 7.04758 10.7406 7.03547 8.92762 7.41404L9.83037 11.7375C11.2287 11.4455 12.0341 11.3376 13.5742 10.9838L12.5855 6.67923ZM8.90157 7.41964C8.37555 7.53612 7.65076 7.76879 7.18343 7.98308C7.08642 8.02756 6.84385 8.1402 6.60743 8.31798C6.54712 8.36333 6.14669 8.65098 5.89701 9.19017C5.74563 9.51709 5.59208 10.0677 5.76895 10.7145C5.94665 11.3644 6.36262 11.7635 6.66835 11.9709C7.16877 12.3104 7.67093 12.3479 7.74855 12.3554C7.92467 12.3724 8.07801 12.3684 8.17503 12.3636C8.3768 12.3536 8.59042 12.3258 8.79019 12.2945L8.10788 7.93089C7.96769 7.95281 7.9304 7.95362 7.95646 7.95233C7.96563 7.95187 8.04993 7.94723 8.17407 7.95924C8.19972 7.96173 8.66698 7.98973 9.14784 8.31594C9.4438 8.51671 9.85384 8.90822 10.0292 9.54965C10.2038 10.188 10.0515 10.7293 9.90485 11.046C9.6646 11.5649 9.28721 11.8289 9.26183 11.848C9.09527 11.9732 8.97015 12.0226 9.02434 11.9978C9.1618 11.9348 9.58188 11.7926 9.85641 11.7319L8.90157 7.41964ZM9.02724 12.244C8.85432 12.2909 8.85641 12.2519 9.11704 12.2839C9.3258 12.3095 9.51488 12.3585 9.59784 12.388C9.6608 12.4104 9.56312 12.3849 9.40515 12.2786C9.33931 12.2343 9.10112 12.0711 8.88735 11.7577C8.64556 11.4032 8.3215 10.6503 8.6674 9.76861C8.95685 9.03083 9.52818 8.72566 9.6909 8.64589C9.90222 8.54228 10.0662 8.51027 10.0982 8.50401C10.1748 8.48905 10.1513 8.50209 9.94778 8.50338L9.97585 12.92C10.2817 12.918 10.6237 12.9016 10.946 12.8386C11.1009 12.8083 11.3578 12.7476 11.6351 12.6116C11.8639 12.4995 12.4743 12.1582 12.779 11.3817C13.1401 10.4612 12.8074 9.66672 12.536 9.26894C12.2927 8.91224 12.0041 8.70394 11.8701 8.61376C11.5756 8.41571 11.2701 8.29508 11.078 8.22676C10.6508 8.07483 10.1411 7.95984 9.65572 7.9002C9.22224 7.84693 8.53494 7.80125 7.87083 7.98142L9.02724 12.244ZM9.65637 8.52456C7.98185 8.75842 6.70317 8.81551 5.78733 8.7777C5.32994 8.75881 4.98512 8.71712 4.74001 8.67026C4.48183 8.6209 4.39464 8.57719 4.41611 8.58773C4.43025 8.59467 4.50879 8.63406 4.61427 8.72413C4.71861 8.81322 4.89124 8.98813 5.02639 9.27069C5.37738 10.0045 5.16892 10.7387 4.86634 11.1518C4.64587 11.4529 4.43436 11.5262 4.51926 11.4863C4.56545 11.4646 4.70659 11.409 4.97393 11.3508L4.03513 7.0351C3.54585 7.14153 3.06879 7.28777 2.64007 7.48933C2.25006 7.67269 1.70693 7.99076 1.30301 8.54231C0.816998 9.20597 0.573262 10.1964 1.04202 11.1764C1.4141 11.9543 2.07188 12.3571 2.46966 12.5524C3.31245 12.9661 4.42443 13.1419 5.60513 13.1906C6.84925 13.242 8.40129 13.1594 10.2673 12.8988L9.65637 8.52456ZM4.97393 11.3508C12.253 9.76742 27.0962 7.78942 37.7262 6.64331L37.2527 2.2521C26.6156 3.39897 11.5659 5.39693 4.03513 7.0351L4.97393 11.3508ZM37.7337 6.64249C56.3953 4.56554 75.6749 4.62066 94.0322 7.62548L94.7456 3.26682C75.9238 0.185964 56.2332 0.139653 37.2452 2.25292L37.7337 6.64249ZM93.9115 7.60226C96.6431 8.20709 99.0353 8.56641 101.53 9.21482C103.931 9.83865 105.91 10.6218 107.377 11.7992L110.142 8.35487C107.951 6.59591 105.256 5.61965 102.641 4.94014C100.121 4.2852 97.1571 3.79726 94.8663 3.29004L93.9115 7.60226ZM106.829 11.1491C106.86 11.2053 106.792 11.1076 106.792 10.8894C106.791 10.6486 106.874 10.4379 106.967 10.3009C107.086 10.1268 107.105 10.2268 106.6 10.4267C105.627 10.8114 104.295 10.9992 103.005 11.2493L103.845 15.5853C104.753 15.4093 106.749 15.1174 108.225 14.5337C108.944 14.2493 109.967 13.743 110.618 12.7859C110.978 12.2575 111.209 11.6112 111.208 10.8838C111.208 10.1792 110.99 9.5439 110.69 9.00499L106.829 11.1491ZM103.225 11.218C99.8167 11.5273 97.3956 12.0135 94.4883 12.0323L94.5168 16.4489C97.6321 16.4287 100.78 15.8747 103.625 15.6166L103.225 11.218ZM94.2817 12.0433C85.3362 12.9425 76.5625 13.0092 67.4019 13.4211L67.6004 17.8333C76.5452 17.4311 85.6181 17.3531 94.7234 16.4378L94.2817 12.0433ZM67.4905 13.4189C65.4691 13.4287 63.4213 13.5137 61.4058 13.5988C59.3766 13.6845 57.3794 13.7702 55.3937 13.7882L55.4338 18.2047C57.506 18.1859 59.5788 18.0965 61.592 18.0115C63.6189 17.926 65.5859 17.8448 67.5118 17.8356L67.4905 13.4189ZM55.3356 13.7895C54.1916 13.83 53.0251 13.9144 52.0059 13.9756C50.9524 14.0388 50.0416 14.0785 49.2656 14.0521L49.1154 18.4662C50.1182 18.5003 51.2112 18.4479 52.2706 18.3843C53.3645 18.3186 54.4202 18.2414 55.4919 18.2034L55.3356 13.7895ZM49.0261 14.057C46.5397 14.2426 44.1527 14.3465 41.7441 14.4513C39.3451 14.5557 36.9227 14.6611 34.4218 14.8504L34.7552 19.2545C37.1743 19.0713 39.5271 18.9687 41.9361 18.8638C44.3355 18.7594 46.7895 18.6529 49.3549 18.4614L49.0261 14.057ZM34.3504 14.857C33.553 14.9435 32.5072 15.0016 31.4023 15.0781C30.4085 15.1468 29.2286 15.2372 28.4566 15.4189L29.4689 19.718C29.8165 19.6362 30.5953 19.5611 31.7073 19.4842C32.7082 19.4149 33.9154 19.3468 34.8267 19.2479L34.3504 14.857ZM28.9475 15.3602C27.5833 15.3697 25.9323 15.5731 24.4251 15.7785C22.8464 15.9936 21.422 16.2109 20.2865 16.3096L20.6693 20.7097C21.9471 20.5985 23.5624 20.3535 25.0214 20.1547C26.5521 19.9461 27.9369 19.784 28.9781 19.7768L28.9475 15.3602ZM20.0971 16.3344C17.7471 16.7458 14.9226 17.1736 12.2198 17.9522L13.4426 22.1963C15.8541 21.5015 18.3621 21.122 20.8587 20.6849L20.0971 16.3344ZM12.1559 17.9717C12.1585 17.9709 12.1348 17.9783 12.0681 17.9961C12.0068 18.0125 11.9305 18.032 11.8364 18.0557C11.659 18.1003 11.4126 18.161 11.1765 18.2223C10.9381 18.2841 10.6694 18.3569 10.4189 18.4355C10.2055 18.5024 9.86348 18.616 9.55502 18.7823L11.6502 22.6703C11.5616 22.7181 11.5578 22.7071 11.7407 22.6497C11.8865 22.604 12.0722 22.5528 12.2857 22.4974C12.5015 22.4414 12.7048 22.3915 12.9142 22.3388C13.0895 22.2947 13.3252 22.235 13.5065 22.1768L12.1559 17.9717ZM9.9797 18.6076C8.28166 19.1069 6.88511 19.6591 5.35311 20.5061L7.48998 24.3714C8.69438 23.7055 9.78354 23.2689 11.2255 22.8449L9.9797 18.6076ZM5.218 20.5872C4.20386 21.2464 2.99501 22.1928 2.48873 23.5787L6.63724 25.0942C6.61338 25.1595 6.61384 25.1052 6.78262 24.9368C6.95001 24.7698 7.21781 24.555 7.62508 24.2903L5.218 20.5872ZM2.35551 24.2747C2.31808 25.613 2.99407 26.6092 3.80241 27.2296C4.52673 27.7855 5.39028 28.0801 6.08747 28.2575C7.46316 28.6077 9.1708 28.7146 9.98286 28.8028L10.4598 24.412C9.29939 24.2859 8.15078 24.2252 7.17688 23.9773C6.95841 23.9217 6.78915 23.8653 6.66378 23.8127C6.53533 23.7588 6.48867 23.7238 6.49136 23.7258C6.55204 23.7724 6.78082 24.0276 6.77045 24.3982L2.35551 24.2747ZM10.1599 28.8149C17.0924 29.0079 24.0241 28.784 30.884 28.5588C37.7659 28.3329 44.575 28.1058 51.3718 28.2772L51.4832 23.8619C44.536 23.6867 37.5968 23.9194 30.7391 24.1445C23.8594 24.3703 17.06 24.5886 10.2828 24.3999L10.1599 28.8149ZM51.3814 28.2774C65.0221 28.5625 78.7217 28.8303 91.5363 31.6857L92.4969 27.3748C79.1757 24.4064 65.0201 24.1449 51.4737 23.8617L51.3814 28.2774ZM91.7141 31.7178C92.3073 31.7998 92.6856 31.899 92.9048 31.9789C93.1496 32.0682 93.0705 32.0877 92.91 31.9155C92.8174 31.8161 92.6935 31.647 92.6103 31.4021C92.5246 31.1498 92.5059 30.8852 92.5445 30.6399C92.5815 30.4054 92.6629 30.2342 92.7245 30.1324C92.7851 30.0322 92.8375 29.9801 92.8495 29.9686C92.8668 29.9519 92.811 30.0072 92.6344 30.0938C92.4682 30.1752 92.2434 30.2605 91.9706 30.3306C91.4152 30.4734 90.78 30.5237 90.2003 30.4403L89.571 34.8119C90.7975 34.9884 92.0232 34.8774 93.0706 34.6081C94.0678 34.3516 95.1457 33.8881 95.9113 33.1517C96.2963 32.7814 96.7742 32.1739 96.9075 31.3264C97.0587 30.3658 96.705 29.5095 96.1411 28.9044C95.6389 28.3654 94.9969 28.0407 94.4184 27.8297C93.8143 27.6093 93.109 27.452 92.3192 27.3428L91.7141 31.7178ZM89.6536 30.43C83.0194 31.1308 76.4075 31.4715 69.5984 32.0479C62.8649 32.6178 56.095 33.4097 49.5216 35.0073L50.5647 39.2991C56.807 37.7819 63.3108 37.0126 69.9709 36.4488C76.5553 35.8914 83.4568 35.5259 90.1177 34.8222L89.6536 30.43ZM49.7259 34.9678C48.4289 35.1561 46.6524 35.7408 45.4666 36.7095C44.9059 37.1676 43.9964 38.1117 44.0362 39.5236C44.0782 41.0156 45.1332 41.9613 45.9987 42.487L48.2917 38.7123C47.9031 38.4761 48.4299 38.6483 48.4511 39.3991C48.47 40.0697 48.0468 40.3048 48.2609 40.1299C48.4037 40.0132 48.7027 39.8369 49.1436 39.6669C49.5682 39.5031 50.0095 39.3896 50.3604 39.3386L49.7259 34.9678ZM46.1725 42.5822C48.7275 43.8358 51.5798 44.3448 54.2623 44.6633C57.105 45.0007 59.5266 45.114 62.0009 45.5314L62.7355 41.1763C60.1703 40.7435 57.188 40.5629 54.7829 40.2774C52.2176 39.9729 49.9782 39.5298 48.118 38.6171L46.1725 42.5822ZM61.9841 45.5285C63.1824 45.7401 64.4327 45.9112 65.6309 46.0804C66.8471 46.2521 68.0237 46.4237 69.1581 46.642C71.4568 47.0843 73.3577 47.6812 74.7744 48.6532L77.2729 45.0111C75.0955 43.5174 72.4716 42.7819 69.9927 42.3049C68.7382 42.0635 67.4627 41.8786 66.2483 41.7071C65.0159 41.5331 63.857 41.3742 62.7523 41.1791L61.9841 45.5285ZM73.8888 47.3971C73.8566 47.2751 73.8428 47.0786 73.9094 46.862C73.971 46.662 74.067 46.5555 74.0867 46.5352C74.1013 46.5202 74.0679 46.5577 73.9413 46.6311C73.8188 46.7021 73.6487 46.784 73.4237 46.8733C72.9651 47.0554 72.4102 47.2176 71.791 47.3833C71.2325 47.5328 70.5261 47.7082 69.9925 47.8799L71.3451 52.0843C71.7393 51.9575 72.2316 51.8375 72.9329 51.6498C73.5736 51.4783 74.3397 51.2616 75.0533 50.9783C75.7266 50.7111 76.5892 50.2962 77.2512 49.6163C78.0227 48.8239 78.5229 47.6441 78.1585 46.2672L73.8888 47.3971ZM70.0643 47.8581C68.8039 48.2168 67.4751 48.5283 66.0833 48.8463C64.7088 49.1604 63.2631 49.4831 61.8508 49.8514C59.0438 50.5835 56.1273 51.5528 53.683 53.2376L56.1895 56.8741C57.9819 55.6387 60.2874 54.8236 62.9654 54.1251C64.2956 53.7782 65.6581 53.474 67.0673 53.152C68.4591 52.8339 69.8894 52.4999 71.2733 52.1061L70.0643 47.8581ZM53.1403 53.7709C52.3348 54.8967 52.0829 56.221 52.5673 57.511C52.9821 58.6158 53.8319 59.3958 54.529 59.9121C55.9189 60.9415 57.8837 61.7407 58.9123 62.2037L60.7252 58.1763C59.4019 57.5805 58.0558 57.0281 57.1577 56.3629C56.7107 56.0318 56.6722 55.8788 56.7021 55.9584C56.8015 56.2233 56.6681 56.4305 56.7323 56.3408L53.1403 53.7709ZM58.9507 62.2205C60.676 62.9581 62.2844 63.6326 63.4776 64.4649C64.6703 65.2967 64.8898 65.8911 64.8669 66.3486L69.278 66.5697C69.4153 63.8297 67.655 61.9936 66.0042 60.8423C64.354 59.6913 62.2555 58.83 60.6868 58.1594L58.9507 62.2205ZM64.8662 66.3643C64.8302 67.2016 64.7283 68.0643 64.6074 69.0099C64.4901 69.9279 64.3517 70.9454 64.275 71.9613C64.1199 74.0154 64.1899 76.3232 65.2493 78.6438L69.2671 76.8095C68.6527 75.4637 68.549 74.0171 68.6791 72.2938C68.745 71.4209 68.8639 70.5439 68.9884 69.5698C69.1094 68.6232 69.2339 67.596 69.2787 66.554L64.8662 66.3643ZM65.1338 78.3297C66.5254 83.2321 67.6223 88.37 67.3775 93.2588L71.7886 93.4797C72.0705 87.8504 70.8086 82.1472 69.3826 77.1236L65.1338 78.3297ZM67.3776 93.4824C67.4897 95.6671 67.7204 97.8068 67.9494 99.8804C68.1805 101.973 68.4091 103.992 68.537 106.033L72.945 105.757C72.8092 103.59 72.5672 101.458 72.3394 99.3956C72.1095 97.3139 71.893 95.2945 71.7885 93.2561L67.3776 93.4824ZM68.5424 106.102C68.6079 106.798 68.7543 107.829 68.8338 108.522C68.9315 109.374 68.9558 109.912 68.9258 110.158L73.3102 110.691C73.4122 109.852 73.313 108.816 73.2217 108.019C73.1122 107.064 73.0042 106.373 72.9396 105.688L68.5424 106.102ZM68.9435 110.809C69.0976 111.681 69.1136 112.285 69.2141 113.236C69.3094 114.136 69.4717 115.136 69.9426 116.284L74.0289 114.608C73.779 113.999 73.6789 113.457 73.6063 112.771C73.5389 112.134 73.4814 111.107 73.2926 110.04L68.9435 110.809ZM69.9427 116.284C69.9316 116.257 69.8231 116.005 69.8102 115.643C69.7936 115.173 69.94 114.663 70.2864 114.244C70.5615 113.91 70.8592 113.765 70.9245 113.733C71.0091 113.692 71.0576 113.679 71.002 113.698L72.4117 117.883C72.508 117.851 72.6769 117.792 72.8542 117.706C73.0122 117.63 73.375 117.439 73.6914 117.056C74.593 115.965 74.0979 114.776 74.0288 114.608L69.9427 116.284ZM71.0022 113.698C71.246 113.616 71.4275 113.616 71.4931 113.618C71.5733 113.621 71.6502 113.633 71.7348 113.657L70.5148 117.902C70.9507 118.027 71.674 118.132 72.4115 117.884L71.0022 113.698ZM72.6314 106.486C72.4524 106.294 71.9011 105.76 70.9973 105.736C70.4978 105.723 69.9437 105.878 69.483 106.272C69.0369 106.652 68.791 107.162 68.7208 107.661C68.5754 108.695 69.1604 109.664 70.0902 110.047C70.9344 110.394 71.6657 110.13 71.9749 109.981L70.0564 106.002C70.286 105.892 70.9614 105.629 71.7705 105.962C72.6653 106.33 73.2361 107.269 73.0944 108.276C73.0261 108.762 72.7866 109.258 72.3511 109.63C71.9009 110.015 71.3615 110.164 70.8804 110.152C70.0136 110.129 69.5144 109.62 69.3999 109.497L72.6314 106.486ZM12.9683 18.9462C12.6548 18.6161 11.9177 18.0604 10.8765 18.2525C9.89345 18.434 9.27068 19.1873 9.08738 19.9472C8.99231 20.3414 8.97465 20.9014 9.25798 21.4724C9.57245 22.1063 10.1435 22.5151 10.7576 22.6578C11.3017 22.7842 11.7538 22.6793 12.0029 22.5957C12.2682 22.5066 12.4728 22.3853 12.6082 22.2933L10.1256 18.6404C10.2079 18.5844 10.3682 18.4855 10.5973 18.4086C10.8102 18.3372 11.2341 18.2342 11.7572 18.3557C12.3503 18.4935 12.9075 18.8907 13.2145 19.5095C13.4903 20.0655 13.4716 20.6071 13.3809 20.9829C13.2065 21.7061 12.6147 22.423 11.678 22.5959C10.6834 22.7794 10.0082 22.243 9.76555 21.9875L12.9683 18.9462ZM45.3433 15.6078C45.2694 15.4449 45.0833 15.0766 44.6871 14.7597C44.4716 14.5873 44.1696 14.4116 43.7828 14.3242C43.3851 14.2343 42.9864 14.2583 42.6265 14.3708C41.9556 14.5804 41.5891 15.0323 41.4362 15.259C41.262 15.5174 41.1626 15.7791 41.1084 16.006C41.0577 16.2181 41.0093 16.5553 41.0852 16.956C41.1555 17.3266 41.4411 18.1975 42.425 18.6025C43.3478 18.9823 44.116 18.6223 44.3563 18.4899C44.6494 18.3284 44.8433 18.1365 44.9335 18.0416L41.7314 14.9996C41.7875 14.9405 41.9538 14.7709 42.2249 14.6215C42.4431 14.5013 43.195 14.1433 44.1061 14.5183C45.0784 14.9185 45.3572 15.7779 45.4247 16.1335C45.4978 16.5194 45.4505 16.8383 45.4042 17.0323C45.3543 17.241 45.2625 17.4846 45.0981 17.7283C44.9551 17.9404 44.6008 18.3811 43.9437 18.5865C43.5907 18.6968 43.1992 18.7204 42.8091 18.6322C42.4298 18.5465 42.1357 18.3746 41.9282 18.2087C41.5482 17.9046 41.3788 17.5594 41.3216 17.4333L45.3433 15.6078ZM61.3399 14.9635C61.266 14.8006 61.0798 14.4323 60.6837 14.1154C60.4682 13.943 60.1662 13.7673 59.7794 13.6799C59.3817 13.59 58.983 13.614 58.6231 13.7265C57.9522 13.9361 57.5857 14.388 57.4328 14.6148C57.2586 14.8731 57.1592 15.1348 57.105 15.3617C57.0543 15.5739 57.0059 15.911 57.0818 16.3117C57.1521 16.6823 57.4377 17.5532 58.4216 17.9582C59.3444 18.338 60.1126 17.978 60.3529 17.8456C60.646 17.6841 60.8399 17.4922 60.9301 17.3973L57.728 14.3553C57.7841 14.2962 57.9504 14.1266 58.2215 13.9772C58.4397 13.857 59.1916 13.499 60.1027 13.874C61.075 14.2742 61.3538 15.1336 61.4212 15.4893C61.4944 15.8751 61.4471 16.194 61.4008 16.3881C61.3509 16.5968 61.2591 16.8403 61.0947 17.0841C60.9517 17.2961 60.5974 17.7369 59.9403 17.9422C59.5873 18.0525 59.1958 18.0761 58.8057 17.9879C58.4264 17.9022 58.1323 17.7304 57.9248 17.5644C57.5447 17.2604 57.3754 16.9151 57.3182 16.789L61.3399 14.9635ZM63.4501 13.6701C63.3573 13.6344 63.2184 13.5861 63.0502 13.5504C62.9404 13.5271 62.5546 13.4471 62.0796 13.5524C61.823 13.6092 61.3793 13.7561 60.9816 14.1572C60.5355 14.607 60.3339 15.1898 60.339 15.739C60.3436 16.2231 60.5038 16.5877 60.6131 16.7872C60.73 17.0003 60.8612 17.1571 60.961 17.2613C61.302 17.6173 61.7833 17.884 62.3441 17.9506C62.6617 17.9884 63.091 17.9699 63.541 17.767C64.0137 17.5539 64.3639 17.202 64.5827 16.8122L60.7314 14.6501C60.9375 14.2831 61.2712 13.9456 61.7258 13.7407C62.1577 13.5459 62.5672 13.5294 62.8652 13.5648C63.3871 13.6268 63.8304 13.872 64.1504 14.206C64.245 14.3048 64.372 14.4561 64.486 14.6639C64.5924 14.8581 64.751 15.2177 64.7555 15.6972C64.7607 16.2418 64.5605 16.8206 64.1177 17.2671C63.7233 17.6648 63.2847 17.8091 63.0353 17.8644C62.5745 17.9665 62.2111 17.8873 62.1339 17.871C61.9982 17.8422 61.9021 17.8068 61.864 17.7922L63.4501 13.6701ZM12.0657 7.95348C11.9729 7.91758 11.8343 7.86904 11.6662 7.83308C11.5562 7.80955 11.1718 7.7292 10.698 7.83275C10.4423 7.88862 9.99994 8.03338 9.60173 8.4308C9.15478 8.87688 8.94876 9.45775 8.95098 10.0088C8.95294 10.4945 9.11216 10.8612 9.22132 11.062C9.33788 11.2764 9.46915 11.4341 9.56903 11.5389C9.91038 11.8971 10.3918 12.1642 10.9516 12.2319C11.2686 12.2702 11.6964 12.2526 12.1453 12.0523C12.6166 11.842 12.9676 11.4933 13.1884 11.1053L9.34975 8.92087C9.5576 8.55562 9.89212 8.22131 10.3452 8.01908C10.776 7.82684 11.1839 7.81116 11.4814 7.8471C12.0022 7.91003 12.4458 8.15562 12.7663 8.49187C12.8609 8.59119 12.988 8.74344 13.1017 8.95258C13.208 9.14812 13.3657 9.50969 13.3676 9.99093C13.3698 10.5374 13.1653 11.1142 12.7217 11.557C12.3268 11.9511 11.8895 12.0933 11.641 12.1476C11.1815 12.248 10.8195 12.1685 10.742 12.152C10.6065 12.123 10.5105 12.0875 10.4724 12.0727L12.0657 7.95348ZM36.2267 3.59957C36.1391 3.50781 36.002 3.37655 35.8158 3.25102C35.6634 3.14828 35.2877 2.91736 34.7474 2.86871C34.4529 2.84218 34.0689 2.86749 33.6653 3.04142C33.2486 3.22102 32.9149 3.51524 32.6865 3.86336C32.2633 4.50832 32.3001 5.15298 32.3532 5.46473C32.4628 6.10797 32.866 6.74614 33.5495 7.09818C34.417 7.54507 35.3113 7.33809 35.8852 6.9414L33.3741 3.30809C33.8918 2.95024 34.7389 2.74267 35.572 3.17182C36.221 3.50614 36.6026 4.10943 36.7071 4.72295C36.7577 5.01985 36.7961 5.65094 36.3792 6.2864C36.1539 6.62977 35.8245 6.92026 35.4132 7.0975C35.0151 7.26907 34.6378 7.29338 34.3513 7.26757C33.827 7.22035 33.4723 6.99773 33.3465 6.91293C33.1869 6.80534 33.082 6.70166 33.0326 6.64993L36.2267 3.59957ZM80.4175 1.91337C80.3247 1.87746 80.186 1.8289 80.0179 1.79292C79.9079 1.76938 79.5234 1.68898 79.0494 1.79259C78.7936 1.84851 78.3512 1.99338 77.953 2.39097C77.5061 2.83718 77.3003 3.41805 77.3026 3.96882C77.3046 4.45444 77.4637 4.82092 77.5728 5.02168C77.6894 5.23605 77.8206 5.39378 77.9204 5.49858C78.2617 5.85674 78.7431 6.12401 79.3031 6.19169C79.6202 6.23001 80.0481 6.21246 80.4971 6.01198C80.9686 5.80151 81.3195 5.45266 81.5402 5.0647L77.7011 2.88113C77.9088 2.51587 78.2433 2.1814 78.6965 1.97903C79.1274 1.78666 79.5355 1.77096 79.8331 1.80693C80.354 1.86989 80.7976 2.11562 81.118 2.45185C81.2126 2.55117 81.3397 2.70339 81.4533 2.91249C81.5596 3.10797 81.7172 3.46942 81.7192 3.95048C81.7215 4.4967 81.5172 5.07351 81.0736 5.51641C80.6787 5.91069 80.2414 6.05299 79.9927 6.10735C79.533 6.20784 79.1709 6.12833 79.0935 6.11176C78.9579 6.08274 78.8619 6.04721 78.8237 6.03246L80.4175 1.91337ZM58.5359 1.30923C58.443 1.27334 58.3044 1.22482 58.1364 1.18887C58.0265 1.16535 57.6421 1.08502 57.1684 1.18851C56.9127 1.24436 56.4703 1.38908 56.072 1.78651C55.625 2.23263 55.4189 2.81363 55.4212 3.36477C55.4232 3.85064 55.5825 4.21728 55.6917 4.41805C55.8083 4.63245 55.9396 4.79017 56.0395 4.89494C56.3808 5.25303 56.8622 5.52004 57.4219 5.58767C57.7388 5.62596 58.1665 5.60845 58.6154 5.40815C59.0867 5.19785 59.4378 4.84918 59.6586 4.46116L55.82 2.27664C56.0279 1.9113 56.3625 1.577 56.8156 1.37481C57.2463 1.18261 57.6542 1.16695 57.9516 1.20289C58.4723 1.2658 58.9158 1.51128 59.2363 1.84744C59.3309 1.94673 59.4581 2.09895 59.5718 2.30808C59.6781 2.50358 59.8358 2.86518 59.8378 3.3465C59.8401 3.89309 59.6356 4.47003 59.1918 4.91285C58.7969 5.30696 58.3596 5.44912 58.1111 5.5034C57.6516 5.60378 57.2897 5.52434 57.2123 5.50778C57.0768 5.47879 56.9808 5.4433 56.9427 5.42857L58.5359 1.30923ZM71.7886 94.5419C71.7767 94.5947 71.7541 94.6842 71.7134 94.7937C71.6769 94.8919 71.598 95.0828 71.4456 95.2944C71.3019 95.4939 70.9773 95.8718 70.4043 96.0759C70.1065 96.182 69.7827 96.2248 69.455 96.193C69.1336 96.1618 68.8617 96.0644 68.649 95.9531C68.2503 95.7444 68.0178 95.467 67.913 95.3268C67.7953 95.1693 67.7228 95.0271 67.6815 94.9368C67.5991 94.7567 67.5573 94.5976 67.5344 94.4813C67.5129 94.3713 67.4858 94.1865 67.5006 93.9533C67.5079 93.8397 67.5299 93.6285 67.6178 93.3775C67.6969 93.1516 67.9119 92.6579 68.4563 92.2884C68.7435 92.0935 69.0784 91.9657 69.4352 91.9239C69.7822 91.8833 70.0855 91.931 70.319 92.0007C70.7511 92.1298 71.0286 92.358 71.1404 92.4573C71.3727 92.6637 71.4942 92.8655 71.5106 92.8919L67.758 95.2211C67.8072 95.3003 67.9547 95.5351 68.2074 95.7595C68.3294 95.8679 68.6157 96.1015 69.0552 96.2327C69.2924 96.3036 69.5991 96.3516 69.9492 96.3106C70.3091 96.2684 70.6467 96.1396 70.9364 95.943C71.4857 95.5702 71.7045 95.0707 71.7863 94.837C71.8769 94.5784 71.9005 94.3576 71.9084 94.2332C71.9246 93.9785 71.8952 93.7671 71.8684 93.6306C71.8404 93.4878 71.7905 93.3023 71.6984 93.1007C71.6522 92.9996 71.5743 92.8479 71.4508 92.6828C71.3404 92.535 71.1018 92.2518 70.6968 92.0398C70.4811 91.9269 70.206 91.8285 69.8814 91.797C69.5505 91.7649 69.2233 91.8081 68.9224 91.9153C68.3428 92.1217 68.0115 92.5051 67.8613 92.7138C67.7023 92.9346 67.6168 93.1384 67.5738 93.2539C67.5267 93.3806 67.4978 93.4917 67.48 93.5711L71.7886 94.5419ZM60.1895 18.0373C60.1708 18.0418 60.1022 18.0578 60.0024 18.0693C59.9723 18.0728 59.6478 18.1184 59.2452 18.0173C59.0631 17.9715 58.5009 17.8097 58.0571 17.2479C57.8109 16.9363 57.6419 16.5482 57.5955 16.119C57.5509 15.7072 57.6293 15.3583 57.7227 15.1091C57.8929 14.655 58.1669 14.3812 58.274 14.2806C58.4102 14.1526 58.5363 14.0673 58.6186 14.0166C58.892 13.848 59.2311 13.7248 59.6234 13.7073C59.8309 13.6981 60.2272 13.7107 60.666 13.9256C61.1769 14.1759 61.6036 14.6368 61.7891 15.2414L57.5666 16.5367C57.758 17.1606 58.1967 17.6342 58.7232 17.892C59.1775 18.1145 59.5929 18.1298 59.8204 18.1196C60.2528 18.1003 60.6359 17.9615 60.9366 17.7761C61.0257 17.7211 61.1577 17.6315 61.2983 17.4994C61.4098 17.3946 61.6869 17.1168 61.8585 16.6589C61.9526 16.4079 62.0313 16.0572 61.9865 15.6437C61.9399 15.2128 61.7702 14.8232 61.5229 14.5101C61.0768 13.9454 60.5103 13.7812 60.3216 13.7338C59.9058 13.6293 59.5588 13.6745 59.4944 13.682C59.3603 13.6975 59.2455 13.7219 59.1662 13.7408L60.1895 18.0373ZM85.4355 16.512C85.193 16.7671 84.5181 17.3029 83.524 17.1195C82.5873 16.9466 81.9951 16.2295 81.8208 15.5053C81.7302 15.1291 81.712 14.5874 81.9882 14.0316C82.2955 13.4133 82.8525 13.0168 83.4451 12.8792C83.9679 12.7578 84.3916 12.8607 84.6045 12.9322C84.8336 13.0091 84.994 13.108 85.0764 13.164L82.5937 16.8168C82.7292 16.9089 82.9338 17.0302 83.1991 17.1193C83.4483 17.2029 83.9002 17.3077 84.444 17.1814C85.0576 17.0389 85.6285 16.6307 85.9433 15.9974C86.227 15.4266 86.2098 14.8665 86.1149 14.4719C85.9318 13.7111 85.3085 12.9575 84.3254 12.7761C83.2848 12.5841 82.548 13.1392 82.2346 13.4688L85.4355 16.512ZM95.9896 15.8675C95.9335 15.9265 95.7671 16.0961 95.4961 16.2454C95.2778 16.3656 94.5263 16.7232 93.6157 16.3486C92.6435 15.9486 92.3643 15.0895 92.2968 14.7334C92.2236 14.3473 92.2709 14.0283 92.3173 13.8342C92.3672 13.6253 92.4591 13.3817 92.6236 13.138C92.7667 12.9258 93.121 12.4853 93.778 12.2801C94.1309 12.1699 94.5222 12.1463 94.9121 12.2344C95.2912 12.3201 95.5852 12.4918 95.7927 12.6577C96.1729 12.9616 96.3423 13.3068 96.3996 13.4329L92.3782 15.2593C92.4522 15.4222 92.6385 15.7906 93.0347 16.1073C93.2502 16.2796 93.5521 16.4552 93.9388 16.5425C94.3363 16.6323 94.7348 16.6083 95.0946 16.496C95.7653 16.2865 96.1319 15.8348 96.2849 15.608C96.4593 15.3496 96.5587 15.0879 96.613 14.8609C96.6637 14.6486 96.7122 14.3113 96.6361 13.9104C96.5658 13.5394 96.2798 12.6687 95.296 12.264C94.3737 11.8846 93.6058 12.2442 93.3655 12.3766C93.0724 12.538 92.8785 12.7298 92.7883 12.8247L95.9896 15.8675ZM108.6 10.0668C108.521 10.25 108.324 10.6348 107.886 10.9479C107.374 11.315 106.724 11.4417 106.109 11.2925C105.58 11.1641 105.236 10.8741 105.056 10.6852C104.864 10.4841 104.727 10.261 104.634 10.0377C104.553 9.84371 104.43 9.46556 104.483 8.97783C104.511 8.71686 104.6 8.353 104.847 7.98862C105.11 7.6003 105.489 7.30919 105.925 7.15381C106.702 6.8772 107.334 7.12854 107.491 7.19453C107.72 7.29107 107.87 7.40331 107.924 7.44482L105.222 10.9388C105.325 11.0186 105.515 11.1547 105.774 11.2641C105.962 11.343 106.616 11.5963 107.407 11.3145C107.851 11.1565 108.235 10.861 108.502 10.4669C108.753 10.0968 108.844 9.7258 108.873 9.45682C108.928 8.95308 108.801 8.55533 108.712 8.34187C108.611 8.09908 108.461 7.85652 108.255 7.6397C108.06 7.4352 107.698 7.13318 107.15 7.00029C106.516 6.84651 105.847 6.97613 105.315 7.35713C104.858 7.68417 104.641 8.09392 104.545 8.3168L108.6 10.0668ZM22.0559 9.08652C22.0022 9.12807 21.8518 9.24032 21.6228 9.33685C21.4661 9.40291 20.8343 9.65392 20.058 9.37762C19.622 9.22244 19.243 8.9317 18.9796 8.54368C18.7325 8.17953 18.6438 7.81577 18.6152 7.55468C18.5617 7.06675 18.6853 6.68834 18.7659 6.49418C18.8588 6.27069 18.9966 6.04738 19.1882 5.8461C19.3681 5.65711 19.7124 5.36705 20.2416 5.23874C20.8568 5.0896 21.5059 5.21633 22.0181 5.5829C22.4552 5.89567 22.653 6.28008 22.7322 6.46328L18.6781 8.21568C18.7744 8.43857 18.9913 8.84795 19.4479 9.17464C19.9796 9.55513 20.6485 9.68472 21.2823 9.53105C21.8302 9.3982 22.1921 9.09621 22.387 8.89154C22.5935 8.67459 22.7436 8.43186 22.8445 8.18886C22.9333 7.9752 23.0608 7.5772 23.0056 7.07326C22.9761 6.80417 22.8851 6.43329 22.6341 6.06337C22.3668 5.66958 21.9823 5.37443 21.5389 5.21664C20.748 4.93513 20.0943 5.18815 19.907 5.26711C19.6474 5.37654 19.4577 5.51257 19.3544 5.59245L22.0559 9.08652ZM33.7218 7.48711C33.7027 7.49166 33.6336 7.50778 33.5331 7.51933C33.5022 7.52289 33.1768 7.56834 32.7733 7.46606C32.5894 7.41947 32.0307 7.25653 31.5892 6.69737C31.3448 6.38779 31.1763 6.00265 31.1287 5.57618C31.083 5.16665 31.1592 4.81856 31.2515 4.5687C31.4199 4.11299 31.6933 3.83752 31.8011 3.73555C31.9377 3.60637 32.0644 3.52022 32.1472 3.46893C32.4223 3.2985 32.7638 3.17437 33.1584 3.15719C33.3676 3.14808 33.7642 3.16173 34.2025 3.3775C34.7118 3.62825 35.1348 4.08737 35.3201 4.68661L31.1004 5.99108C31.2917 6.6097 31.7268 7.08155 32.2516 7.33996C32.7055 7.56341 33.1212 7.57966 33.3505 7.56968C33.7852 7.55076 34.1705 7.41096 34.4729 7.22364C34.5626 7.16813 34.6951 7.07767 34.836 6.94432C34.9483 6.83816 35.2248 6.55863 35.3945 6.09918C35.4875 5.84745 35.564 5.49757 35.5181 5.08635C35.4703 4.65819 35.3012 4.27147 35.0556 3.96043C34.6118 3.39836 34.0488 3.23304 33.8584 3.18477C33.4416 3.07913 33.0937 3.1241 33.0284 3.1316C32.8937 3.1471 32.7784 3.17161 32.6987 3.19058L33.7218 7.48711ZM82.5346 6.025C82.4523 6.08093 82.292 6.17983 82.0629 6.25675C81.85 6.32822 81.426 6.43126 80.9028 6.30965C80.3095 6.17174 79.7523 5.77435 79.4454 5.15547C79.1697 4.59943 79.1886 4.05793 79.2793 3.68228C79.4538 2.95942 80.0453 2.24242 80.9821 2.06954C81.977 1.88593 82.6523 2.42264 82.895 2.67829L79.6916 5.71888C80.005 6.0491 80.7423 6.60505 81.7836 6.41286C82.7668 6.23141 83.3894 5.47802 83.5727 4.71847C83.6678 4.32448 83.6856 3.76456 83.4024 3.19348C83.0881 2.55954 82.5171 2.15046 81.9027 2.00767C81.3585 1.88117 80.9063 1.98613 80.6572 2.06976C80.3919 2.15884 80.1873 2.28015 80.0519 2.37217L82.5346 6.025ZM62.1181 4.91424C62.062 4.97328 61.8957 5.1429 61.6246 5.29226C61.4064 5.4125 60.6545 5.77054 59.7434 5.39554C58.7711 4.99535 58.4923 4.13594 58.4248 3.78026C58.3517 3.39437 58.399 3.07547 58.4453 2.88145C58.4952 2.67274 58.587 2.42918 58.7514 2.18545C58.8944 1.97337 59.2487 1.53266 59.9058 1.32733C60.2588 1.21702 60.6503 1.19343 61.0404 1.2816C61.4196 1.36732 61.7138 1.53914 61.9213 1.70513C62.3013 2.00915 62.4707 2.35439 62.5279 2.48049L58.5062 4.30597C58.5801 4.46887 58.7663 4.83723 59.1624 5.15409C59.3779 5.3265 59.6799 5.50217 60.0667 5.5896C60.4644 5.67948 60.8631 5.65546 61.223 5.54299C61.8939 5.33337 62.2604 4.88147 62.4133 4.65475C62.5875 4.39638 62.6869 4.13471 62.7411 3.90784C62.7918 3.69565 62.8402 3.35853 62.7643 2.95776C62.694 2.5872 62.4084 1.71626 61.4244 1.31129C60.5017 0.931514 59.7335 1.29153 59.4932 1.42391C59.2001 1.5854 59.0062 1.77731 58.916 1.87222L62.1181 4.91424ZM70.1578 114.511C69.8779 114.818 69.6253 115.121 69.4351 115.411C69.3435 115.551 69.215 115.764 69.1169 116.027C69.0665 116.162 69.0044 116.361 68.9762 116.607C68.9483 116.849 68.9438 117.222 69.0924 117.641C69.2538 118.095 69.5595 118.496 69.9784 118.772C70.3666 119.028 70.7498 119.11 71.0088 119.136C71.2688 119.162 71.4867 119.14 71.6316 119.116C71.7828 119.092 71.9116 119.056 72.0097 119.025C72.3605 118.913 72.6569 118.74 72.8438 118.619C73.0551 118.482 73.2755 118.314 73.4771 118.126C73.5792 118.031 73.6929 117.915 73.8039 117.781C73.909 117.653 74.0499 117.463 74.17 117.218C74.2796 116.995 74.456 116.557 74.4194 115.99C74.3999 115.689 74.3198 115.362 74.1497 115.044C73.9795 114.726 73.7512 114.477 73.5099 114.293C73.0564 113.947 72.5878 113.847 72.328 113.812C72.0449 113.773 71.7862 113.783 71.5875 113.801L71.9897 118.2C71.985 118.2 71.9616 118.202 71.9232 118.202C71.8858 118.202 71.821 118.2 71.7361 118.189C71.6015 118.17 71.2225 118.104 70.8284 117.802C70.6168 117.641 70.4108 117.418 70.2558 117.129C70.1009 116.839 70.0293 116.543 70.0119 116.276C69.9796 115.776 70.1355 115.414 70.205 115.273C70.2849 115.11 70.3659 115.008 70.3968 114.97C70.4337 114.925 70.4589 114.902 70.4634 114.897C70.47 114.891 70.459 114.901 70.4449 114.91C70.4065 114.935 70.4835 114.876 70.6632 114.819C70.7186 114.801 70.8076 114.776 70.9227 114.757C71.0316 114.739 71.217 114.718 71.449 114.742C71.68 114.765 72.0394 114.84 72.4089 115.084C72.8091 115.348 73.101 115.731 73.2543 116.162C73.3949 116.558 73.3879 116.903 73.364 117.111C73.3397 117.323 73.2877 117.483 73.2546 117.572C73.2194 117.666 73.1852 117.733 73.1662 117.768C73.1461 117.806 73.1318 117.828 73.1285 117.833C73.1234 117.841 73.1396 117.815 73.1922 117.751C73.2428 117.688 73.3164 117.602 73.4194 117.489L70.1578 114.511Z" fill="white" mask="url(#path-1-outside-1_23_6317)"/>
</svg>
